<svg width="76" height="75" fill="none" xmlns="http://www.w3.org/2000/svg"><path d="M36.857 75C16.501 75 0 58.497 0 38.14c0-10.008 3.99-19.085 10.463-25.726l.254-.26.002.003C4.246 18.8.256 27.876.256 37.884c0 20.357 16.502 36.86 36.858 36.86 10.008 0 19.085-3.99 25.726-10.464l.002.001-.258.255C55.942 71.011 46.865 75 36.857 75z" fill="#969A9D"/><path d="M37.115 74.743C16.76 74.743.258 58.242.258 37.884c0-10.008 3.99-19.085 10.463-25.726.084-.087.169-.173.254-.258l.002.001C4.504 18.543.514 27.62.514 37.628c0 20.357 16.502 36.86 36.858 36.86 10.008 0 19.085-3.99 25.726-10.465l.002.002-.259.255c-6.64 6.474-15.718 10.463-25.726 10.463z" fill="#96999C"/><path d="M37.377 74.487C17.021 74.487.52 57.985.52 37.628c0-10.008 3.989-19.085 10.462-25.727l.255-.258.002.002C4.765 18.286.776 27.364.776 37.372c0 20.356 16.502 36.858 36.857 36.858 10.008 0 19.085-3.989 25.727-10.463l.002.001c-.086.086-.172.17-.26.255-6.64 6.475-15.717 10.464-25.725 10.464z" fill="#96989A"/><path d="M37.623 74.23C17.267 74.23.766 57.728.766 37.372c0-10.008 3.99-19.086 10.463-25.727l.254-.259.002.003C5.012 18.03 1.022 27.107 1.022 37.115c0 20.356 16.502 36.86 36.857 36.86 10.009 0 19.086-3.99 25.727-10.464l.002.001-.258.255C56.707 70.24 47.63 74.23 37.623 74.23z" fill="#95979A"/><path d="M37.88 73.975c-20.355 0-36.857-16.503-36.857-36.86 0-10.008 3.99-19.085 10.463-25.726l.255-.258.002.001a37.09 37.09 0 00-4.198 5.162c0 .002-.002.004-.004.006l-.025.038-.007.01-.023.034-.009.014-.02.031-.012.017a.66.66 0 00-.032.048l-.015.023a.918.918 0 01-.03.044l-.019.03-.01.014a.994.994 0 00-.021.034l-.007.01-.026.039c0 .002-.001.002-.003.005l-.028.043A36.682 36.682 0 001.28 36.86c0 11.969 5.704 22.605 14.543 29.338a36.695 36.695 0 0022.315 7.52c4.054 0 7.957-.654 11.606-1.864l.051-.017.004-.001.046-.015.01-.004a.831.831 0 00.053-.018l.036-.012.02-.006a.437.437 0 01.03-.01l.023-.009a.427.427 0 00.026-.008l.03-.01.018-.007a.507.507 0 00.034-.012l.016-.005c.014-.004.026-.01.04-.013l.006-.003.047-.016a36.81 36.81 0 002.592-1.012l-.01.004a36.914 36.914 0 0011.048-7.425l.002.002-.259.255c-6.641 6.474-15.718 10.464-25.726 10.464z" fill="#939699"/><path d="M38.142 73.717zm11.717-1.901l.041-.014a.8.8 0 01-.041.014zm.054-.018l.036-.012-.036.012zm.109-.037l.025-.008-.025.008zm.108-.037l.016-.005-.016.005zm.109-.037l.004-.002c-.002 0-.003 0-.004.002zM7.258 16.734zm.057-.088l.007-.01a.154.154 0 01-.007.01zm.058-.087a.672.672 0 00.013-.02l-.013.02zm.03-.045l.014-.022a.714.714 0 01-.014.022zm.088-.132l.022-.034-.022.034zm.059-.088z" fill="#939599"/><mask id="mask0_801_4881" style="mask-type:luminance" maskUnits="userSpaceOnUse" x="1" y="0" width="74" height="74"><path d="M38.027 73.718a36.67 36.67 0 01-22.25-7.473c-8.812-6.69-14.5-17.258-14.5-29.15A36.356 36.356 0 017.233 17.1l.001-.002a3.183 3.183 0 01.031-.047l.026-.039a.999.999 0 01.029-.043l.009-.015.02-.029.012-.02a.888.888 0 00.046-.068.726.726 0 01.018-.026l.01-.017c.008-.01.014-.02.021-.031l.01-.014.022-.033.007-.01.025-.038.004-.006a36.82 36.82 0 017.592-8.203 36.772 36.772 0 007.205-4.481A36.726 36.726 0 0136.933.968c20.296 0 36.75 16.397 36.75 36.623 0 14.614-8.589 27.227-21.01 33.103-.844.366-1.706.701-2.581 1.005l-.004.001-.047.016-.006.003-.04.013-.015.005a.453.453 0 01-.034.012l-.02.007-.029.01-.025.008-.024.008a.52.52 0 00-.03.01l-.02.007-.035.012a.99.99 0 01-.054.018l-.01.003a1.995 1.995 0 00-.048.016l-.05.017h-.002a36.845 36.845 0 01-11.572 1.853zm36.155-30.025l.001-.004-.001.004zm.02-.109l.002-.015-.002.015zm.01-.051c0-.006 0-.011.002-.017a.152.152 0 00-.003.017zm.019-.113zm.009-.05c0-.01.003-.017.004-.025l-.004.025zm.01-.057l.006-.041-.007.041zm.017-.103c.335-1.988.51-4.031.51-6.114 0-9.889-3.934-18.863-10.326-25.452 6.392 6.589 10.326 15.563 10.326 25.451 0 2.084-.174 4.126-.51 6.115zM22.323 3.976l.004-.002a36.59 36.59 0 01-.004.002zm6.896-2.445l.018-.004-.018.004z" fill="#fff"/></mask><g mask="url(#mask0_801_4881)"><path d="M38.027 73.718a36.67 36.67 0 01-22.25-7.473c-8.812-6.69-14.5-17.258-14.5-29.15A36.356 36.356 0 017.233 17.1l.001-.002a3.183 3.183 0 01.031-.047l.026-.039a.999.999 0 01.029-.043l.009-.015.02-.029.012-.02a.888.888 0 00.046-.068.726.726 0 01.018-.026l.01-.017c.008-.01.014-.02.021-.031l.01-.014.022-.033.007-.01.025-.038.004-.006a36.816 36.816 0 017.592-8.203 36.772 36.772 0 007.205-4.481A36.726 36.726 0 0136.933.968c20.296 0 36.75 16.397 36.75 36.623 0 14.614-8.589 27.227-21.01 33.103-.844.366-1.706.701-2.581 1.005l-.004.001-.047.016-.006.003-.04.013-.015.005a.453.453 0 01-.034.012l-.02.007-.029.01-.025.008-.024.008a.52.52 0 00-.03.01l-.02.007-.035.012a.99.99 0 01-.054.018l-.01.003a1.995 1.995 0 00-.048.016l-.05.017h-.002a36.845 36.845 0 01-11.572 1.853zm36.155-30.025l.001-.004-.001.004zm.02-.109l.002-.015-.002.015zm.01-.051c0-.006 0-.011.002-.017a.152.152 0 00-.003.017zm.019-.113zm.009-.05c0-.01.003-.017.004-.025l-.004.025zm.01-.057l.006-.041-.007.041zm.017-.103c.335-1.988.51-4.031.51-6.114 0-9.889-3.934-18.863-10.326-25.452 6.392 6.589 10.326 15.563 10.326 25.451 0 2.084-.174 4.126-.51 6.115zM22.323 3.976l.004-.002a36.59 36.59 0 01-.004.002zM29.22 1.53l.018-.004-.018.004z" fill="url(#paint0_linear_801_4881)"/></g><path d="M75.004 36.86c0 15.139-9.127 28.147-22.18 33.82 12.464-5.913 21.082-18.61 21.082-33.322 0-20.356-16.501-36.86-36.857-36.86a36.726 36.726 0 00-14.674 3.039A36.694 36.694 0 0138.147 0c20.355 0 36.857 16.503 36.857 36.86z" fill="#fff"/><path fill-rule="evenodd" clip-rule="evenodd" d="M27.154 33c0-6.075 5.304-11 11.846-11s11.846 4.925 11.846 11c0 3.807-2.082 7.163-5.25 9.139-2.689 1.676-5.52 4.315-5.52 7.772V50c0 3.314-2.892 6-6.46 6-3.57 0-6.462-2.686-6.462-6v-2H25v2c0 4.418 3.857 8 8.615 8s8.616-3.582 8.616-8v-.089c0-2.404 2.013-4.52 4.565-6.112C50.536 41.467 53 37.501 53 33c0-7.18-6.268-13-14-13s-14 5.82-14 13h2.154zM38 29c-1.948 0-3.528 1.315-3.911 3.02h.028c.813.042 1.918.158 3.038.464 1.111.304 2.312.816 3.247 1.697.965.909 1.598 2.169 1.598 3.827 0 .03-.001.06-.004.09-.147 1.61-.54 2.84-1.137 3.762-.605.937-1.386 1.503-2.202 1.824-.798.314-1.598.382-2.249.382-.327 0-.629-.018-.878-.033l-.099-.007a15.753 15.753 0 00-.3-.018 1.783 1.783 0 00-.041.077 5.985 5.985 0 00-.277.674c-.064.174-.137.374-.233.614-.21.525-.511 1.178-1.017 1.7-.544.559-1.284.927-2.252.927-.838 0-1.532-.192-2.076-.565a2.739 2.739 0 01-1.032-1.34A3.529 3.529 0 0128 44.891a3.728 3.728 0 01.04-.546l.003-.014.001-.005v-.004l.985.18.983.178v-.003l.001-.003v-.003.003l-.004.038a1.727 1.727 0 00.073.695.741.741 0 00.281.376c.14.096.417.216.948.216.402 0 .632-.131.817-.321.221-.228.405-.574.595-1.049.046-.115.097-.253.152-.401.13-.35.282-.76.436-1.058a2.88 2.88 0 01.12-.213c.556-1.423 1.417-3.915 1.069-4.958-.233-.698-.682-1.396-1.096-1.943-.504-.422-.888-.83-1.12-1.318-.286-.604-.285-1.235-.284-1.815v-.103c0-3.248 2.721-5.82 6-5.82s6 2.572 6 5.82h-2c0-2.075-1.756-3.82-4-3.82zm-2.808 14.92l-.009.01a.045.045 0 01.01-.01z" fill="#202020"/><defs><linearGradient id="paint0_linear_801_4881" x1="-4.491" y1="90.889" x2="63.739" y2="10.965" gradientUnits="userSpaceOnUse"><stop stop-color="#fff"/><stop offset="1" stop-color="#EFEFEF"/></linearGradient></defs></svg>