<svg width="25" height="26" viewBox="0 0 25 26" fill="none" xmlns="http://www.w3.org/2000/svg">
<g clip-path="url(#clip0_801_5245)">
<path d="M24.9993 6.26527C24.9993 3.08033 22.419 0.5 19.234 0.5C16.5369 0.5 14.2742 2.35071 13.643 4.84906C13.5282 5.302 13.4688 5.77748 13.4688 6.26527V12.0305H19.234C22.419 12.0305 24.9993 9.4502 24.9993 6.26527Z" fill="#FF3F56"/>
<path d="M0 19.7345C0 22.9194 2.58033 25.4998 5.76527 25.4998C8.46242 25.4998 10.7251 23.6491 11.3563 21.1507C11.4711 20.6978 11.5305 20.2223 11.5305 19.7345V13.9692H5.76527C2.58033 13.9692 0 16.5496 0 19.7345Z" fill="#FF3F56"/>
<path d="M4.34906 11.8563C4.802 11.9711 5.27748 12.0305 5.76527 12.0305H11.5305V6.26527C11.5326 3.08033 8.9502 0.5 5.76527 0.5C2.58033 0.5 0 3.08033 0 6.26527C0 8.96242 1.85071 11.2251 4.34906 11.8563Z" fill="#FF3F56"/>
<path d="M20.6502 14.1439C20.1973 14.0292 19.7218 13.9697 19.234 13.9697H13.4688V19.735C13.4688 22.9199 16.0491 25.5003 19.234 25.5003C22.419 25.5003 24.9993 22.9199 24.9993 19.735C24.9993 17.0378 23.1486 14.7752 20.6502 14.1439Z" fill="#FF3F56"/>
</g>
<defs>
<clipPath id="clip0_801_5245">
<rect width="24.9999" height="24.9999" fill="white" transform="translate(0 0.5)"/>
</clipPath>
</defs>
</svg>
