<svg width="32" height="32" fill="none" xmlns="http://www.w3.org/2000/svg"><g clip-path="url(#clip0_901_3725)" fill="#202020"><path d="M24.548.8a6.657 6.657 0 00-6.65 6.65c0 3.413 5.336 9.457 5.944 10.135a.951.951 0 001.413 0c.608-.678 5.943-6.722 5.943-10.135A6.657 6.657 0 0024.548.8zm0 9.5a2.851 2.851 0 010-5.7 2.851 2.851 0 010 5.7zM1.394 11.961a.953.953 0 00-.597.883V30.25a.952.952 0 001.304.882l8.196-3.28V8.4l-8.903 3.561z"/><path d="M26.671 18.854c-.54.6-1.313.946-2.12.946a2.855 2.855 0 01-2.12-.946 40.561 40.561 0 01-.73-.834V31.2l8.903-3.56a.947.947 0 00.597-.882V12.79c-1.556 2.635-3.637 5.067-4.53 6.063zM16.6 10.16L12.2 8.4v19.453l7.6 3.04V15.636c-1.213-1.636-2.48-3.607-3.2-5.476z"/></g><defs><clipPath id="clip0_901_3725"><path fill="#fff" transform="translate(.8 .8)" d="M0 0h30.4v30.4H0z"/></clipPath></defs></svg>