<svg width="956" height="594" fill="none" xmlns="http://www.w3.org/2000/svg"><g opacity=".07"><path d="M501.5 302.809c0 50.132-27.982 95.562-73.31 128.478-45.328 32.915-107.972 53.289-177.19 53.289s-131.862-20.374-177.19-53.289C28.482 398.371.5 352.941.5 302.809c0-50.131 27.982-95.561 73.31-128.477 45.328-32.915 107.972-53.289 177.19-53.289s131.862 20.374 177.19 53.289c45.328 32.916 73.31 78.346 73.31 128.477z" stroke="#FF3F56"/><path d="M767.5 182.267c0 50.131-27.982 95.561-73.31 128.477-45.328 32.915-107.972 53.289-177.19 53.289s-131.862-20.374-177.19-53.289c-45.328-32.916-73.31-78.346-73.31-128.477 0-50.132 27.982-95.562 73.31-128.478C385.138 20.874 447.782.5 517 .5s131.862 20.374 177.19 53.29c45.328 32.915 73.31 78.345 73.31 128.477z" stroke="#FF3F56"/><path d="M689.5 411.733c0 50.132-27.982 95.562-73.31 128.478C570.862 573.126 508.218 593.5 439 593.5s-131.862-20.374-177.19-53.289c-45.328-32.916-73.31-78.346-73.31-128.478 0-50.131 27.982-95.561 73.31-128.477 45.328-32.915 107.972-53.289 177.19-53.289s131.862 20.374 177.19 53.289c45.328 32.916 73.31 78.346 73.31 128.477z" stroke="#FF3F56"/><path d="M955.5 291.19c0 50.132-27.982 95.562-73.31 128.478-45.328 32.915-107.972 53.289-177.19 53.289s-131.862-20.374-177.19-53.289c-45.328-32.916-73.31-78.346-73.31-128.478 0-50.131 27.982-95.561 73.31-128.477 45.328-32.915 107.972-53.289 177.19-53.289s131.862 20.374 177.19 53.289c45.328 32.916 73.31 78.346 73.31 128.477z" stroke="#FF3F56"/><ellipse cx="718.5" cy="290.827" rx="7.5" ry="5.446" fill="#FF3F56"/><ellipse cx="741" cy="267.953" rx="15" ry="10.892" fill="#FF3F56"/></g></svg>