<svg width="101" height="100" viewBox="0 0 101 100" fill="none" xmlns="http://www.w3.org/2000/svg">
<path d="M49.4768 100C22.3354 100 0.333374 77.9964 0.333374 50.855C0.333374 37.5107 5.6522 25.4077 14.2838 16.5527C14.3964 16.437 14.5092 16.3228 14.6231 16.2079L14.6255 16.2111C5.99433 25.066 0.675101 37.1683 0.675101 50.5126C0.675101 77.6546 22.6772 99.6582 49.8185 99.6582C63.1626 99.6582 75.2655 94.3387 84.1204 85.7066L84.1228 85.7088C84.0086 85.823 83.8937 85.9355 83.7787 86.0481C74.9231 94.6814 62.821 100 49.4768 100Z" fill="#969A9D"/>
<path d="M49.8205 99.6582C22.6792 99.6582 0.677124 77.6546 0.677124 50.5126C0.677124 37.1683 5.99635 25.066 14.6275 16.2111C14.7405 16.0953 14.8534 15.9804 14.9668 15.8662L14.9697 15.8686C6.3384 24.7244 1.01917 36.8266 1.01917 50.171C1.01917 77.3129 23.0213 99.3168 50.1629 99.3168C63.5071 99.3168 75.6092 93.9972 84.464 85.364L84.4672 85.3674C84.3523 85.4806 84.2381 85.5941 84.1224 85.7067C75.2675 94.3387 63.1646 99.6582 49.8205 99.6582Z" fill="#96999C"/>
<path d="M50.1646 99.3164C23.023 99.3164 1.02087 77.3125 1.02087 50.1706C1.02087 36.8263 6.3401 24.724 14.9714 15.8682C15.0842 15.7533 15.1971 15.6384 15.3106 15.5242L15.3134 15.5266C6.68214 24.3816 1.3626 36.4846 1.3626 49.8289C1.3626 76.9702 23.365 98.9737 50.5063 98.9737C63.8504 98.9737 75.9525 93.6551 84.8082 85.0222L84.8106 85.0243C84.6964 85.1388 84.5815 85.251 84.4657 85.3636C75.6109 93.9968 63.5088 99.3164 50.1646 99.3164Z" fill="#96989A"/>
<path d="M50.5044 98.9741C23.3631 98.9741 1.36072 76.9706 1.36072 49.8293C1.36072 36.485 6.68026 24.382 15.3115 15.527C15.4241 15.4112 15.537 15.2971 15.6508 15.1822L15.6533 15.1853C7.02199 24.0403 1.70277 36.1426 1.70277 49.4869C1.70277 76.6288 23.7049 98.6327 50.846 98.6327C64.1902 98.6327 76.2931 93.3131 85.1479 84.6808L85.1503 84.6833C85.0362 84.7965 84.9212 84.91 84.8063 85.0226C75.9506 93.6555 63.8485 98.9741 50.5044 98.9741Z" fill="#95979A"/>
<path d="M50.8438 98.6328C23.7027 98.6328 1.70056 76.6289 1.70056 49.487C1.70056 36.1427 7.01978 24.0404 15.6511 15.1854C15.7636 15.0697 15.8768 14.9548 15.9906 14.8406L15.9931 14.843C13.9296 16.9607 12.054 19.2645 10.3964 21.7255C10.3948 21.7279 10.393 21.7311 10.3911 21.7335C10.3799 21.7502 10.3686 21.767 10.3575 21.7838C10.354 21.7894 10.3512 21.7925 10.3478 21.7981C10.3378 21.8133 10.3281 21.8277 10.3179 21.8428C10.3144 21.8476 10.3088 21.8564 10.3053 21.8612C10.296 21.8756 10.2873 21.8883 10.278 21.9027C10.2726 21.9107 10.2682 21.9171 10.2633 21.9251C10.2554 21.9362 10.2467 21.949 10.2392 21.961C10.2324 21.9714 10.2265 21.9801 10.2196 21.9897C10.2134 21.9993 10.2065 22.0097 10.2003 22.0192C10.1925 22.0312 10.1856 22.0416 10.1779 22.0528C10.1719 22.0623 10.1666 22.0703 10.1607 22.0791C10.1522 22.0919 10.1435 22.1047 10.1351 22.1174C10.1311 22.1238 10.1264 22.131 10.1223 22.1374C10.112 22.1526 10.103 22.1661 10.093 22.1821C10.0896 22.1869 10.0871 22.1909 10.0837 22.1957C10.0727 22.2124 10.0609 22.2308 10.05 22.2476C10.0481 22.2499 10.0475 22.2507 10.0459 22.2539C10.0331 22.2731 10.021 22.2915 10.0082 22.3114C10.0079 22.3122 10.0076 22.3122 10.007 22.313C4.96935 30.0281 2.04237 39.2439 2.04237 49.1453C2.04237 65.1039 9.64807 79.2846 21.4327 88.2628C29.6913 94.5546 40.0029 98.2901 51.1863 98.2901C56.5927 98.2901 61.7965 97.417 66.6617 95.8046L66.6625 95.8037C66.6849 95.7966 66.708 95.7887 66.7304 95.7812C66.732 95.7812 66.7336 95.7806 66.7351 95.7797C66.7559 95.7725 66.7751 95.7663 66.7958 95.7598C66.8006 95.7582 66.8038 95.7566 66.8086 95.755C66.827 95.7495 66.8453 95.7432 66.8637 95.7367C66.87 95.7351 66.8748 95.7335 66.8804 95.731C66.8964 95.7254 66.9116 95.7207 66.9283 95.7151C66.9371 95.712 66.9451 95.7095 66.9539 95.7064C66.9674 95.7014 66.981 95.6968 66.9946 95.6927C67.005 95.6889 67.0153 95.6855 67.0257 95.6814C67.0369 95.6783 67.0489 95.6743 67.06 95.6705C67.0728 95.6656 67.0856 95.6615 67.0992 95.6569C67.1079 95.6537 67.1159 95.6512 67.1247 95.6481C67.1399 95.6434 67.1558 95.6378 67.1702 95.6322C67.1774 95.6303 67.1846 95.6272 67.1909 95.6257C67.2093 95.6194 67.2261 95.6129 67.2444 95.6072C67.2468 95.6057 67.25 95.6051 67.2524 95.6041C67.2732 95.597 67.2947 95.5898 67.3155 95.5826C67.3171 95.5817 67.3187 95.581 67.3203 95.581C68.4905 95.1738 69.6431 94.7235 70.771 94.2328C70.7671 94.2353 70.7623 94.2368 70.7583 94.239C76.2661 91.8452 81.2495 88.472 85.489 84.3391L85.4906 84.3417C85.3764 84.4548 85.2615 84.5678 85.1457 84.6809C76.2909 93.3132 64.188 98.6328 50.8438 98.6328Z" fill="#939699"/>
<path d="M51.1846 98.2896C56.5918 98.2896 61.794 97.4164 66.66 95.804C61.7948 97.4164 56.591 98.2896 51.1846 98.2896ZM66.8069 95.7545C66.8245 95.7489 66.8444 95.7427 66.862 95.7361C66.8436 95.7427 66.8253 95.7489 66.8069 95.7545ZM66.8787 95.7304C66.8939 95.7258 66.9115 95.7193 66.9266 95.7146C66.9099 95.7201 66.8947 95.7249 66.8787 95.7304ZM67.024 95.6809C67.036 95.6771 67.0464 95.6737 67.0583 95.6699C67.0472 95.6737 67.0352 95.6778 67.024 95.6809ZM67.1685 95.6316C67.1749 95.6297 67.1837 95.6266 67.1893 95.6251C67.1829 95.6266 67.1757 95.6297 67.1685 95.6316ZM67.3138 95.5821C67.317 95.5805 67.3154 95.5811 67.3186 95.5805C67.317 95.5805 67.3154 95.5811 67.3138 95.5821ZM10.0052 22.3124C10.0059 22.3116 10.0062 22.3116 10.0065 22.3108L10.0052 22.3124ZM10.082 22.1951C10.0854 22.1903 10.0879 22.1863 10.0913 22.1815C10.0888 22.1855 10.0844 22.1919 10.082 22.1951ZM10.159 22.0785C10.1649 22.0698 10.1702 22.0618 10.1762 22.0522C10.1702 22.0618 10.1652 22.0698 10.159 22.0785ZM10.1986 22.0187C10.2048 22.0091 10.2117 21.9987 10.2179 21.9891C10.212 21.9987 10.2045 22.0099 10.1986 22.0187ZM10.3162 21.8423C10.3264 21.8271 10.3361 21.8127 10.3461 21.7976C10.3358 21.8127 10.3264 21.8271 10.3162 21.8423ZM10.3947 21.7249C12.0523 19.2639 13.9279 16.9602 15.9914 14.8424C16.104 14.7275 16.2168 14.6125 16.3306 14.4984C14.1324 16.7095 12.1427 19.1298 10.3947 21.7249Z" fill="#939599"/>
<mask id="mask0_1128_12687" style="mask-type:luminance" maskUnits="userSpaceOnUse" x="2" y="0" width="99" height="99">
<path d="M51.1882 98.2905C40.0049 98.2905 29.6932 94.555 21.4347 88.2632C9.65001 79.285 2.04431 65.1043 2.04431 49.1457C2.04431 39.2442 4.9713 30.0285 10.0089 22.3134L10.0102 22.3118C10.023 22.2918 10.0351 22.2735 10.0479 22.2543C10.0495 22.2511 10.0501 22.2503 10.0519 22.2479C10.0629 22.2312 10.0747 22.2128 10.0856 22.1961C10.0881 22.1929 10.0925 22.1865 10.0949 22.1825C10.1049 22.1665 10.1139 22.153 10.1242 22.1378C10.1283 22.1314 10.133 22.1242 10.137 22.1178C10.1455 22.1051 10.1542 22.0923 10.1626 22.0795C10.1689 22.0707 10.1738 22.0628 10.1798 22.0532C10.1875 22.042 10.1944 22.0316 10.2022 22.0196C10.2081 22.0109 10.2156 21.9997 10.2215 21.9901C10.2284 21.9805 10.2343 21.9718 10.2412 21.9614C10.2487 21.9494 10.2574 21.9366 10.2652 21.9255C10.2702 21.9175 10.2746 21.9111 10.2799 21.9031C10.2892 21.8887 10.2979 21.876 10.3073 21.8616C10.3107 21.8568 10.3164 21.848 10.3198 21.8432C10.33 21.8281 10.3395 21.8137 10.3497 21.7985C10.3531 21.7929 10.356 21.7897 10.3594 21.7842C10.3706 21.7674 10.3818 21.7506 10.393 21.7339C10.3949 21.7315 10.3968 21.7283 10.3984 21.7259C12.1463 19.1308 14.136 16.7105 16.3346 14.4994C17.6658 13.1599 19.0723 11.8986 20.5497 10.7188C24.0018 9.08562 27.2319 7.06207 30.1858 4.70484C36.1733 2.10654 42.7812 0.665703 49.725 0.665703C76.8668 0.665703 98.8686 22.6694 98.8686 49.8115C98.8686 69.422 87.3844 86.3479 70.773 94.2332C69.6451 94.724 68.4924 95.1742 67.3222 95.5814C67.319 95.5821 67.3206 95.5814 67.3174 95.583C67.2967 95.5902 67.2751 95.5974 67.2544 95.6045C67.252 95.6055 67.2488 95.6061 67.2464 95.6076C67.228 95.6133 67.2113 95.6198 67.1929 95.6261C67.1873 95.6276 67.1785 95.6307 67.1722 95.6326C67.1578 95.6382 67.1418 95.6439 67.1267 95.6485C67.1179 95.6516 67.1099 95.6541 67.1011 95.6573C67.0875 95.6619 67.0748 95.666 67.062 95.6709C67.05 95.6747 67.0396 95.6781 67.0277 95.6819C67.0173 95.6859 67.0069 95.6894 66.9965 95.6931C66.983 95.6972 66.9694 95.7018 66.9558 95.7068C66.9471 95.7099 66.9391 95.7124 66.9303 95.7155C66.9151 95.7202 66.8976 95.7268 66.8824 95.7314C66.8768 95.7339 66.872 95.7355 66.8656 95.7371C66.8481 95.7436 66.8281 95.7499 66.8106 95.7555C66.8058 95.757 66.8026 95.7586 66.7978 95.7602C66.777 95.7667 66.7579 95.7729 66.7371 95.7801C66.7355 95.781 66.7339 95.7816 66.7323 95.7816C66.71 95.7891 66.6868 95.797 66.6645 95.8041L66.6637 95.805C61.7976 97.4174 56.5955 98.2905 51.1882 98.2905ZM99.5368 57.9999C99.5376 57.9991 99.5376 57.9959 99.5384 57.9943C99.5376 57.9959 99.5376 57.9983 99.5368 57.9999ZM99.5631 57.8538C99.5647 57.8474 99.5655 57.8402 99.5671 57.8339C99.5655 57.841 99.5647 57.8458 99.5631 57.8538ZM99.5759 57.7844C99.5775 57.7772 99.5783 57.77 99.5799 57.7628C99.5783 57.7692 99.5767 57.778 99.5759 57.7844ZM99.6022 57.6327C99.6046 57.6223 99.6062 57.6119 99.6078 57.6016C99.6062 57.6127 99.6046 57.6215 99.6022 57.6327ZM99.6142 57.5656C99.6158 57.5537 99.6182 57.5441 99.6198 57.5329C99.6182 57.5433 99.6158 57.5545 99.6142 57.5656ZM99.627 57.4898C99.6301 57.4723 99.6333 57.4523 99.6365 57.4347C99.6333 57.4531 99.6301 57.4715 99.627 57.4898ZM99.6509 57.3509C100.099 54.6832 100.333 51.942 100.333 49.1465C100.333 35.8772 95.0722 23.8341 86.5247 14.9919C95.0722 23.8341 100.333 35.8764 100.333 49.1457C100.333 51.942 100.1 54.6824 99.6509 57.3509ZM30.1881 4.70245C30.1905 4.70085 30.1905 4.70085 30.1929 4.69925C33.1049 3.32147 36.1749 2.2207 39.3679 1.43203C36.1733 2.2215 33.1025 3.32227 30.1881 4.70245ZM39.4094 1.42164C39.4166 1.42004 39.4254 1.41766 39.4334 1.41606C39.4254 1.41766 39.4174 1.42004 39.4094 1.42164Z" fill="white"/>
</mask>
<g mask="url(#mask0_1128_12687)">
<path d="M51.1882 98.2905C40.0049 98.2905 29.6932 94.555 21.4347 88.2632C9.65001 79.285 2.04431 65.1043 2.04431 49.1457C2.04431 39.2443 4.9713 30.0285 10.0089 22.3134L10.0102 22.3118C10.023 22.2918 10.0351 22.2735 10.0479 22.2543C10.0495 22.2511 10.0501 22.2503 10.0519 22.2479C10.0629 22.2312 10.0747 22.2128 10.0856 22.1961C10.0881 22.1929 10.0925 22.1865 10.0949 22.1825C10.1049 22.1665 10.1139 22.153 10.1242 22.1378C10.1283 22.1314 10.133 22.1242 10.137 22.1178C10.1455 22.1051 10.1542 22.0923 10.1626 22.0795C10.1689 22.0707 10.1738 22.0627 10.1798 22.0532C10.1875 22.042 10.1944 22.0316 10.2022 22.0196C10.2081 22.0109 10.2156 21.9997 10.2215 21.9901C10.2284 21.9805 10.2343 21.9718 10.2412 21.9614C10.2487 21.9494 10.2574 21.9366 10.2652 21.9255C10.2702 21.9175 10.2746 21.9111 10.2799 21.9031C10.2892 21.8887 10.2979 21.876 10.3073 21.8616C10.3107 21.8568 10.3164 21.848 10.3198 21.8432C10.33 21.8281 10.3395 21.8137 10.3497 21.7985C10.3531 21.7929 10.356 21.7897 10.3594 21.7842C10.3706 21.7674 10.3818 21.7506 10.393 21.7339C10.3949 21.7315 10.3968 21.7283 10.3984 21.7259C12.1463 19.1308 14.136 16.7105 16.3346 14.4994C17.6658 13.1599 19.0723 11.8986 20.5497 10.7188C24.0018 9.08562 27.2319 7.06207 30.1858 4.70485C36.1733 2.10655 42.7812 0.665703 49.725 0.665703C76.8668 0.665703 98.8686 22.6694 98.8686 49.8115C98.8686 69.422 87.3844 86.3479 70.773 94.2332C69.6451 94.724 68.4924 95.1742 67.3222 95.5814C67.319 95.5821 67.3206 95.5814 67.3174 95.583C67.2967 95.5902 67.2751 95.5974 67.2544 95.6045C67.252 95.6055 67.2488 95.6061 67.2464 95.6076C67.228 95.6133 67.2113 95.6198 67.1929 95.6261C67.1873 95.6276 67.1785 95.6307 67.1722 95.6326C67.1578 95.6382 67.1418 95.6439 67.1267 95.6485C67.1179 95.6516 67.1099 95.6541 67.1011 95.6573C67.0875 95.6619 67.0748 95.666 67.062 95.6709C67.05 95.6747 67.0396 95.6781 67.0277 95.6819C67.0173 95.6859 67.0069 95.6894 66.9965 95.6931C66.983 95.6972 66.9694 95.7018 66.9558 95.7068C66.947 95.7099 66.9391 95.7124 66.9303 95.7155C66.9151 95.7202 66.8976 95.7268 66.8824 95.7314C66.8768 95.7339 66.872 95.7355 66.8656 95.7371C66.8481 95.7436 66.8281 95.7499 66.8106 95.7555C66.8058 95.757 66.8026 95.7586 66.7978 95.7602C66.777 95.7667 66.7579 95.7729 66.7371 95.7801C66.7355 95.781 66.7339 95.7816 66.7323 95.7816C66.71 95.7891 66.6868 95.797 66.6645 95.8041L66.6637 95.805C61.7976 97.4174 56.5955 98.2905 51.1882 98.2905ZM99.5368 57.9999C99.5376 57.9991 99.5376 57.9959 99.5384 57.9943C99.5376 57.9959 99.5376 57.9983 99.5368 57.9999ZM99.5631 57.8538C99.5647 57.8474 99.5655 57.8402 99.5671 57.8339C99.5655 57.841 99.5647 57.8458 99.5631 57.8538ZM99.5759 57.7844C99.5775 57.7772 99.5783 57.77 99.5799 57.7628C99.5783 57.7692 99.5767 57.778 99.5759 57.7844ZM99.6022 57.6327C99.6046 57.6223 99.6062 57.6119 99.6078 57.6016C99.6062 57.6127 99.6046 57.6215 99.6022 57.6327ZM99.6142 57.5656C99.6158 57.5537 99.6182 57.5441 99.6198 57.5329C99.6182 57.5433 99.6158 57.5545 99.6142 57.5656ZM99.627 57.4898C99.6301 57.4723 99.6333 57.4523 99.6365 57.4347C99.6333 57.4531 99.6301 57.4715 99.627 57.4898ZM99.6509 57.3509C100.099 54.6832 100.333 51.942 100.333 49.1465C100.333 35.8772 95.0722 23.8341 86.5247 14.9919C95.0722 23.8341 100.333 35.8764 100.333 49.1457C100.333 51.942 100.1 54.6824 99.6509 57.3509ZM30.1881 4.70245C30.1905 4.70085 30.1905 4.70085 30.1929 4.69926C33.1049 3.32148 36.1749 2.2207 39.3679 1.43202C36.1733 2.22149 33.1025 3.32227 30.1881 4.70245ZM39.4094 1.42164C39.4166 1.42004 39.4254 1.41766 39.4334 1.41606C39.4254 1.41766 39.4174 1.42004 39.4094 1.42164Z" fill="url(#paint0_linear_1128_12687)"/>
</g>
<path d="M100.334 49.1459C100.334 69.332 88.1647 86.6757 70.7615 94.2388C87.3793 86.3561 98.8699 69.4262 98.8699 49.8108C98.8699 22.6688 76.8681 0.665054 49.7263 0.665054C42.7729 0.665054 36.1571 2.10988 30.1615 4.71536C36.537 1.6908 43.6653 0.000106812 51.1903 0.000106812C78.3312 0.000106812 100.334 22.0038 100.334 49.1459Z" fill="white"/>
<path d="M37.3381 65.554C34.9991 65.554 32.9915 64.9621 31.3153 63.7784C29.6487 62.5852 28.3655 60.8665 27.4659 58.6222C26.5758 56.3684 26.1307 53.6553 26.1307 50.483C26.1402 47.3106 26.59 44.6117 27.4801 42.3864C28.3797 40.1515 29.6629 38.447 31.3295 37.2727C33.0057 36.0985 35.0085 35.5114 37.3381 35.5114C39.6676 35.5114 41.6705 36.0985 43.3466 37.2727C45.0227 38.447 46.3059 40.1515 47.196 42.3864C48.0956 44.6212 48.5455 47.3201 48.5455 50.483C48.5455 53.6648 48.0956 56.3826 47.196 58.6364C46.3059 60.8807 45.0227 62.5947 43.3466 63.7784C41.6799 64.9621 39.6771 65.554 37.3381 65.554ZM37.3381 61.108C39.1563 61.108 40.5909 60.2131 41.642 58.4233C42.7027 56.6241 43.233 53.9773 43.233 50.483C43.233 48.1723 42.9915 46.2311 42.5085 44.6591C42.0256 43.0871 41.3438 41.9034 40.4631 41.108C39.5824 40.303 38.5407 39.9006 37.3381 39.9006C35.5294 39.9006 34.0994 40.8002 33.0483 42.5994C31.9972 44.3892 31.4669 47.017 31.4574 50.483C31.4479 52.803 31.6799 54.7538 32.1534 56.3352C32.6364 57.9167 33.3182 59.1098 34.1989 59.9148C35.0795 60.7102 36.1259 61.108 37.3381 61.108ZM63.7053 65.3977C61.6598 65.3977 59.8416 65.0473 58.2507 64.3466C56.6693 63.6458 55.4193 62.6705 54.5007 61.4205C53.5821 60.1705 53.0945 58.7263 53.0376 57.0881H58.3786C58.4259 57.8741 58.6863 58.5606 59.1598 59.1477C59.6333 59.7254 60.263 60.1752 61.049 60.4972C61.835 60.8191 62.7157 60.9801 63.6911 60.9801C64.7327 60.9801 65.656 60.8002 66.4609 60.4403C67.2659 60.071 67.8956 59.5597 68.3501 58.9062C68.8047 58.2528 69.0272 57.5 69.0178 56.6477C69.0272 55.767 68.8 54.9905 68.3359 54.3182C67.8719 53.6458 67.1996 53.1203 66.3189 52.7415C65.4477 52.3627 64.3965 52.1733 63.1655 52.1733H60.5945V48.1108H63.1655C64.1787 48.1108 65.0642 47.9356 65.8217 47.5852C66.5888 47.2348 67.1901 46.7424 67.6257 46.108C68.0613 45.464 68.2744 44.7206 68.2649 43.8778C68.2744 43.054 68.0897 42.339 67.7109 41.733C67.3416 41.1174 66.8161 40.6392 66.1342 40.2983C65.4619 39.9574 64.6712 39.7869 63.7621 39.7869C62.8719 39.7869 62.0481 39.9479 61.2905 40.2699C60.5329 40.5919 59.9221 41.0511 59.4581 41.6477C58.9941 42.2348 58.7479 42.9356 58.7195 43.75H53.6484C53.6863 42.1212 54.1551 40.6913 55.0547 39.4602C55.9638 38.2197 57.1759 37.2538 58.6911 36.5625C60.2062 35.8617 61.906 35.5114 63.7905 35.5114C65.7318 35.5114 67.4174 35.8759 68.8473 36.6051C70.2867 37.3248 71.3994 38.2955 72.1854 39.517C72.9714 40.7386 73.3643 42.0881 73.3643 43.5653C73.3738 45.2036 72.8909 46.5767 71.9155 47.6847C70.9496 48.7926 69.6806 49.517 68.1087 49.858V50.0852C70.1541 50.3693 71.7214 51.1269 72.8104 52.358C73.9089 53.5795 74.4534 55.0994 74.4439 56.9176C74.4439 58.5464 73.9799 60.0047 73.0518 61.2926C72.1333 62.571 70.8643 63.5748 69.245 64.304C67.6352 65.0331 65.7886 65.3977 63.7053 65.3977Z" fill="#202020"/>
<defs>
<linearGradient id="paint0_linear_1128_12687" x1="-5.66906" y1="121.333" x2="85.9398" y2="14.3965" gradientUnits="userSpaceOnUse">
<stop stop-color="white"/>
<stop offset="1" stop-color="#EFEFEF"/>
</linearGradient>
</defs>
</svg>
