<svg width="35" height="35" viewBox="0 0 35 35" fill="none" xmlns="http://www.w3.org/2000/svg">
<g clip-path="url(#clip0_885_7223)">
<path d="M17.4991 5.25098e-05C15.6374 -0.0872622 13.778 0.215095 12.0399 0.887769C10.3018 1.56044 8.72333 2.58861 7.40548 3.90646C6.08763 5.22431 5.05947 6.8028 4.38679 8.54089C3.71412 10.279 3.41176 12.1384 3.49908 14.0001C3.49908 18.4101 6.99908 22.7501 8.74908 24.5001C10.4991 26.2501 17.4991 35.0001 17.4991 35.0001C17.4991 35.0001 24.4991 26.2501 26.2491 24.5001C27.9991 22.7501 31.4991 18.4101 31.4991 14.0001C31.5864 12.1384 31.284 10.279 30.6114 8.54089C29.9387 6.8028 28.9105 5.22431 27.5927 3.90646C26.2748 2.58861 24.6963 1.56044 22.9582 0.887769C21.2201 0.215095 19.3607 -0.0872622 17.4991 5.25098e-05ZM17.4991 19.6876C16.3742 19.6876 15.2746 19.354 14.3393 18.729C13.404 18.1041 12.675 17.2158 12.2445 16.1766C11.814 15.1373 11.7014 13.9937 11.9209 12.8905C12.1403 11.7872 12.682 10.7738 13.4774 9.97838C14.2728 9.18297 15.2862 8.64129 16.3895 8.42184C17.4928 8.20238 18.6363 8.31501 19.6756 8.74549C20.7148 9.17596 21.6031 9.90494 22.2281 10.8402C22.853 11.7756 23.1866 12.8752 23.1866 14.0001C23.1866 14.7469 23.0395 15.4865 22.7536 16.1766C22.4678 16.8666 22.0489 17.4936 21.5207 18.0217C20.9926 18.5499 20.3656 18.9688 19.6756 19.2546C18.9855 19.5404 18.246 19.6876 17.4991 19.6876Z" fill="#FF3F56"/>
</g>
<defs>
<clipPath id="clip0_885_7223">
<rect width="35" height="35" fill="white"/>
</clipPath>
</defs>
</svg>
