<svg width="100" height="100" viewBox="0 0 100 100" fill="none" xmlns="http://www.w3.org/2000/svg">
<path d="M49.1434 100C22.002 100 0 77.9964 0 50.855C0 37.5107 5.31883 25.4077 13.9504 16.5527C14.063 16.437 14.1758 16.3228 14.2897 16.2079L14.2922 16.2111C5.66095 25.066 0.341727 37.1683 0.341727 50.5126C0.341727 77.6546 22.3438 99.6582 49.4851 99.6582C62.8292 99.6582 74.9321 94.3387 83.787 85.7066L83.7894 85.7088C83.6752 85.823 83.5603 85.9355 83.4454 86.0481C74.5897 94.6814 62.4876 100 49.1434 100Z" fill="#969A9D"/>
<path d="M49.4871 99.6582C22.3459 99.6582 0.34375 77.6546 0.34375 50.5126C0.34375 37.1683 5.66298 25.066 14.2942 16.2111C14.4071 16.0953 14.52 15.9804 14.6334 15.8662L14.6363 15.8686C6.00502 24.7244 0.685798 36.8266 0.685798 50.171C0.685798 77.3129 22.6879 99.3168 49.8295 99.3168C63.1737 99.3168 75.2758 93.9972 84.1307 85.364L84.1339 85.3674C84.0189 85.4806 83.9048 85.5941 83.789 85.7067C74.9342 94.3387 62.8313 99.6582 49.4871 99.6582Z" fill="#96999C"/>
<path d="M49.8312 99.3164C22.6896 99.3164 0.6875 77.3125 0.6875 50.1706C0.6875 36.8263 6.00672 24.724 14.638 15.8682C14.7509 15.7533 14.8637 15.6384 14.9773 15.5242L14.98 15.5266C6.34877 24.3816 1.02922 36.4846 1.02922 49.8289C1.02922 76.9702 23.0316 98.9737 50.1729 98.9737C63.517 98.9737 75.6191 93.6551 84.4748 85.0222L84.4772 85.0243C84.3631 85.1388 84.2481 85.251 84.1324 85.3636C75.2775 93.9968 63.1754 99.3164 49.8312 99.3164Z" fill="#96989A"/>
<path d="M50.171 98.9741C23.0298 98.9741 1.02734 76.9706 1.02734 49.8293C1.02734 36.485 6.34689 24.382 14.9782 15.527C15.0907 15.4112 15.2036 15.2971 15.3174 15.1822L15.3199 15.1853C6.68862 24.0403 1.36939 36.1426 1.36939 49.4869C1.36939 76.6288 23.3715 98.6327 50.5126 98.6327C63.8568 98.6327 75.9597 93.3131 84.8146 84.6808L84.817 84.6833C84.7028 84.7965 84.5879 84.91 84.4729 85.0226C75.6173 93.6555 63.5152 98.9741 50.171 98.9741Z" fill="#95979A"/>
<path d="M50.5104 98.6328C23.3693 98.6328 1.36719 76.6289 1.36719 49.487C1.36719 36.1427 6.68641 24.0404 15.3177 15.1854C15.4302 15.0697 15.5434 14.9548 15.6573 14.8406L15.6597 14.843C13.5962 16.9607 11.7207 19.2645 10.063 21.7255C10.0614 21.7279 10.0596 21.7311 10.0577 21.7335C10.0465 21.7502 10.0353 21.767 10.0241 21.7838C10.0207 21.7894 10.0178 21.7925 10.0144 21.7981C10.0044 21.8133 9.99471 21.8277 9.98449 21.8428C9.98106 21.8476 9.97539 21.8564 9.97196 21.8612C9.96262 21.8756 9.95392 21.8883 9.94458 21.9027C9.93923 21.9107 9.93485 21.9171 9.9299 21.9251C9.92207 21.9362 9.91337 21.949 9.90587 21.961C9.899 21.9714 9.89309 21.9801 9.88623 21.9897C9.88 21.9993 9.87314 22.0097 9.86692 22.0192C9.85909 22.0312 9.85223 22.0416 9.84448 22.0528C9.8385 22.0623 9.83323 22.0703 9.82732 22.0791C9.81886 22.0919 9.81016 22.1047 9.8017 22.1174C9.79771 22.1238 9.79299 22.131 9.78892 22.1374C9.77863 22.1526 9.76961 22.1661 9.75963 22.1821C9.7562 22.1869 9.75373 22.1909 9.75029 22.1957C9.73936 22.2124 9.72754 22.2308 9.7166 22.2476C9.71477 22.2499 9.71413 22.2507 9.71253 22.2539C9.69976 22.2731 9.68763 22.2915 9.67486 22.3114C9.67454 22.3122 9.67422 22.3122 9.67358 22.313C4.63598 30.0281 1.70899 39.2439 1.70899 49.1453C1.70899 65.1039 9.31469 79.2846 21.0993 88.2628C29.3579 94.5546 39.6696 98.2901 50.8529 98.2901C56.2594 98.2901 61.4631 97.417 66.3283 95.8046L66.3291 95.8037C66.3515 95.7966 66.3746 95.7887 66.397 95.7812C66.3986 95.7812 66.4002 95.7806 66.4018 95.7797C66.4225 95.7725 66.4417 95.7663 66.4624 95.7598C66.4672 95.7582 66.4704 95.7566 66.4752 95.755C66.4936 95.7495 66.5119 95.7432 66.5303 95.7367C66.5367 95.7351 66.5415 95.7335 66.5471 95.731C66.563 95.7254 66.5782 95.7207 66.595 95.7151C66.6037 95.712 66.6117 95.7095 66.6205 95.7064C66.6341 95.7014 66.6476 95.6968 66.6612 95.6927C66.6716 95.6889 66.682 95.6855 66.6923 95.6814C66.7035 95.6783 66.7155 95.6743 66.7267 95.6705C66.7394 95.6656 66.7522 95.6615 66.7658 95.6569C66.7746 95.6537 66.7825 95.6512 66.7913 95.6481C66.8065 95.6434 66.8225 95.6378 66.8368 95.6322C66.844 95.6303 66.8512 95.6272 66.8576 95.6257C66.8759 95.6194 66.8927 95.6129 66.911 95.6072C66.9134 95.6057 66.9166 95.6051 66.919 95.6041C66.9398 95.597 66.9613 95.5898 66.9821 95.5826C66.9837 95.5817 66.9853 95.581 66.9869 95.581C68.1571 95.1738 69.3098 94.7235 70.4377 94.2328C70.4337 94.2353 70.4289 94.2368 70.4249 94.239C75.9327 91.8452 80.9162 88.472 85.1556 84.3391L85.1572 84.3417C85.0431 84.4548 84.9281 84.5678 84.8124 84.6809C75.9575 93.3132 63.8546 98.6328 50.5104 98.6328Z" fill="#939699"/>
<path d="M50.8512 98.2896C56.2585 98.2896 61.4606 97.4164 66.3266 95.804C61.4614 97.4164 56.2577 98.2896 50.8512 98.2896ZM66.4735 95.7545C66.4911 95.7489 66.511 95.7427 66.5286 95.7361C66.5102 95.7427 66.4919 95.7489 66.4735 95.7545ZM66.5454 95.7304C66.5605 95.7258 66.5781 95.7193 66.5933 95.7146C66.5765 95.7201 66.5613 95.7249 66.5454 95.7304ZM66.6906 95.6809C66.7026 95.6771 66.713 95.6737 66.725 95.6699C66.7138 95.6737 66.7018 95.6778 66.6906 95.6809ZM66.8351 95.6316C66.8415 95.6297 66.8503 95.6266 66.8559 95.6251C66.8495 95.6266 66.8423 95.6297 66.8351 95.6316ZM66.9804 95.5821C66.9836 95.5805 66.982 95.5811 66.9852 95.5805C66.9836 95.5805 66.982 95.5811 66.9804 95.5821ZM9.67188 22.3124C9.67251 22.3116 9.67283 22.3116 9.67315 22.3108L9.67188 22.3124ZM9.74859 22.1951C9.75202 22.1903 9.75449 22.1863 9.75792 22.1815C9.75545 22.1855 9.75106 22.1919 9.74859 22.1951ZM9.82561 22.0785C9.83152 22.0698 9.83679 22.0618 9.84278 22.0522C9.83679 22.0618 9.83184 22.0698 9.82561 22.0785ZM9.86521 22.0187C9.87143 22.0091 9.87829 21.9987 9.88452 21.9891C9.87861 21.9987 9.87112 22.0099 9.86521 22.0187ZM9.98279 21.8423C9.993 21.8271 10.0027 21.8127 10.0127 21.7976C10.0024 21.8127 9.993 21.8271 9.98279 21.8423ZM10.0613 21.7249C11.719 19.2639 13.5945 16.9602 15.658 14.8424C15.7706 14.7275 15.8834 14.6125 15.9973 14.4984C13.799 16.7095 11.8093 19.1298 10.0613 21.7249Z" fill="#939599"/>
<mask id="mask0_1128_12649" style="mask-type:luminance" maskUnits="userSpaceOnUse" x="1" y="0" width="99" height="99">
<path d="M50.8548 98.2905C39.6715 98.2905 29.3599 94.555 21.1013 88.2632C9.31664 79.285 1.71094 65.1043 1.71094 49.1457C1.71094 39.2442 4.63792 30.0285 9.67553 22.3134L9.67681 22.3118C9.68958 22.2918 9.70171 22.2735 9.71448 22.2543C9.71608 22.2511 9.71671 22.2503 9.71855 22.2479C9.72949 22.2312 9.74131 22.2128 9.75224 22.1961C9.75471 22.1929 9.7591 22.1865 9.76158 22.1825C9.77155 22.1665 9.78057 22.153 9.79087 22.1378C9.79494 22.1314 9.79965 22.1242 9.80365 22.1178C9.81211 22.1051 9.82081 22.0923 9.82927 22.0795C9.83549 22.0707 9.84045 22.0628 9.84643 22.0532C9.85418 22.042 9.86104 22.0316 9.86886 22.0196C9.87477 22.0109 9.88227 21.9997 9.88818 21.9901C9.89504 21.9805 9.90095 21.9718 9.90782 21.9614C9.91532 21.9494 9.92402 21.9366 9.93184 21.9255C9.93679 21.9175 9.94118 21.9111 9.94653 21.9031C9.95587 21.8887 9.96457 21.876 9.97391 21.8616C9.97734 21.8568 9.98301 21.848 9.98644 21.8432C9.99666 21.8281 10.0061 21.8137 10.0164 21.7985C10.0197 21.7929 10.0226 21.7897 10.026 21.7842C10.0372 21.7674 10.0485 21.7506 10.0596 21.7339C10.0616 21.7315 10.0634 21.7283 10.065 21.7259C11.813 19.1308 13.8027 16.7105 16.0013 14.4994C17.3324 13.1599 18.739 11.8986 20.2164 10.7188C23.6684 9.08562 26.8985 7.06207 29.8524 4.70484C35.84 2.10654 42.4478 0.665703 49.3917 0.665703C76.5334 0.665703 98.5353 22.6694 98.5353 49.8115C98.5353 69.422 87.051 86.3479 70.4396 94.2332C69.3117 94.724 68.1591 95.1742 66.9889 95.5814C66.9857 95.5821 66.9873 95.5814 66.9841 95.583C66.9633 95.5902 66.9417 95.5974 66.921 95.6045C66.9186 95.6055 66.9154 95.6061 66.913 95.6076C66.8947 95.6133 66.8779 95.6198 66.8595 95.6261C66.854 95.6276 66.8452 95.6307 66.8388 95.6326C66.8244 95.6382 66.8084 95.6439 66.7933 95.6485C66.7845 95.6516 66.7765 95.6541 66.7677 95.6573C66.7542 95.6619 66.7414 95.666 66.7286 95.6709C66.7167 95.6747 66.7063 95.6781 66.6943 95.6819C66.6839 95.6859 66.6735 95.6894 66.6632 95.6931C66.6496 95.6972 66.636 95.7018 66.6225 95.7068C66.6137 95.7099 66.6057 95.7124 66.5969 95.7155C66.5817 95.7202 66.5642 95.7268 66.549 95.7314C66.5434 95.7339 66.5386 95.7355 66.5323 95.7371C66.5147 95.7436 66.4947 95.7499 66.4772 95.7555C66.4724 95.757 66.4692 95.7586 66.4644 95.7602C66.4436 95.7667 66.4245 95.7729 66.4037 95.7801C66.4021 95.781 66.4006 95.7816 66.399 95.7816C66.3766 95.7891 66.3535 95.797 66.3311 95.8041L66.3303 95.805C61.4642 97.4174 56.2621 98.2905 50.8548 98.2905ZM99.2034 57.9999C99.2042 57.9991 99.2042 57.9959 99.205 57.9943C99.2042 57.9959 99.2042 57.9983 99.2034 57.9999ZM99.2297 57.8538C99.2313 57.8474 99.2321 57.8402 99.2337 57.8339C99.2321 57.841 99.2313 57.8458 99.2297 57.8538ZM99.2425 57.7844C99.2441 57.7772 99.2449 57.77 99.2465 57.7628C99.2449 57.7692 99.2433 57.778 99.2425 57.7844ZM99.2688 57.6327C99.2712 57.6223 99.2728 57.6119 99.2744 57.6016C99.2728 57.6127 99.2712 57.6215 99.2688 57.6327ZM99.2808 57.5656C99.2824 57.5537 99.2848 57.5441 99.2864 57.5329C99.2848 57.5433 99.2824 57.5545 99.2808 57.5656ZM99.2936 57.4898C99.2968 57.4723 99.3 57.4523 99.3032 57.4347C99.3 57.4531 99.2968 57.4715 99.2936 57.4898ZM99.3175 57.3509C99.7654 54.6832 99.9992 51.942 99.9992 49.1465C99.9992 35.8772 94.7388 23.8341 86.1913 14.9919C94.7388 23.8341 99.9992 35.8764 99.9992 49.1457C99.9992 51.942 99.7661 54.6824 99.3175 57.3509ZM29.8548 4.70245C29.8572 4.70085 29.8572 4.70085 29.8596 4.69925C32.7715 3.32147 35.8416 2.2207 39.0345 1.43203C35.84 2.2215 32.7691 3.32227 29.8548 4.70245ZM39.076 1.42164C39.0832 1.42004 39.092 1.41766 39.1 1.41606C39.092 1.41766 39.084 1.42004 39.076 1.42164Z" fill="white"/>
</mask>
<g mask="url(#mask0_1128_12649)">
<path d="M50.8548 98.2905C39.6715 98.2905 29.3599 94.555 21.1013 88.2632C9.31664 79.285 1.71094 65.1043 1.71094 49.1457C1.71094 39.2443 4.63792 30.0285 9.67553 22.3134L9.67681 22.3118C9.68958 22.2918 9.70171 22.2735 9.71448 22.2543C9.71608 22.2511 9.71671 22.2503 9.71855 22.2479C9.72949 22.2312 9.74131 22.2128 9.75224 22.1961C9.75472 22.1929 9.7591 22.1865 9.76158 22.1825C9.77155 22.1665 9.78057 22.153 9.79087 22.1378C9.79494 22.1314 9.79965 22.1242 9.80365 22.1178C9.81211 22.1051 9.82081 22.0923 9.82927 22.0795C9.83549 22.0707 9.84045 22.0627 9.84643 22.0532C9.85418 22.042 9.86104 22.0316 9.86886 22.0196C9.87477 22.0109 9.88227 21.9997 9.88818 21.9901C9.89504 21.9805 9.90095 21.9718 9.90782 21.9614C9.91532 21.9494 9.92402 21.9366 9.93184 21.9255C9.93679 21.9175 9.94118 21.9111 9.94653 21.9031C9.95587 21.8887 9.96457 21.876 9.97391 21.8616C9.97734 21.8568 9.98301 21.848 9.98644 21.8432C9.99666 21.8281 10.0061 21.8137 10.0164 21.7985C10.0197 21.7929 10.0226 21.7897 10.026 21.7842C10.0372 21.7674 10.0485 21.7506 10.0596 21.7339C10.0616 21.7315 10.0634 21.7283 10.065 21.7259C11.813 19.1308 13.8027 16.7105 16.0013 14.4994C17.3324 13.1599 18.739 11.8986 20.2164 10.7188C23.6684 9.08562 26.8985 7.06207 29.8524 4.70485C35.84 2.10655 42.4478 0.665703 49.3917 0.665703C76.5334 0.665703 98.5353 22.6694 98.5353 49.8115C98.5353 69.422 87.051 86.3479 70.4396 94.2332C69.3117 94.724 68.1591 95.1742 66.9889 95.5814C66.9857 95.5821 66.9873 95.5814 66.9841 95.583C66.9633 95.5902 66.9417 95.5974 66.921 95.6045C66.9186 95.6055 66.9154 95.6061 66.913 95.6076C66.8947 95.6133 66.8779 95.6198 66.8595 95.6261C66.854 95.6276 66.8452 95.6307 66.8388 95.6326C66.8244 95.6382 66.8084 95.6439 66.7933 95.6485C66.7845 95.6516 66.7765 95.6541 66.7677 95.6573C66.7542 95.6619 66.7414 95.666 66.7286 95.6709C66.7167 95.6747 66.7063 95.6781 66.6943 95.6819C66.6839 95.6859 66.6735 95.6894 66.6632 95.6931C66.6496 95.6972 66.636 95.7018 66.6225 95.7068C66.6137 95.7099 66.6057 95.7124 66.5969 95.7155C66.5817 95.7202 66.5642 95.7268 66.549 95.7314C66.5434 95.7339 66.5386 95.7355 66.5323 95.7371C66.5147 95.7436 66.4947 95.7499 66.4772 95.7555C66.4724 95.757 66.4692 95.7586 66.4644 95.7602C66.4437 95.7667 66.4245 95.7729 66.4037 95.7801C66.4021 95.781 66.4006 95.7816 66.399 95.7816C66.3766 95.7891 66.3535 95.797 66.3311 95.8041L66.3303 95.805C61.4642 97.4174 56.2621 98.2905 50.8548 98.2905ZM99.2034 57.9999C99.2042 57.9991 99.2042 57.9959 99.205 57.9943C99.2042 57.9959 99.2042 57.9983 99.2034 57.9999ZM99.2297 57.8538C99.2313 57.8474 99.2321 57.8402 99.2337 57.8339C99.2321 57.841 99.2313 57.8458 99.2297 57.8538ZM99.2425 57.7844C99.2441 57.7772 99.2449 57.77 99.2465 57.7628C99.2449 57.7692 99.2433 57.778 99.2425 57.7844ZM99.2688 57.6327C99.2712 57.6223 99.2728 57.6119 99.2744 57.6016C99.2728 57.6127 99.2712 57.6215 99.2688 57.6327ZM99.2808 57.5656C99.2824 57.5537 99.2848 57.5441 99.2864 57.5329C99.2848 57.5433 99.2824 57.5545 99.2808 57.5656ZM99.2936 57.4898C99.2968 57.4723 99.3 57.4523 99.3032 57.4347C99.3 57.4531 99.2968 57.4715 99.2936 57.4898ZM99.3175 57.3509C99.7654 54.6832 99.9992 51.942 99.9992 49.1465C99.9992 35.8772 94.7388 23.8341 86.1913 14.9919C94.7388 23.8341 99.9992 35.8764 99.9992 49.1457C99.9992 51.942 99.7662 54.6824 99.3175 57.3509ZM29.8548 4.70245C29.8572 4.70085 29.8572 4.70085 29.8596 4.69926C32.7715 3.32148 35.8416 2.2207 39.0345 1.43202C35.84 2.22149 32.7691 3.32227 29.8548 4.70245ZM39.076 1.42164C39.0832 1.42004 39.092 1.41766 39.1 1.41606C39.092 1.41766 39.084 1.42004 39.076 1.42164Z" fill="url(#paint0_linear_1128_12649)"/>
</g>
<path d="M100.001 49.1459C100.001 69.332 87.8314 86.6757 70.4282 94.2388C87.0459 86.3561 98.5366 69.4262 98.5366 49.8108C98.5366 22.6688 76.5347 0.665054 49.393 0.665054C42.4395 0.665054 35.8237 2.10988 29.8281 4.71536C36.2037 1.6908 43.3319 0.000106812 50.8569 0.000106812C77.9979 0.000106812 100.001 22.0038 100.001 49.1459Z" fill="white"/>
<path d="M40.3381 65.554C37.9991 65.554 35.9915 64.9621 34.3153 63.7784C32.6487 62.5852 31.3655 60.8665 30.4659 58.6222C29.5758 56.3684 29.1307 53.6553 29.1307 50.483C29.1402 47.3106 29.59 44.6117 30.4801 42.3864C31.3797 40.1515 32.6629 38.447 34.3295 37.2727C36.0057 36.0985 38.0085 35.5114 40.3381 35.5114C42.6676 35.5114 44.6705 36.0985 46.3466 37.2727C48.0227 38.447 49.3059 40.1515 50.196 42.3864C51.0956 44.6212 51.5455 47.3201 51.5455 50.483C51.5455 53.6648 51.0956 56.3826 50.196 58.6364C49.3059 60.8807 48.0227 62.5947 46.3466 63.7784C44.6799 64.9621 42.6771 65.554 40.3381 65.554ZM40.3381 61.108C42.1563 61.108 43.5909 60.2131 44.642 58.4233C45.7027 56.6241 46.233 53.9773 46.233 50.483C46.233 48.1723 45.9915 46.2311 45.5085 44.6591C45.0256 43.0871 44.3438 41.9034 43.4631 41.108C42.5824 40.303 41.5407 39.9006 40.3381 39.9006C38.5294 39.9006 37.0994 40.8002 36.0483 42.5994C34.9972 44.3892 34.4669 47.017 34.4574 50.483C34.4479 52.803 34.6799 54.7538 35.1534 56.3352C35.6364 57.9167 36.3182 59.1098 37.1989 59.9148C38.0795 60.7102 39.1259 61.108 40.3381 61.108ZM68.0973 35.9091V65H62.8274V41.0369H62.657L55.853 45.3835V40.554L63.0831 35.9091H68.0973Z" fill="#202020"/>
<defs>
<linearGradient id="paint0_linear_1128_12649" x1="-6.00243" y1="121.333" x2="85.6065" y2="14.3965" gradientUnits="userSpaceOnUse">
<stop stop-color="white"/>
<stop offset="1" stop-color="#EFEFEF"/>
</linearGradient>
</defs>
</svg>
