<svg width="101" height="100" viewBox="0 0 101 100" fill="none" xmlns="http://www.w3.org/2000/svg">
<path d="M49.8101 100C22.6686 100 0.666626 77.9964 0.666626 50.855C0.666626 37.5107 5.98545 25.4077 14.6171 16.5527C14.7296 16.437 14.8425 16.3228 14.9563 16.2079L14.9588 16.2111C6.32758 25.066 1.00835 37.1683 1.00835 50.5126C1.00835 77.6546 23.0105 99.6582 50.1517 99.6582C63.4959 99.6582 75.5988 94.3387 84.4536 85.7066L84.456 85.7088C84.3419 85.823 84.2269 85.9355 84.112 86.0481C75.2563 94.6814 63.1542 100 49.8101 100Z" fill="#969A9D"/>
<path d="M50.1537 99.6582C23.0125 99.6582 1.01038 77.6546 1.01038 50.5126C1.01038 37.1683 6.3296 25.066 14.9608 16.2111C15.0738 16.0953 15.1866 15.9804 15.3001 15.8662L15.3029 15.8686C6.67165 24.7244 1.35242 36.8266 1.35242 50.171C1.35242 77.3129 23.3545 99.3168 50.4962 99.3168C63.8403 99.3168 75.9424 93.9972 84.7973 85.364L84.8005 85.3674C84.6855 85.4806 84.5714 85.5941 84.4556 85.7067C75.6008 94.3387 63.4979 99.6582 50.1537 99.6582Z" fill="#96999C"/>
<path d="M50.4979 99.3164C23.3562 99.3164 1.35413 77.3125 1.35413 50.1706C1.35413 36.8263 6.67335 24.724 15.3046 15.8682C15.4175 15.7533 15.5304 15.6384 15.6439 15.5242L15.6467 15.5266C7.01539 24.3816 1.69585 36.4846 1.69585 49.8289C1.69585 76.9702 23.6983 98.9737 50.8395 98.9737C64.1837 98.9737 76.2858 93.6551 85.1414 85.0222L85.1438 85.0243C85.0297 85.1388 84.9147 85.251 84.799 85.3636C75.9441 93.9968 63.842 99.3164 50.4979 99.3164Z" fill="#96989A"/>
<path d="M50.8376 98.9741C23.6964 98.9741 1.69397 76.9706 1.69397 49.8293C1.69397 36.485 7.01352 24.382 15.6448 15.527C15.7573 15.4112 15.8702 15.2971 15.984 15.1822L15.9865 15.1853C7.35524 24.0403 2.03602 36.1426 2.03602 49.4869C2.03602 76.6288 24.0381 98.6327 51.1793 98.6327C64.5234 98.6327 76.6263 93.3131 85.4812 84.6808L85.4836 84.6833C85.3694 84.7965 85.2545 84.91 85.1395 85.0226C76.2839 93.6555 64.1818 98.9741 50.8376 98.9741Z" fill="#95979A"/>
<path d="M51.1771 98.6328C24.0359 98.6328 2.03381 76.6289 2.03381 49.487C2.03381 36.1427 7.35304 24.0404 15.9843 15.1854C16.0969 15.0697 16.2101 14.9548 16.3239 14.8406L16.3264 14.843C14.2628 16.9607 12.3873 19.2645 10.7297 21.7255C10.7281 21.7279 10.7262 21.7311 10.7243 21.7335C10.7131 21.7502 10.7019 21.767 10.6907 21.7838C10.6873 21.7894 10.6844 21.7925 10.6811 21.7981C10.6711 21.8133 10.6613 21.8277 10.6511 21.8428C10.6477 21.8476 10.642 21.8564 10.6386 21.8612C10.6292 21.8756 10.6205 21.8883 10.6112 21.9027C10.6059 21.9107 10.6015 21.9171 10.5965 21.9251C10.5887 21.9362 10.58 21.949 10.5725 21.961C10.5656 21.9714 10.5597 21.9801 10.5529 21.9897C10.5466 21.9993 10.5398 22.0097 10.5335 22.0192C10.5257 22.0312 10.5189 22.0416 10.5111 22.0528C10.5051 22.0623 10.4999 22.0703 10.4939 22.0791C10.4855 22.0919 10.4768 22.1047 10.4683 22.1174C10.4643 22.1238 10.4596 22.131 10.4555 22.1374C10.4453 22.1526 10.4362 22.1661 10.4263 22.1821C10.4228 22.1869 10.4204 22.1909 10.4169 22.1957C10.406 22.2124 10.3942 22.2308 10.3832 22.2476C10.3814 22.2499 10.3808 22.2507 10.3792 22.2539C10.3664 22.2731 10.3543 22.2915 10.3415 22.3114C10.3412 22.3122 10.3408 22.3122 10.3402 22.313C5.3026 30.0281 2.37562 39.2439 2.37562 49.1453C2.37562 65.1039 9.98132 79.2846 21.766 88.2628C30.0245 94.5546 40.3362 98.2901 51.5195 98.2901C56.926 98.2901 62.1297 97.417 66.995 95.8046L66.9958 95.8037C67.0181 95.7966 67.0413 95.7887 67.0636 95.7812C67.0652 95.7812 67.0668 95.7806 67.0684 95.7797C67.0892 95.7725 67.1083 95.7663 67.1291 95.7598C67.1339 95.7582 67.1371 95.7566 67.1418 95.755C67.1602 95.7495 67.1786 95.7432 67.1969 95.7367C67.2033 95.7351 67.2081 95.7335 67.2137 95.731C67.2297 95.7254 67.2448 95.7207 67.2616 95.7151C67.2704 95.712 67.2783 95.7095 67.2871 95.7064C67.3007 95.7014 67.3143 95.6968 67.3278 95.6927C67.3382 95.6889 67.3486 95.6855 67.359 95.6814C67.3701 95.6783 67.3821 95.6743 67.3933 95.6705C67.4061 95.6656 67.4188 95.6615 67.4324 95.6569C67.4412 95.6537 67.4492 95.6512 67.4579 95.6481C67.4731 95.6434 67.4891 95.6378 67.5034 95.6322C67.5106 95.6303 67.5178 95.6272 67.5242 95.6257C67.5426 95.6194 67.5593 95.6129 67.5777 95.6072C67.5801 95.6057 67.5833 95.6051 67.5857 95.6041C67.6064 95.597 67.628 95.5898 67.6487 95.5826C67.6503 95.5817 67.6519 95.581 67.6535 95.581C68.8237 95.1738 69.9764 94.7235 71.1043 94.2328C71.1003 94.2353 71.0955 94.2368 71.0915 94.239C76.5994 91.8452 81.5828 88.472 85.8222 84.3391L85.8238 84.3417C85.7097 84.4548 85.5947 84.5678 85.479 84.6809C76.6241 93.3132 64.5212 98.6328 51.1771 98.6328Z" fill="#939699"/>
<path d="M51.5178 98.2896C56.9251 98.2896 62.1272 97.4164 66.9933 95.804C62.128 97.4164 56.9243 98.2896 51.5178 98.2896ZM67.1401 95.7545C67.1577 95.7489 67.1777 95.7427 67.1952 95.7361C67.1769 95.7427 67.1585 95.7489 67.1401 95.7545ZM67.212 95.7304C67.2272 95.7258 67.2447 95.7193 67.2599 95.7146C67.2431 95.7201 67.228 95.7249 67.212 95.7304ZM67.3573 95.6809C67.3692 95.6771 67.3796 95.6737 67.3916 95.6699C67.3804 95.6737 67.3684 95.6778 67.3573 95.6809ZM67.5018 95.6316C67.5081 95.6297 67.5169 95.6266 67.5225 95.6251C67.5161 95.6266 67.5089 95.6297 67.5018 95.6316ZM67.647 95.5821C67.6502 95.5805 67.6486 95.5811 67.6518 95.5805C67.6502 95.5805 67.6486 95.5811 67.647 95.5821ZM10.3385 22.3124C10.3391 22.3116 10.3395 22.3116 10.3398 22.3108L10.3385 22.3124ZM10.4152 22.1951C10.4186 22.1903 10.4211 22.1863 10.4245 22.1815C10.4221 22.1855 10.4177 22.1919 10.4152 22.1951ZM10.4922 22.0785C10.4981 22.0698 10.5034 22.0618 10.5094 22.0522C10.5034 22.0618 10.4985 22.0698 10.4922 22.0785ZM10.5318 22.0187C10.5381 22.0091 10.5449 21.9987 10.5511 21.9891C10.5452 21.9987 10.5377 22.0099 10.5318 22.0187ZM10.6494 21.8423C10.6596 21.8271 10.6694 21.8127 10.6793 21.7976C10.669 21.8127 10.6596 21.8271 10.6494 21.8423ZM10.728 21.7249C12.3856 19.2639 14.2611 16.9602 16.3247 14.8424C16.4372 14.7275 16.5501 14.6125 16.6639 14.4984C14.4656 16.7095 12.4759 19.1298 10.728 21.7249Z" fill="#939599"/>
<mask id="mask0_1128_12668" style="mask-type:luminance" maskUnits="userSpaceOnUse" x="2" y="0" width="99" height="99">
<path d="M51.5215 98.2905C40.3381 98.2905 30.0265 94.555 21.7679 88.2632C9.98327 79.285 2.37756 65.1043 2.37756 49.1457C2.37756 39.2442 5.30455 30.0285 10.3422 22.3134L10.3434 22.3118C10.3562 22.2918 10.3683 22.2735 10.3811 22.2543C10.3827 22.2511 10.3833 22.2503 10.3852 22.2479C10.3961 22.2312 10.4079 22.2128 10.4189 22.1961C10.4213 22.1929 10.4257 22.1865 10.4282 22.1825C10.4382 22.1665 10.4472 22.153 10.4575 22.1378C10.4616 22.1314 10.4663 22.1242 10.4703 22.1178C10.4787 22.1051 10.4874 22.0923 10.4959 22.0795C10.5021 22.0707 10.5071 22.0628 10.5131 22.0532C10.5208 22.042 10.5277 22.0316 10.5355 22.0196C10.5414 22.0109 10.5489 21.9997 10.5548 21.9901C10.5617 21.9805 10.5676 21.9718 10.5744 21.9614C10.5819 21.9494 10.5906 21.9366 10.5985 21.9255C10.6034 21.9175 10.6078 21.9111 10.6132 21.9031C10.6225 21.8887 10.6312 21.876 10.6405 21.8616C10.644 21.8568 10.6496 21.848 10.6531 21.8432C10.6633 21.8281 10.6727 21.8137 10.683 21.7985C10.6864 21.7929 10.6892 21.7897 10.6927 21.7842C10.7038 21.7674 10.7151 21.7506 10.7263 21.7339C10.7282 21.7315 10.73 21.7283 10.7316 21.7259C12.4796 19.1308 14.4693 16.7105 16.6679 14.4994C17.999 13.1599 19.4056 11.8986 20.883 10.7188C24.335 9.08562 27.5651 7.06207 30.519 4.70484C36.5066 2.10654 43.1144 0.665703 50.0583 0.665703C77.2 0.665703 99.2019 22.6694 99.2019 49.8115C99.2019 69.422 87.7176 86.3479 71.1063 94.2332C69.9784 94.724 68.8257 95.1742 67.6555 95.5814C67.6523 95.5821 67.6539 95.5814 67.6507 95.583C67.6299 95.5902 67.6084 95.5974 67.5876 95.6045C67.5852 95.6055 67.582 95.6061 67.5796 95.6076C67.5613 95.6133 67.5445 95.6198 67.5262 95.6261C67.5206 95.6276 67.5118 95.6307 67.5054 95.6326C67.491 95.6382 67.4751 95.6439 67.4599 95.6485C67.4511 95.6516 67.4431 95.6541 67.4344 95.6573C67.4208 95.6619 67.408 95.666 67.3953 95.6709C67.3833 95.6747 67.3729 95.6781 67.3609 95.6819C67.3505 95.6859 67.3402 95.6894 67.3298 95.6931C67.3162 95.6972 67.3027 95.7018 67.2891 95.7068C67.2803 95.7099 67.2723 95.7124 67.2635 95.7155C67.2484 95.7202 67.2308 95.7268 67.2157 95.7314C67.2101 95.7339 67.2053 95.7355 67.1989 95.7371C67.1813 95.7436 67.1614 95.7499 67.1438 95.7555C67.139 95.757 67.1358 95.7586 67.131 95.7602C67.1103 95.7667 67.0911 95.7729 67.0704 95.7801C67.0688 95.781 67.0672 95.7816 67.0656 95.7816C67.0432 95.7891 67.0201 95.797 66.9977 95.8041L66.9969 95.805C62.1309 97.4174 56.9287 98.2905 51.5215 98.2905ZM99.87 57.9999C99.8708 57.9991 99.8708 57.9959 99.8716 57.9943C99.8708 57.9959 99.8708 57.9983 99.87 57.9999ZM99.8963 57.8538C99.8979 57.8474 99.8987 57.8402 99.9003 57.8339C99.8987 57.841 99.8979 57.8458 99.8963 57.8538ZM99.9091 57.7844C99.9107 57.7772 99.9115 57.77 99.9131 57.7628C99.9115 57.7692 99.9099 57.778 99.9091 57.7844ZM99.9355 57.6327C99.9379 57.6223 99.9395 57.6119 99.9411 57.6016C99.9395 57.6127 99.9379 57.6215 99.9355 57.6327ZM99.9474 57.5656C99.949 57.5537 99.9514 57.5441 99.953 57.5329C99.9514 57.5433 99.949 57.5545 99.9474 57.5656ZM99.9602 57.4898C99.9634 57.4723 99.9666 57.4523 99.9698 57.4347C99.9666 57.4531 99.9634 57.4715 99.9602 57.4898ZM99.9842 57.3509C100.432 54.6832 100.666 51.942 100.666 49.1465C100.666 35.8772 95.4055 23.8341 86.8579 14.9919C95.4055 23.8341 100.666 35.8764 100.666 49.1457C100.666 51.942 100.433 54.6824 99.9842 57.3509ZM30.5214 4.70245C30.5238 4.70085 30.5238 4.70085 30.5262 4.69925C33.4382 3.32147 36.5082 2.2207 39.7011 1.43203C36.5066 2.2215 33.4358 3.32227 30.5214 4.70245ZM39.7427 1.42164C39.7498 1.42004 39.7586 1.41766 39.7666 1.41606C39.7586 1.41766 39.7506 1.42004 39.7427 1.42164Z" fill="white"/>
</mask>
<g mask="url(#mask0_1128_12668)">
<path d="M51.5215 98.2905C40.3381 98.2905 30.0265 94.555 21.7679 88.2632C9.98326 79.285 2.37756 65.1043 2.37756 49.1457C2.37756 39.2443 5.30455 30.0285 10.3422 22.3134L10.3434 22.3118C10.3562 22.2918 10.3683 22.2735 10.3811 22.2543C10.3827 22.2511 10.3833 22.2503 10.3852 22.2479C10.3961 22.2312 10.4079 22.2128 10.4189 22.1961C10.4213 22.1929 10.4257 22.1865 10.4282 22.1825C10.4382 22.1665 10.4472 22.153 10.4575 22.1378C10.4616 22.1314 10.4663 22.1242 10.4703 22.1178C10.4787 22.1051 10.4874 22.0923 10.4959 22.0795C10.5021 22.0707 10.5071 22.0627 10.5131 22.0532C10.5208 22.042 10.5277 22.0316 10.5355 22.0196C10.5414 22.0109 10.5489 21.9997 10.5548 21.9901C10.5617 21.9805 10.5676 21.9718 10.5744 21.9614C10.5819 21.9494 10.5906 21.9366 10.5985 21.9255C10.6034 21.9175 10.6078 21.9111 10.6132 21.9031C10.6225 21.8887 10.6312 21.876 10.6405 21.8616C10.644 21.8568 10.6496 21.848 10.6531 21.8432C10.6633 21.8281 10.6727 21.8137 10.683 21.7985C10.6864 21.7929 10.6892 21.7897 10.6927 21.7842C10.7038 21.7674 10.7151 21.7506 10.7263 21.7339C10.7282 21.7315 10.73 21.7283 10.7316 21.7259C12.4796 19.1308 14.4693 16.7105 16.6679 14.4994C17.999 13.1599 19.4056 11.8986 20.883 10.7188C24.335 9.08562 27.5651 7.06207 30.519 4.70485C36.5066 2.10655 43.1144 0.665703 50.0583 0.665703C77.2 0.665703 99.2019 22.6694 99.2019 49.8115C99.2019 69.422 87.7176 86.3479 71.1063 94.2332C69.9784 94.724 68.8257 95.1742 67.6555 95.5814C67.6523 95.5821 67.6539 95.5814 67.6507 95.583C67.6299 95.5902 67.6084 95.5974 67.5876 95.6045C67.5852 95.6055 67.582 95.6061 67.5796 95.6076C67.5613 95.6133 67.5445 95.6198 67.5262 95.6261C67.5206 95.6276 67.5118 95.6307 67.5054 95.6326C67.491 95.6382 67.4751 95.6439 67.4599 95.6485C67.4511 95.6516 67.4431 95.6541 67.4344 95.6573C67.4208 95.6619 67.408 95.666 67.3953 95.6709C67.3833 95.6747 67.3729 95.6781 67.3609 95.6819C67.3505 95.6859 67.3402 95.6894 67.3298 95.6931C67.3162 95.6972 67.3027 95.7018 67.2891 95.7068C67.2803 95.7099 67.2723 95.7124 67.2635 95.7155C67.2484 95.7202 67.2308 95.7268 67.2157 95.7314C67.2101 95.7339 67.2053 95.7355 67.1989 95.7371C67.1813 95.7436 67.1614 95.7499 67.1438 95.7555C67.139 95.757 67.1358 95.7586 67.131 95.7602C67.1103 95.7667 67.0911 95.7729 67.0704 95.7801C67.0688 95.781 67.0672 95.7816 67.0656 95.7816C67.0432 95.7891 67.0201 95.797 66.9977 95.8041L66.9969 95.805C62.1309 97.4174 56.9287 98.2905 51.5215 98.2905ZM99.87 57.9999C99.8708 57.9991 99.8708 57.9959 99.8716 57.9943C99.8708 57.9959 99.8708 57.9983 99.87 57.9999ZM99.8963 57.8538C99.8979 57.8474 99.8988 57.8402 99.9003 57.8339C99.8988 57.841 99.8979 57.8458 99.8963 57.8538ZM99.9091 57.7844C99.9107 57.7772 99.9115 57.77 99.9131 57.7628C99.9115 57.7692 99.9099 57.778 99.9091 57.7844ZM99.9355 57.6327C99.9379 57.6223 99.9395 57.6119 99.9411 57.6016C99.9395 57.6127 99.9379 57.6215 99.9355 57.6327ZM99.9474 57.5656C99.949 57.5537 99.9514 57.5441 99.953 57.5329C99.9514 57.5433 99.949 57.5545 99.9474 57.5656ZM99.9602 57.4898C99.9634 57.4723 99.9666 57.4523 99.9698 57.4347C99.9666 57.4531 99.9634 57.4715 99.9602 57.4898ZM99.9842 57.3509C100.432 54.6832 100.666 51.942 100.666 49.1465C100.666 35.8772 95.4055 23.8341 86.8579 14.9919C95.4055 23.8341 100.666 35.8764 100.666 49.1457C100.666 51.942 100.433 54.6824 99.9842 57.3509ZM30.5214 4.70245C30.5238 4.70085 30.5238 4.70085 30.5262 4.69926C33.4382 3.32148 36.5082 2.2207 39.7011 1.43202C36.5066 2.22149 33.4358 3.32227 30.5214 4.70245ZM39.7427 1.42164C39.7498 1.42004 39.7586 1.41766 39.7666 1.41606C39.7586 1.41766 39.7506 1.42004 39.7427 1.42164Z" fill="url(#paint0_linear_1128_12668)"/>
</g>
<path d="M100.667 49.1459C100.667 69.332 88.498 86.6757 71.0948 94.2388C87.7125 86.3561 99.2032 69.4262 99.2032 49.8108C99.2032 22.6688 77.2013 0.665054 50.0596 0.665054C43.1061 0.665054 36.4903 2.10988 30.4948 4.71536C36.8703 1.6908 43.9986 0.000106812 51.5236 0.000106812C78.6645 0.000106812 100.667 22.0038 100.667 49.1459Z" fill="white"/>
<path d="M38.3381 65.554C35.9991 65.554 33.9915 64.9621 32.3153 63.7784C30.6487 62.5852 29.3655 60.8665 28.4659 58.6222C27.5758 56.3684 27.1307 53.6553 27.1307 50.483C27.1402 47.3106 27.59 44.6117 28.4801 42.3864C29.3797 40.1515 30.6629 38.447 32.3295 37.2727C34.0057 36.0985 36.0085 35.5114 38.3381 35.5114C40.6676 35.5114 42.6705 36.0985 44.3466 37.2727C46.0227 38.447 47.3059 40.1515 48.196 42.3864C49.0956 44.6212 49.5455 47.3201 49.5455 50.483C49.5455 53.6648 49.0956 56.3826 48.196 58.6364C47.3059 60.8807 46.0227 62.5947 44.3466 63.7784C42.6799 64.9621 40.6771 65.554 38.3381 65.554ZM38.3381 61.108C40.1563 61.108 41.5909 60.2131 42.642 58.4233C43.7027 56.6241 44.233 53.9773 44.233 50.483C44.233 48.1723 43.9915 46.2311 43.5085 44.6591C43.0256 43.0871 42.3438 41.9034 41.4631 41.108C40.5824 40.303 39.5407 39.9006 38.3381 39.9006C36.5294 39.9006 35.0994 40.8002 34.0483 42.5994C32.9972 44.3892 32.4669 47.017 32.4574 50.483C32.4479 52.803 32.6799 54.7538 33.1534 56.3352C33.6364 57.9167 34.3182 59.1098 35.1989 59.9148C36.0795 60.7102 37.1259 61.108 38.3381 61.108ZM54.2649 65V61.1932L64.3643 51.2926C65.3303 50.3172 66.1352 49.4508 66.7791 48.6932C67.4231 47.9356 67.906 47.2017 68.228 46.4915C68.55 45.7812 68.7109 45.0237 68.7109 44.2188C68.7109 43.3002 68.5026 42.5142 68.0859 41.8608C67.6693 41.1979 67.0964 40.6866 66.3672 40.3267C65.638 39.9669 64.8094 39.7869 63.8814 39.7869C62.925 39.7869 62.0869 39.9858 61.3672 40.3835C60.6475 40.7718 60.0888 41.3258 59.6911 42.0455C59.3028 42.7652 59.1087 43.6222 59.1087 44.6165H54.0945C54.0945 42.7699 54.5159 41.1648 55.3587 39.8011C56.2015 38.4375 57.3615 37.3816 58.8388 36.6335C60.3255 35.8854 62.0301 35.5114 63.9524 35.5114C65.9032 35.5114 67.6172 35.8759 69.0945 36.6051C70.5717 37.3343 71.7176 38.3333 72.532 39.6023C73.3558 40.8712 73.7678 42.3201 73.7678 43.9489C73.7678 45.0379 73.5594 46.108 73.1428 47.1591C72.7261 48.2102 71.9922 49.375 70.9411 50.6534C69.8994 51.9318 68.4363 53.4801 66.5518 55.2983L61.5376 60.3977V60.5966H74.2081V65H54.2649Z" fill="#202020"/>
<defs>
<linearGradient id="paint0_linear_1128_12668" x1="-5.33581" y1="121.333" x2="86.2731" y2="14.3965" gradientUnits="userSpaceOnUse">
<stop stop-color="white"/>
<stop offset="1" stop-color="#EFEFEF"/>
</linearGradient>
</defs>
</svg>
