<svg width="166" height="168" fill="none" xmlns="http://www.w3.org/2000/svg"><g clip-path="url(#clip0_801_4724)"><path d="M83.147 5.69c5.249 38.84 25.125 58.057 44.126 67.53 9.935 4.953 19.616 7.234 26.81 8.278 2.563.372 4.811.587 6.645.71-40.579 7.368-60.206 28.079-69.645 47.344-4.91 10.022-7.055 19.634-7.973 26.741a84.339 84.339 0 00-.32 2.861c-4.213-35.735-23.516-55.113-42.432-65.582-10.198-5.644-20.276-8.695-27.802-10.336-2.29-.5-4.345-.868-6.096-1.14 17.658-1.199 31.287-6.17 41.8-13.135 11.758-7.79 19.592-18.056 24.81-28.27 5.217-10.213 7.823-20.38 9.126-27.991.46-2.692.758-5.065.951-7.01z" stroke="#202020"/></g><defs><clipPath id="clip0_801_4724"><path fill="#fff" d="M0 0h166v168H0z"/></clipPath></defs></svg>