<svg width="75" height="75" fill="none" xmlns="http://www.w3.org/2000/svg"><path d="M37 17.498a5.5 5.5 0 11-11 .003 5.5 5.5 0 0111-.003zm7.5 22.786c-5.633 0-10.212 4.58-10.212 10.217 0 5.632 4.58 10.217 10.212 10.217 5.635 0 10.211-4.586 10.211-10.217 0-5.637-4.576-10.217-10.212-10.217zM44.5 62C38.158 62 33 56.84 33 50.5 33 44.158 38.159 39 44.5 39S56 44.157 56 50.5C56 56.84 50.841 62 44.5 62z" fill="#202020"/><path d="M50 48.622h-3.62V45h-4.76v3.622H38v4.758h3.62V57h4.76v-3.62H50v-4.758z" fill="#202020"/><path d="M31.866 50.301c0-5.162 3.222-9.599 7.812-11.497V34.71h1.987v3.487c.966-.228 1.964-.385 2.996-.385.46 0 .895.085 1.339.133v-3.584C46 29.215 41.679 25 36.404 25h-8.813C22.321 25 18 29.215 18 34.361v15.281c0 3.255 1.73 6.131 4.336 7.816V34.71h1.992v23.715A9.682 9.682 0 0027.59 59h7.927c-2.255-2.25-3.652-5.318-3.652-8.699z" fill="#202020"/></svg>