<svg width="75" height="75" fill="none" xmlns="http://www.w3.org/2000/svg"><path d="M46.109 40.016h-3.857v3.905h-5.055v-3.905h-3.855v-5.124h3.855V30.99h5.055v3.902h3.857v5.124zm-21.033.079H14.583l3.78-10.356h6.713v10.356zM28.658 27H16.226l-6.015 14.21L5 44.6V58h4.123c-.008-.168-.024-.337-.024-.514 0-3.752 3.004-6.8 6.72-6.8 3.71 0 6.712 3.048 6.712 6.8a5.8 5.8 0 01-.023.514h15.29c-.008-.168-.023-.337-.023-.514 0-3.752 3.004-6.8 6.718-6.8 3.708 0 6.713 3.048 6.713 6.8 0 .177-.007.346-.022.514H55V27H28.658z" fill="#202020"/><path d="M44.503 59.912a2.413 2.413 0 11.003-4.825 2.413 2.413 0 01-.003 4.825zm0-7.912A5.503 5.503 0 0039 57.497 5.505 5.505 0 0044.503 63 5.497 5.497 0 0050 57.497 5.495 5.495 0 0044.503 52zm-27.999 7.912a2.408 2.408 0 01-2.412-2.415 2.412 2.412 0 012.412-2.412 2.41 2.41 0 012.406 2.412 2.406 2.406 0 01-2.406 2.415zm0-7.912A5.503 5.503 0 0011 57.497 5.505 5.505 0 0016.504 63 5.496 5.496 0 0022 57.497 5.494 5.494 0 0016.504 52zM29 25c-1.657 0-3 .895-3 2h6c0-1.105-1.343-2-3-2zm-3.405 0L24 23.413l.405-.413L26 24.585l-.405.415zm1.865-1L27 22.107l.541-.107.459 1.896-.54.104zm2.905 0L30 23.79l.64-1.79.36.205L30.365 24zm1.949 1L32 24.474 33.688 23l.312.522L32.314 25zm31.839-4.628L63 21.979V22h1.944v-1.628c0-.444.026-.896.056-1.372h-.05c-.27.476-.499.905-.797 1.372z" fill="#202020"/><path d="M67.608 23.603h-.986v1.859h-1.814v-1.859h-3.635v-1.188l3.098-4.749h2.352v4.57h.985v1.367zm-7.393 1.859h-5.816V24.36l1.056-.912c1.798-1.522 2.67-2.4 2.695-3.308 0-.64-.406-1.141-1.356-1.141-.704 0-1.325.337-1.753.645l-.541-1.307c.62-.441 1.575-.801 2.687-.801 1.858 0 2.876 1.03 2.876 2.445 0 1.31-.996 2.353-2.182 3.36l-.758.6v.022h3.092v1.499zM61.005 12C55.48 12 51 16.251 51 21.5c0 1.742.508 3.368 1.364 4.771h3.757v3.517A10.333 10.333 0 0061.004 31C66.521 31 71 26.746 71 21.5c0-5.249-4.48-9.5-9.996-9.5z" fill="#202020"/></svg>