<svg width="100" height="100" fill="none" xmlns="http://www.w3.org/2000/svg"><path d="M49.143 100C22.002 100 0 77.996 0 50.855c0-13.344 5.319-25.447 13.95-34.302l.34-.345.002.003C5.661 25.066.342 37.168.342 50.513c0 27.142 22.002 49.145 49.143 49.145 13.344 0 25.447-5.32 34.302-13.951l.002.002c-.114.114-.229.226-.344.339C74.59 94.681 62.488 100 49.143 100z" fill="#969A9D"/><path d="M49.487 99.658C22.346 99.658.344 77.655.344 50.513c0-13.345 5.319-25.447 13.95-34.302l.34-.345.002.003C6.005 24.724.686 36.827.686 50.17c0 27.142 22.002 49.146 49.144 49.146 13.344 0 25.446-5.32 34.3-13.953l.004.003-.345.34c-8.855 8.632-20.958 13.951-34.302 13.951z" fill="#96999C"/><path d="M49.831 99.317C22.69 99.317.687 77.313.687 50.17c0-13.345 5.32-25.447 13.951-34.303l.34-.344.002.003C6.349 24.382 1.03 36.485 1.03 49.829c0 27.141 22.002 49.145 49.143 49.145 13.344 0 25.446-5.319 34.302-13.952l.002.002c-.114.115-.229.227-.345.34-8.855 8.633-20.957 13.953-34.3 13.953z" fill="#96989A"/><path d="M50.171 98.974c-27.141 0-49.144-22.004-49.144-49.145 0-13.344 5.32-25.447 13.951-34.302l.34-.345.002.003C6.689 24.04 1.37 36.142 1.37 49.487c0 27.142 22.002 49.145 49.143 49.145 13.344 0 25.447-5.32 34.302-13.951l.002.002-.344.34c-8.856 8.632-20.958 13.95-34.302 13.95z" fill="#95979A"/><path d="M50.51 98.633c-27.14 0-49.143-22.004-49.143-49.146 0-13.344 5.32-25.447 13.95-34.302l.34-.344.003.002a49.458 49.458 0 00-5.597 6.883l-.005.008-.034.05-.01.014-.03.045-.012.018-.027.042-.015.022a.803.803 0 00-.044.065l-.02.03a1.44 1.44 0 01-.039.06l-.025.037-.013.02-.03.045-.009.014-.033.052-.004.006-.038.057-.001.002c-5.038 7.715-7.965 16.93-7.965 26.832 0 15.959 7.606 30.14 19.39 39.118A48.928 48.928 0 0050.853 98.29c5.406 0 10.61-.873 15.475-2.485l.001-.001.068-.023a2.04 2.04 0 01.065-.021l.013-.005a1.184 1.184 0 00.072-.024l.048-.016.026-.009a.72.72 0 01.04-.013c.01-.004.021-.007.031-.012a.65.65 0 00.035-.01l.039-.014.025-.009a.676.676 0 00.046-.016l.02-.006.054-.019.008-.003.063-.021a49.124 49.124 0 003.456-1.35l-.013.006a49.22 49.22 0 0014.73-9.9l.002.003-.345.339c-8.855 8.632-20.957 13.952-34.302 13.952z" fill="#939699"/><path d="M50.851 98.29zm15.623-2.536zm.071-.024l.048-.015-.048.015zm.146-.05l.034-.01a.219.219 0 01-.034.01zm.144-.048l.02-.007-.02.007zm.145-.05l.005-.001a.01.01 0 00-.005.001zM9.672 22.312l.001-.001-.001.001zm.077-.117l.009-.014a.2.2 0 01-.01.014zm.077-.117a.774.774 0 00.017-.026l-.017.026zm.04-.06l.019-.029a.952.952 0 01-.02.03zm.117-.176l.03-.044-.03.044zm.078-.117z" fill="#939599"/><mask id="mask0_801_4679" style="mask-type:luminance" maskUnits="userSpaceOnUse" x="1" y="0" width="99" height="99"><path d="M50.855 98.29A48.927 48.927 0 0121.1 88.263C9.317 79.285 1.711 65.104 1.711 49.146c0-9.902 2.927-19.117 7.965-26.833v-.001l.038-.058.005-.006.033-.052a1.333 1.333 0 01.039-.058l.013-.02.025-.038a.909.909 0 00.103-.154l.015-.023.027-.041.012-.019.03-.044.01-.015.034-.05.005-.008a49.363 49.363 0 0110.151-11.007 49.15 49.15 0 009.636-6.014 48.966 48.966 0 0119.54-4.04c27.141 0 49.143 22.004 49.143 49.147 0 19.61-11.484 36.536-28.095 44.421-1.128.491-2.28.941-3.451 1.348l-.005.002-.063.022a.013.013 0 00-.008.003c-.018.005-.035.012-.053.018l-.021.007a.66.66 0 01-.046.016l-.025.008-.04.014-.034.01-.03.012a.695.695 0 00-.041.014l-.026.009-.048.015a.096.096 0 01-.017.006c-.017.007-.037.013-.055.019l-.013.004a2.045 2.045 0 00-.065.022l-.068.022v.001a49.113 49.113 0 01-15.476 2.485zM99.203 58l.002-.006c0 .002 0 .004-.002.006zm.027-.146l.004-.02-.004.02zm.013-.07l.004-.021a.205.205 0 00-.004.021zm.026-.151l.005-.031a.433.433 0 01-.005.03zm.012-.067l.005-.033-.005.033zm.013-.076l.01-.055-.01.055zm.023-.14c.448-2.667.682-5.408.682-8.203 0-13.27-5.26-25.313-13.808-34.155C94.74 23.834 100 35.876 100 49.146c0 2.796-.233 5.536-.681 8.205zM29.855 4.703l.005-.003a48.82 48.82 0 01-.005.003zm9.221-3.28l.024-.006-.024.006z" fill="#fff"/></mask><g mask="url(#mask0_801_4679)"><path d="M50.855 98.29A48.927 48.927 0 0121.1 88.263C9.317 79.285 1.711 65.104 1.711 49.146c0-9.902 2.927-19.117 7.965-26.833v-.001l.038-.058.005-.006.033-.052a1.333 1.333 0 01.039-.058l.013-.02.025-.038.017-.027a1.41 1.41 0 00.042-.063.909.909 0 00.044-.064l.015-.023.027-.041.012-.019.03-.044.01-.015.034-.05.005-.008a49.363 49.363 0 0110.151-11.007 49.15 49.15 0 009.636-6.014 48.966 48.966 0 0119.54-4.04c27.141 0 49.143 22.004 49.143 49.147 0 19.61-11.484 36.536-28.095 44.421-1.128.491-2.28.941-3.451 1.348l-.005.002-.063.022a.013.013 0 00-.008.003c-.018.005-.035.012-.053.018l-.021.007a.66.66 0 01-.046.016l-.025.008-.04.014-.034.01-.03.012a.695.695 0 00-.041.014l-.026.009-.048.015a.096.096 0 01-.017.006c-.017.007-.037.013-.055.019l-.013.004a2.145 2.145 0 00-.065.022l-.068.022v.001a49.113 49.113 0 01-15.476 2.485zM99.203 58l.002-.006c0 .002 0 .004-.002.006zm.027-.146l.004-.02-.004.02zm.013-.07l.004-.021a.205.205 0 00-.004.021zm.026-.151l.005-.031a.433.433 0 01-.005.03zm.012-.067l.005-.033-.005.033zm.013-.076l.01-.055-.01.055zm.023-.14c.448-2.667.682-5.408.682-8.203 0-13.27-5.26-25.313-13.808-34.155C94.74 23.834 100 35.876 100 49.146c0 2.796-.233 5.536-.681 8.205zM29.855 4.703l.005-.003a48.821 48.821 0 01-.005.003zm9.221-3.28l.024-.006-.024.006z" fill="url(#paint0_linear_801_4679)"/><path d="M68.891 33.88h-9.573a1.15 1.15 0 00-1.146 1.147c0 .63.515 1.146 1.146 1.146v11.921l.006.01 4.474 6.43a11.28 11.28 0 011.073 1.922c.024.046.071.15.116.253 1.743 4.292.713 9.132-2.617 12.357-.103.098-.215.184-.321.279a4.75 4.75 0 002.057.48 4.787 4.787 0 004.785-4.787V36.173a1.15 1.15 0 001.148-1.146 1.15 1.15 0 00-1.148-1.147zM35.502 55.755c.187-.35.383-.678.586-.981l.112-.178 4.513-6.494.008-.01v-11.92a1.15 1.15 0 001.146-1.146c0-.632-.515-1.147-1.146-1.147h-9.573A1.15 1.15 0 0030 35.027c0 .63.515 1.146 1.148 1.146v28.865a4.786 4.786 0 004.786 4.788c.735 0 1.423-.18 2.047-.477-3.849-3.427-4.916-8.96-2.479-13.595z" fill="#202020"/><path d="M58.06 53.98c-2.426-.51-5.45-.426-8.793.346-3.152.73-6.066 1.254-8.468 1.35-.364.016-.713.018-1.053.013l3.871-5.568a14.889 14.889 0 002.656-8.486V30.294h7.483v11.34c0 3.04.927 5.974 2.667 8.487l2.924 4.209a11.85 11.85 0 00-1.287-.35zm-3.426 6.233a1.77 1.77 0 110-3.54 1.77 1.77 0 010 3.54zm-4.53 7.024a1.335 1.335 0 11.003-2.67 1.335 1.335 0 01-.003 2.67zm-5.24-5.127a1.698 1.698 0 110-3.397 1.698 1.698 0 010 3.397zm18.983-4.907a5.062 5.062 0 00-.113-.249 9.857 9.857 0 00-.956-1.71l-4.473-6.432a12.55 12.55 0 01-2.255-7.177V30.282a1.141 1.141 0 001.09-1.135A1.15 1.15 0 0055.993 28H44.037a1.15 1.15 0 00-1.146 1.147c0 .611.488 1.104 1.09 1.136v11.352a12.53 12.53 0 01-2.247 7.177l-4.472 6.432-.114.181a9.731 9.731 0 00-.545.908c-2.303 4.377-1.09 9.776 3.03 12.758 1.7 1.233 3.822 1.883 6.134 1.883h8.782c1.292 0 2.552-.25 3.756-.726a10.268 10.268 0 003.203-2.074 10.004 10.004 0 002.34-10.97z" fill="#202020"/></g><path d="M100.001 49.146c0 20.186-12.17 37.53-29.573 45.093 16.618-7.883 28.109-24.813 28.109-44.428C98.537 22.669 76.535.665 49.393.665a48.968 48.968 0 00-19.565 4.05A48.926 48.926 0 0150.857 0C77.997 0 100 22.004 100 49.146z" fill="#fff"/><defs><linearGradient id="paint0_linear_801_4679" x1="-6.002" y1="121.333" x2="85.606" y2="14.396" gradientUnits="userSpaceOnUse"><stop stop-color="#fff"/><stop offset="1" stop-color="#EFEFEF"/></linearGradient></defs></svg>