<svg width="100" height="101" fill="none" xmlns="http://www.w3.org/2000/svg"><path d="M49.143 100.002C22.002 100.002 0 77.998 0 50.856 0 37.51 5.319 25.408 13.95 16.553l.34-.345.002.003C5.661 25.066.342 37.169.342 50.513c0 27.143 22.002 49.147 49.143 49.147 13.344 0 25.447-5.32 34.302-13.952l.002.002c-.114.115-.229.227-.344.34-8.855 8.633-20.957 13.952-34.302 13.952z" fill="#969A9D"/><path d="M49.487 99.66C22.346 99.66.344 77.656.344 50.513c0-13.344 5.319-25.447 13.95-34.302l.34-.345.002.002C6.005 24.724.686 36.828.686 50.172c0 27.142 22.002 49.147 49.144 49.147 13.344 0 25.446-5.32 34.3-13.953l.004.003-.345.34C74.934 94.34 62.831 99.66 49.487 99.66z" fill="#96999C"/><path d="M49.831 99.319C22.69 99.319.687 77.314.687 50.172c0-13.345 5.32-25.448 13.951-34.304l.34-.344.002.003C6.349 24.382 1.03 36.485 1.03 49.83c0 27.142 22.002 49.146 49.143 49.146 13.344 0 25.446-5.319 34.302-13.952l.002.002c-.114.115-.229.227-.345.34-8.855 8.633-20.957 13.953-34.3 13.953z" fill="#96989A"/><path d="M50.171 98.976c-27.141 0-49.144-22.004-49.144-49.146 0-13.345 5.32-25.448 13.951-34.303l.34-.345.002.003C6.689 24.04 1.37 36.143 1.37 49.487c0 27.143 22.002 49.147 49.143 49.147 13.344 0 25.447-5.32 34.302-13.952l.002.003-.344.339c-8.856 8.633-20.958 13.952-34.302 13.952z" fill="#95979A"/><path d="M50.51 98.635c-27.14 0-49.143-22.005-49.143-49.147 0-13.345 5.32-25.447 13.95-34.303l.34-.345.003.003a49.46 49.46 0 00-5.597 6.883l-.005.008-.034.05-.01.014-.03.045-.012.018-.027.042-.015.022a.87.87 0 00-.044.065l-.02.03a1.44 1.44 0 01-.039.06l-.025.038-.013.02-.03.044-.009.014-.033.052-.004.006-.038.057-.001.002c-5.038 7.715-7.965 16.931-7.965 26.833 0 15.959 7.606 30.14 19.39 39.118a48.927 48.927 0 0029.754 10.028c5.406 0 10.61-.873 15.475-2.486h.001l.068-.023a2.383 2.383 0 01.065-.022l.013-.004a1.316 1.316 0 00.072-.024l.048-.016.026-.009a.72.72 0 01.04-.013l.031-.012.035-.01a.224.224 0 01.039-.014l.025-.009a.676.676 0 00.046-.016l.02-.007.054-.018.008-.003.063-.021a49.076 49.076 0 003.456-1.35l-.013.006a49.22 49.22 0 0014.73-9.9l.002.002-.345.34c-8.855 8.632-20.957 13.952-34.302 13.952z" fill="#939699"/><path d="M50.851 98.291zm15.623-2.535zm.071-.024a.386.386 0 00.048-.016l-.048.016zm.146-.05l.034-.01a.219.219 0 01-.034.01zm.144-.049a.095.095 0 00.02-.006l-.02.007zm.145-.05h.005a.01.01 0 00-.005 0zM9.672 22.314l.001-.002-.001.002zm.077-.118c.003-.005.005-.009.009-.013a.2.2 0 01-.01.013zm.077-.116a.774.774 0 00.017-.027l-.017.027zm.04-.06c.005-.01.012-.02.019-.03a.952.952 0 01-.02.03zm.117-.177l.03-.044-.03.044zm.078-.117z" fill="#939599"/><mask id="mask0_801_4691" style="mask-type:luminance" maskUnits="userSpaceOnUse" x="1" y="0" width="99" height="99"><path d="M50.855 98.293A48.927 48.927 0 0121.1 88.264C9.316 79.286 1.71 65.104 1.71 49.146c0-9.902 2.927-19.118 7.965-26.833v-.002l.038-.058.005-.006.033-.052a1.333 1.333 0 01.039-.058l.013-.02.025-.038.017-.027a1.41 1.41 0 00.042-.063 1.041 1.041 0 00.044-.064l.015-.023.027-.041.012-.019.03-.044.01-.015.034-.05.005-.008a49.365 49.365 0 0110.151-11.007 49.153 49.153 0 009.636-6.014 48.965 48.965 0 0119.54-4.04c27.141 0 49.143 22.005 49.143 49.147 0 19.611-11.484 36.538-28.095 44.423a49.24 49.24 0 01-3.451 1.348l-.005.002-.063.021-.008.004c-.018.005-.035.012-.053.018l-.021.007a.717.717 0 01-.046.015l-.025.01-.04.013-.034.01-.03.012a.695.695 0 00-.041.014l-.026.008-.048.016a1.225 1.225 0 01-.072.024l-.013.005a2.045 2.045 0 00-.065.022l-.068.022a49.113 49.113 0 01-15.476 2.487zM99.203 58l.002-.006c0 .002 0 .004-.002.006zm.027-.146l.004-.02-.004.02zm.013-.07l.004-.021a.203.203 0 00-.004.021zm.026-.151zm.012-.067l.005-.033-.005.033zm.013-.076l.01-.055-.01.055zm.023-.14c.448-2.667.682-5.408.682-8.204 0-13.27-5.26-25.313-13.808-34.155C94.74 23.834 100 35.877 100 49.146c0 2.797-.233 5.537-.681 8.206zM29.855 4.703l.005-.003a48.82 48.82 0 01-.005.003zm9.221-3.28l.024-.006-.024.005z" fill="#fff"/></mask><g mask="url(#mask0_801_4691)"><path d="M50.855 98.293A48.927 48.927 0 0121.1 88.264C9.316 79.286 1.71 65.104 1.71 49.146c0-9.902 2.927-19.118 7.965-26.833v-.002l.038-.058.005-.006.033-.052a1.238 1.238 0 01.039-.058l.013-.02.025-.038.017-.027a1.41 1.41 0 00.042-.063 1.041 1.041 0 00.044-.064l.015-.023.027-.041.012-.019.03-.044.01-.015.034-.05.005-.008a49.365 49.365 0 0110.151-11.007 49.153 49.153 0 009.636-6.014 48.965 48.965 0 0119.54-4.04c27.141 0 49.143 22.005 49.143 49.147 0 19.611-11.484 36.538-28.095 44.423a49.24 49.24 0 01-3.451 1.348l-.005.002-.063.021-.008.004c-.018.005-.035.012-.053.018l-.021.007a.717.717 0 01-.046.015l-.025.01-.04.013-.034.01-.03.012a.695.695 0 00-.041.014l-.026.008-.048.016a1.225 1.225 0 01-.072.024l-.013.005a2.145 2.145 0 00-.065.022l-.068.022a49.113 49.113 0 01-15.476 2.487zM99.203 58l.002-.006c0 .002 0 .004-.002.006zm.027-.146l.004-.02-.004.02zm.013-.07l.004-.021a.203.203 0 00-.004.021zm.026-.151zm.012-.067l.005-.033-.005.033zm.013-.076l.01-.055-.01.055zm.023-.14c.448-2.667.682-5.408.682-8.204 0-13.27-5.26-25.313-13.808-34.155C94.74 23.834 100 35.877 100 49.146c0 2.797-.233 5.537-.681 8.206zM29.855 4.703l.005-.003a48.82 48.82 0 01-.005.003zm9.221-3.28l.024-.006-.024.005z" fill="url(#paint0_linear_801_4691)"/><path d="M49.999 31.218c-.748 0-1.365-.61-1.365-1.365 0-.748.617-1.358 1.365-1.358a1.362 1.362 0 110 2.723zm15.795-1.537v-1.788a.894.894 0 00-.888-.893H35.1a.895.895 0 00-.894.893v1.788A3.293 3.293 0 0033 32.229v35.213a3.308 3.308 0 003.304 3.304h25.651v-.866h-3.63v-1.115H36.304a1.328 1.328 0 01-1.323-1.323V32.7l.118.007h29.807l.111-.007v28.82h1.532v3.927h.45V32.23a3.273 3.273 0 00-1.205-2.548z" fill="#202020"/><path d="M70.187 69.88h-3.644v3.934H61.95V69.88h-3.63v-4.433h3.63V61.52h4.593v3.927h3.644v4.433zm-3.193-13.194a10.934 10.934 0 00-1.982-.305 11.28 11.28 0 00-8.943 3.484 10.37 10.37 0 00-1.42 1.828 11.2 11.2 0 00-1.712 5.97c0 .375.022.742.05 1.102.07.68.194 1.344.38 1.98 1.338 4.752 5.708 8.236 10.89 8.236 6.248 0 11.313-5.07 11.313-11.317 0-5.306-3.651-9.753-8.576-10.978zm-6.858-18.655h-20.68a.917.917 0 010-1.832h20.68a.916.916 0 010 1.832zm-2.079 4.733H41.534a.916.916 0 110-1.832h16.523a.916.916 0 110 1.832zm-1.367 4.734H42.935a.916.916 0 110-1.832h13.753a.916.916 0 110 1.832zm2.077 4.732h-17.91a.916.916 0 110-1.832h17.91a.916.916 0 110 1.832zm-2.077 4.733H42.935a.916.916 0 010-1.832h13.753a.916.916 0 110 1.832z" fill="#202020"/><path d="M58.767 61.696h-17.91a.916.916 0 110-1.833h17.91a.916.916 0 110 1.833z" fill="#202020"/></g><path d="M100.001 49.147c0 20.186-12.17 37.53-29.573 45.093 16.618-7.882 28.109-24.813 28.109-44.429C98.537 22.67 76.535.664 49.393.664a48.967 48.967 0 00-19.565 4.05A48.925 48.925 0 0150.857 0C77.997 0 100 22.004 100 49.147z" fill="#fff"/><defs><linearGradient id="paint0_linear_801_4691" x1="-6.002" y1="121.335" x2="85.609" y2="14.399" gradientUnits="userSpaceOnUse"><stop stop-color="#fff"/><stop offset="1" stop-color="#EFEFEF"/></linearGradient></defs></svg>