<svg width="55" height="56" fill="none" xmlns="http://www.w3.org/2000/svg"><g clip-path="url(#clip0_801_4727)"><path d="M27.58 4.193c2.179 11.565 8.426 17.496 14.439 20.511 3.331 1.671 6.575 2.44 8.984 2.792l.083.012c-12.136 2.784-18.204 9.361-21.209 15.53a29.05 29.05 0 00-2.462 7.641C25.49 40.123 19.46 34.2 13.535 30.9c-3.315-1.845-6.588-2.866-9.078-3.43 4.812-.633 8.654-2.162 11.719-4.205 3.953-2.635 6.583-6.106 8.332-9.55 1.748-3.442 2.62-6.866 3.055-9.425l.017-.096z" stroke="#202020"/></g><defs><clipPath id="clip0_801_4727"><path fill="#fff" d="M0 0h55v56H0z"/></clipPath></defs></svg>