<svg width="86" height="87" fill="none" xmlns="http://www.w3.org/2000/svg"><g clip-path="url(#clip0_801_4721)"><path d="M79.791 42.443c.616.09 1.198.161 1.739.22-19.955 4.085-29.77 14.547-34.56 24.319-2.462 5.025-3.59 9.85-4.097 13.504-2.633-17.384-12.333-26.977-21.85-32.241-5.308-2.937-10.553-4.524-14.468-5.377-.459-.1-.9-.19-1.321-.271 8.286-.829 14.794-3.303 19.9-6.685 6.134-4.062 10.218-9.412 12.936-14.73 2.717-5.317 4.073-10.607 4.751-14.565.112-.652.205-1.27.283-1.844 3.086 19 13.11 28.57 22.725 33.36 5.176 2.58 10.217 3.767 13.963 4.31z" stroke="#202020"/></g><defs><clipPath id="clip0_801_4721"><path fill="#fff" d="M0 0h86v87H0z"/></clipPath></defs></svg>