<svg width="75" height="75" fill="none" xmlns="http://www.w3.org/2000/svg"><path d="M56.185 34.734c-2.461.007-5.148-.901-6.68-2.734-1.542 1.837-4.223 2.752-6.69 2.734-.272 0-.543-.008-.815-.034v7.708a9.984 9.984 0 002.156 6.172A9.598 9.598 0 0049.623 52a9.63 9.63 0 005.3-3.473A10.008 10.008 0 0057 42.45V34.7a8.78 8.78 0 01-.815.034zm-1.4 4.931l-6.24 5.373a.844.844 0 01-1.129-.034l-3.234-3.1a.88.88 0 01-.038-1.228.84.84 0 011.201-.04l2.682 2.58 5.662-4.88a.837.837 0 011.184.117.882.882 0 01-.089 1.212z" fill="#202020"/><path d="M40.647 42.348v-8.516a.871.871 0 01.425-.732.844.844 0 01.595-.102c2.743.449 5.95-.333 7.333-2.572V17.558A1.567 1.567 0 0047.445 16h-28.89A1.56 1.56 0 0017 17.558v38.884A1.566 1.566 0 0018.555 58h28.89A1.56 1.56 0 0049 56.442v-3.168a11.344 11.344 0 01-6.013-4.053 11.386 11.386 0 01-2.34-6.873zM26.27 26.67a.855.855 0 01.85-.851h3.11V22.82a.855.855 0 01.85-.851h3.84a.845.845 0 01.85.851v2.998h3.118a.851.851 0 01.85.851v3.935a.855.855 0 01-.85.851H35.77v2.998a.853.853 0 01-.524.787.845.845 0 01-.326.064h-3.84a.851.851 0 01-.85-.851v-2.998h-3.11a.851.851 0 01-.85-.851V26.67zm-5.285 11.616H39.16a.848.848 0 01.853.852.855.855 0 01-.527.787.85.85 0 01-.326.064H20.985a.85.85 0 01-.834-.851.853.853 0 01.834-.852zm0 6.02h17.988a.849.849 0 01.85.852.852.852 0 01-.85.852H20.985a.849.849 0 01-.834-.852.853.853 0 01.834-.851zM40.8 52.03H20.985a.85.85 0 01-.834-.851.853.853 0 01.834-.852H40.8a.849.849 0 01.837.852.853.853 0 01-.837.851zM56.159 27c-.066.14-.112.302-.137.474a2.094 2.094 0 00-.01.526 3.44 3.44 0 01.147-1z" fill="#202020"/></svg>