<svg width="53" height="50" fill="none" xmlns="http://www.w3.org/2000/svg"><path fill-rule="evenodd" clip-rule="evenodd" d="M14.536 12.484c.062-.74.26-1.441.57-2.084H7.005v2.585l4.292 3.157v27.624H41.34V16.179l4.828-3.157V10.4H26.8a5.9 5.9 0 01.571 2.084h15.78l-3.957 2.586v26.612h-25.75V15.107l-3.567-2.623h4.66z" fill="#202020"/><path fill-rule="evenodd" clip-rule="evenodd" d="M22.026 27.083h-4.291v4.167h4.291v-4.167zM15.59 25v8.333h8.583V25H15.59zm19.311 2.083h-6.438v14.584h6.438V27.083zM26.317 25v18.75h10.73V25h-10.73z" fill="#202020"/><path d="M7.004 42.709c0 .575.48 1.041 1.073 1.041h36.481c.593 0 1.073-.466 1.073-1.041 0-.576-.48-1.042-1.073-1.042H8.078c-.593 0-1.074.466-1.074 1.042z" fill="#202020"/><path fill-rule="evenodd" clip-rule="evenodd" d="M16.66 16.666h-5.365v-2.083h5.365v2.083zm24.143 0H25.245v-2.083h15.558v2.083z" fill="#202020"/><path fill-rule="evenodd" clip-rule="evenodd" d="M27.39 12.5c0 3.452-2.883 6.25-6.438 6.25-3.556 0-6.438-2.798-6.438-6.25s2.883-6.25 6.438-6.25c3.555 0 6.438 2.798 6.438 6.25zm-5.365-3.125v2.083h2.146v2.084h-2.146v2.083h-2.146v-2.083h-2.146v-2.084h2.146V9.375h2.146z" fill="#202020"/></svg>