<svg width="25" height="25" fill="none" xmlns="http://www.w3.org/2000/svg"><path d="M21.525 19.553s-1.207 1.186-1.502 1.533c-.482.515-1.05.757-1.794.757-.072 0-.148 0-.22-.005-1.416-.09-2.733-.642-3.72-1.114a21.185 21.185 0 01-7.042-5.503c-1.627-1.957-2.714-3.766-3.435-5.708-.443-1.186-.606-2.11-.534-2.98a2.184 2.184 0 01.658-1.414l1.627-1.624c.234-.219.482-.338.725-.338.3 0 .544.181.697.333l.014.015c.291.271.568.552.859.852l.453.462 1.302 1.3c.506.504.506.97 0 1.475-.138.138-.272.276-.41.41-.4.41-.086.095-.501.466-.01.01-.02.015-.024.024-.41.41-.334.81-.248 1.08l.014.044c.34.819.816 1.59 1.541 2.509l.005.004c1.317 1.619 2.705 2.88 4.236 3.847.196.124.396.224.587.319.172.086.334.167.472.252.02.01.038.024.058.034.162.08.314.119.472.119.396 0 .644-.248.725-.329l.935-.933c.162-.162.42-.357.72-.357.296 0 .54.186.687.348l.01.009 2.628 2.623c.492.486.005 1.49.005 1.49z" fill="#202020"/><path d="M6.985 3.49c-.153-.152-.396-.333-.697-.333-.243 0-.491.12-.725.338L3.936 5.12c-.396.395-.61.857-.658 1.414-.072.87.09 1.794.534 2.98.72 1.942 1.808 3.751 3.435 5.708a21.185 21.185 0 007.041 5.503c.988.472 2.305 1.024 3.721 1.114.072.005.148.005.22.005.744 0 1.312-.242 1.794-.757.295-.347 1.502-1.533 1.502-1.533s.487-1.004-.005-1.49l-2.628-2.623M6.985 3.49l.014.015m-.014-.015l.014.015m0 0c.291.271.568.552.859.852l.453.462 1.302 1.3c.506.504.506.97 0 1.475-.138.138-.272.276-.41.41-.4.41-.086.095-.501.466-.01.01-.02.015-.024.024-.41.41-.334.81-.248 1.08m0 0l.014.044m-.014-.043l.014.043m0 0c.34.819.816 1.59 1.541 2.509l.005.004c1.317 1.619 2.705 2.88 4.236 3.847.196.124.396.224.587.319.172.086.334.167.472.252.02.01.038.024.058.034.162.08.314.119.472.119.396 0 .644-.248.725-.329l.935-.933c.162-.162.42-.357.72-.357.296 0 .54.186.687.348m0 0l.01.009m-.01-.01l.01.01" stroke="#202020" stroke-width="2" stroke-linecap="round" stroke-linejoin="round"/></svg>