<svg width="128" height="185" fill="none" xmlns="http://www.w3.org/2000/svg"><path d="M38.575 126.025v-4.213c0-9.654.76-17.347 2.28-23.081 1.52-5.734 3.77-10.326 6.75-13.778 2.981-3.51 6.634-6.67 10.96-9.479 3.74-2.457 7.072-4.827 9.994-7.108 2.98-2.282 5.319-4.71 7.014-7.284 1.753-2.575 2.63-5.5 2.63-8.776 0-2.926-.702-5.5-2.104-7.723-1.403-2.224-3.303-3.95-5.699-5.178-2.396-1.229-5.056-1.843-7.978-1.843-3.156 0-6.079.731-8.767 2.194-2.63 1.462-4.764 3.48-6.4 6.055-1.578 2.575-2.367 5.558-2.367 8.952H0c.117-12.872 3.04-23.315 8.767-31.33 5.728-8.075 13.326-13.984 22.795-17.729C41.03 1.901 51.434 0 62.772 0 75.28 0 86.445 1.843 96.264 5.529c9.819 3.627 17.563 9.127 23.233 16.499 5.669 7.313 8.504 16.47 8.504 27.47 0 7.079-1.227 13.31-3.682 18.692-2.397 5.324-5.757 10.034-10.082 14.13-4.267 4.037-9.264 7.723-14.992 11.058-4.208 2.457-7.745 5.002-10.608 7.635-2.864 2.574-5.027 5.529-6.488 8.864-1.461 3.276-2.192 7.255-2.192 11.935v4.213h-41.38zM59.967 185c-6.78 0-12.595-2.37-17.447-7.109-4.792-4.797-7.16-10.619-7.1-17.464-.06-6.67 2.308-12.374 7.1-17.113 4.852-4.74 10.667-7.109 17.447-7.109 6.43 0 12.099 2.369 17.008 7.109 4.968 4.739 7.482 10.443 7.54 17.113-.058 4.564-1.257 8.718-3.594 12.462-2.28 3.686-5.26 6.641-8.943 8.864-3.682 2.165-7.686 3.247-12.01 3.247z" fill="#F3F3F3"/></svg>