<svg width="35" height="35" fill="none" xmlns="http://www.w3.org/2000/svg"><path d="M27.997 11.704a8.598 8.598 0 01-2.47.692 4.316 4.316 0 001.888-2.389 8.673 8.673 0 01-2.73 1.054c-.794-.863-1.908-1.365-3.173-1.365-2.359 0-4.286 1.927-4.286 4.307 0 .34.04.672.11.983a12.24 12.24 0 01-8.873-4.497 4.261 4.261 0 00-.583 2.158c0 1.496.753 2.821 1.918 3.574-.713 0-1.376-.2-1.958-.502v.03a4.31 4.31 0 003.453 4.227 4.236 4.236 0 01-1.937.07 4.297 4.297 0 004.015 2.992 8.553 8.553 0 01-5.35 1.847 8.79 8.79 0 01-1.024-.06 12.19 12.19 0 006.605 1.937c7.91 0 12.257-6.565 12.257-12.257 0-.191 0-.372-.01-.563a8.606 8.606 0 002.148-2.238z" fill="#202020"/><rect x=".5" y=".5" width="34" height="34" rx="6.5" stroke="#202020"/></svg>