<svg width="76" height="75" viewBox="0 0 76 75" fill="none" xmlns="http://www.w3.org/2000/svg">
<path d="M36.8574 74.9999C16.5014 74.9999 0 58.4972 0 38.1412C0 28.133 3.9891 19.0557 10.4628 12.4145C10.5472 12.3277 10.6318 12.2421 10.7172 12.1558L10.7191 12.1582C4.24569 18.7995 0.256294 27.8761 0.256294 37.8844C0.256294 58.2409 16.7578 74.7436 37.1136 74.7436C47.1217 74.7436 56.1988 70.7539 62.8399 64.2799L62.8417 64.2815C62.7561 64.3672 62.6699 64.4516 62.5837 64.536C55.942 71.011 46.8654 74.9999 36.8574 74.9999Z" fill="#969A9D"/>
<path d="M37.1151 74.7435C16.7593 74.7435 0.257812 58.2409 0.257812 37.8843C0.257812 27.8761 4.24721 18.7994 10.7206 12.1582C10.8053 12.0714 10.8899 11.9852 10.975 11.8995L10.9772 11.9013C4.50375 18.5432 0.514347 27.6199 0.514347 37.6281C0.514347 57.9846 17.0158 74.4875 37.372 74.4875C47.38 74.4875 56.4566 70.4978 63.0977 64.0229L63.1001 64.0254C63.0139 64.1103 62.9282 64.1955 62.8414 64.2799C56.2003 70.7539 47.1232 74.7435 37.1151 74.7435Z" fill="#96999C"/>
<path d="M37.3771 74.4874C17.021 74.4874 0.519531 57.9845 0.519531 37.628C0.519531 27.6198 4.50893 18.5431 10.9824 11.9013C11.067 11.8151 11.1517 11.7289 11.2368 11.6433L11.2389 11.6451C4.76546 18.2863 0.775821 27.3636 0.775821 37.3718C0.775821 57.7277 17.2775 74.2304 37.6334 74.2304C47.6414 74.2304 56.718 70.2414 63.3597 63.7668L63.3615 63.7684C63.2759 63.8542 63.1897 63.9384 63.1029 64.0228C56.4617 70.4977 47.3852 74.4874 37.3771 74.4874Z" fill="#96989A"/>
<path d="M37.6232 74.2304C17.2673 74.2304 0.765625 57.7277 0.765625 37.3718C0.765625 27.3636 4.75526 18.2863 11.2287 11.6451C11.3131 11.5582 11.3978 11.4726 11.4831 11.3864L11.485 11.3888C5.01156 18.0301 1.02216 27.1067 1.02216 37.115C1.02216 57.4714 17.5236 73.9744 37.8794 73.9744C47.8875 73.9744 56.9646 69.9846 63.6057 63.5105L63.6075 63.5123C63.5219 63.5972 63.4357 63.6823 63.3495 63.7667C56.7078 70.2414 47.6312 74.2304 37.6232 74.2304Z" fill="#95979A"/>
<path d="M37.8807 73.9747C17.5249 73.9747 1.02344 57.4717 1.02344 37.1153C1.02344 27.1071 5.01283 18.0304 11.4863 11.3891C11.5707 11.3023 11.6556 11.2161 11.7409 11.1305L11.7428 11.1323C10.1952 12.7206 8.7885 14.4484 7.54529 16.2942C7.5441 16.296 7.54272 16.2984 7.54128 16.3002C7.5329 16.3127 7.52446 16.3253 7.51608 16.3379C7.51351 16.3421 7.51135 16.3445 7.50883 16.3487C7.50135 16.36 7.49405 16.3708 7.48638 16.3822C7.48381 16.3858 7.47956 16.3924 7.47698 16.396C7.46998 16.4067 7.46345 16.4163 7.45645 16.4271C7.45244 16.4331 7.44915 16.4379 7.44544 16.4438C7.43957 16.4522 7.43304 16.4618 7.42741 16.4708C7.42227 16.4786 7.41783 16.4852 7.41269 16.4923C7.40802 16.4995 7.40287 16.5073 7.3982 16.5145C7.39233 16.5235 7.38718 16.5313 7.38138 16.5396C7.37689 16.5468 7.37293 16.5528 7.3685 16.5594C7.36216 16.569 7.35563 16.5786 7.34929 16.5881C7.34629 16.5929 7.34276 16.5983 7.33971 16.6031C7.33198 16.6145 7.32522 16.6246 7.31774 16.6366C7.31516 16.6402 7.31331 16.6432 7.31073 16.6468C7.30253 16.6594 7.29367 16.6731 7.28547 16.6857C7.28409 16.6875 7.28361 16.6881 7.28242 16.6905C7.27284 16.7049 7.26374 16.7186 7.25416 16.7336C7.25392 16.7342 7.25368 16.7342 7.2532 16.7348C3.47502 22.5211 1.27979 29.4329 1.27979 36.8591C1.27979 48.828 6.98404 59.4635 15.8225 66.1971C22.0164 70.916 29.7501 73.7177 38.1375 73.7177C42.1924 73.7177 46.0951 73.0628 49.7441 71.8535L49.7447 71.8528C49.7614 71.8475 49.7788 71.8416 49.7955 71.836C49.7967 71.836 49.7979 71.8355 49.7991 71.8348C49.8147 71.8295 49.8291 71.8248 49.8446 71.8199C49.8482 71.8187 49.8506 71.8175 49.8542 71.8163C49.868 71.8122 49.8817 71.8075 49.8955 71.8026C49.9003 71.8014 49.9039 71.8002 49.9081 71.7983C49.9201 71.7941 49.9314 71.7906 49.944 71.7864C49.9506 71.7841 49.9566 71.7822 49.9632 71.7799C49.9733 71.7761 49.9835 71.7726 49.9937 71.7696C50.0015 71.7668 50.0093 71.7642 50.017 71.7611C50.0254 71.7588 50.0344 71.7558 50.0428 71.7529C50.0524 71.7492 50.0619 71.7462 50.0721 71.7427C50.0787 71.7403 50.0847 71.7385 50.0913 71.7361C50.1027 71.7326 50.1146 71.7284 50.1254 71.7242C50.1308 71.7228 50.1362 71.7204 50.141 71.7193C50.1547 71.7146 50.1673 71.7097 50.1811 71.7055C50.1829 71.7043 50.1853 71.7039 50.1871 71.7031C50.2026 71.6978 50.2188 71.6924 50.2344 71.687C50.2356 71.6863 50.2368 71.6858 50.238 71.6858C51.1156 71.3804 51.9801 71.0427 52.826 70.6746C52.823 70.6765 52.8194 70.6776 52.8165 70.6793C56.9473 68.884 60.6849 66.354 63.8644 63.2544L63.8656 63.2563C63.78 63.3412 63.6938 63.4259 63.607 63.5108C56.9659 69.985 47.8888 73.9747 37.8807 73.9747Z" fill="#939699"/>
<path d="M38.1421 73.7172C42.1976 73.7172 46.0991 73.0624 49.7487 71.8531C46.0997 73.0624 42.197 73.7172 38.1421 73.7172ZM49.8588 71.8159C49.872 71.8117 49.887 71.8071 49.9001 71.8021C49.8864 71.8071 49.8726 71.8117 49.8588 71.8159ZM49.9127 71.7979C49.9241 71.7944 49.9373 71.7895 49.9486 71.786C49.9361 71.7902 49.9247 71.7937 49.9127 71.7979ZM50.0217 71.7607C50.0306 71.7579 50.0384 71.7553 50.0474 71.7525C50.039 71.7553 50.03 71.7584 50.0217 71.7607ZM50.13 71.7238C50.1348 71.7223 50.1414 71.72 50.1456 71.7189C50.1408 71.72 50.1354 71.7223 50.13 71.7238ZM50.239 71.6866C50.2414 71.6854 50.2402 71.6859 50.2426 71.6854C50.2414 71.6854 50.2402 71.6859 50.239 71.6866ZM7.25781 16.7344C7.25829 16.7338 7.25853 16.7338 7.25877 16.7332L7.25781 16.7344ZM7.31535 16.6464C7.31792 16.6428 7.31977 16.6398 7.32235 16.6362C7.32049 16.6392 7.3172 16.644 7.31535 16.6464ZM7.37312 16.559C7.37755 16.5524 7.3815 16.5464 7.38599 16.5392C7.3815 16.5464 7.37779 16.5524 7.37312 16.559ZM7.40281 16.5141C7.40748 16.5069 7.41263 16.4991 7.4173 16.4919C7.41287 16.4991 7.40724 16.5075 7.40281 16.5141ZM7.49099 16.3818C7.49866 16.3704 7.50596 16.3596 7.51344 16.3482C7.50572 16.3596 7.49866 16.3704 7.49099 16.3818ZM7.5499 16.2938C8.79312 14.448 10.1998 12.7202 11.7474 11.1319C11.8318 11.0457 11.9165 10.9595 12.0018 10.8739C10.3531 12.5322 8.86089 14.3474 7.5499 16.2938Z" fill="#939599"/>
<mask id="mask0_801_4955" style="mask-type:luminance" maskUnits="userSpaceOnUse" x="1" y="0" width="74" height="74">
<path d="M38.027 73.7178C29.6641 73.7178 21.9531 70.934 15.7774 66.2454C6.96486 59.5549 1.27734 48.9874 1.27734 37.0951C1.27734 29.7165 3.46613 22.8489 7.23324 17.0996L7.23419 17.0984C7.24374 17.0836 7.25281 17.0699 7.26236 17.0556C7.26356 17.0532 7.26403 17.0526 7.26541 17.0509C7.27358 17.0384 7.28242 17.0247 7.2906 17.0122C7.29245 17.0098 7.29573 17.0051 7.29758 17.0021C7.30504 16.9902 7.31179 16.9801 7.31949 16.9688C7.32253 16.964 7.32606 16.9587 7.32904 16.9539C7.33537 16.9444 7.34187 16.9349 7.3482 16.9253C7.35286 16.9188 7.35656 16.9128 7.36104 16.9057C7.36683 16.8974 7.37196 16.8897 7.37781 16.8807C7.38223 16.8742 7.38784 16.8659 7.39225 16.8587C7.39739 16.8516 7.4018 16.845 7.40694 16.8373C7.41255 16.8284 7.41906 16.8189 7.42491 16.8105C7.42861 16.8046 7.43189 16.7998 7.43589 16.7939C7.44287 16.7832 7.44938 16.7737 7.45636 16.763C7.45893 16.7594 7.46317 16.7528 7.46573 16.7493C7.47337 16.738 7.48042 16.7273 7.48812 16.716C7.49063 16.7118 7.49278 16.7094 7.49534 16.7052C7.5037 16.6928 7.51211 16.6803 7.52047 16.6678C7.5219 16.666 7.52328 16.6636 7.52447 16.6618C8.83161 14.728 10.3195 12.9244 11.9636 11.2766C12.959 10.2784 14.0108 9.33856 15.1156 8.45937C17.6971 7.24229 20.1125 5.73435 22.3214 3.97775C26.7989 2.0415 31.7402 0.967773 36.9328 0.967773C57.2293 0.967773 73.6822 17.3649 73.6822 37.5912C73.6822 52.205 65.0943 64.8182 52.6724 70.6942C51.829 71.06 50.967 71.3955 50.0919 71.699C50.0895 71.6994 50.0907 71.699 50.0883 71.7001C50.0728 71.7055 50.0567 71.7109 50.0412 71.7161C50.0394 71.7169 50.037 71.7173 50.0352 71.7185C50.0215 71.7227 50.009 71.7276 49.9952 71.7322C49.991 71.7333 49.9845 71.7357 49.9797 71.7371C49.969 71.7413 49.957 71.7455 49.9457 71.7489C49.9391 71.7512 49.9331 71.7531 49.9266 71.7555C49.9164 71.7589 49.9069 71.762 49.8973 71.7656C49.8884 71.7684 49.8806 71.771 49.8717 71.7738C49.8639 71.7768 49.8561 71.7794 49.8484 71.7822C49.8382 71.7852 49.8281 71.7887 49.8179 71.7924C49.8114 71.7947 49.8054 71.7966 49.7988 71.7989C49.7875 71.8024 49.7744 71.8073 49.763 71.8107C49.7588 71.8126 49.7553 71.8138 49.7505 71.815C49.7373 71.8198 49.7224 71.8245 49.7093 71.8286C49.7057 71.8298 49.7033 71.831 49.6997 71.8321C49.6842 71.837 49.6699 71.8417 49.6544 71.847C49.6532 71.8477 49.652 71.8481 49.6508 71.8481C49.6341 71.8537 49.6168 71.8596 49.6001 71.8649L49.5995 71.8656C45.9606 73.0671 42.0705 73.7178 38.027 73.7178ZM74.1818 43.6932C74.1824 43.6926 74.1824 43.6902 74.183 43.689C74.1824 43.6902 74.1824 43.692 74.1818 43.6932ZM74.2015 43.5843C74.2027 43.5796 74.2033 43.5742 74.2045 43.5695C74.2033 43.5748 74.2027 43.5784 74.2015 43.5843ZM74.2111 43.5326C74.2123 43.5272 74.2129 43.5219 74.2141 43.5165C74.2129 43.5213 74.2117 43.5278 74.2111 43.5326ZM74.2308 43.4196C74.2326 43.4118 74.2338 43.4041 74.235 43.3964C74.2338 43.4047 74.2326 43.4112 74.2308 43.4196ZM74.2397 43.3696C74.2409 43.3607 74.2427 43.3535 74.2439 43.3452C74.2427 43.353 74.2409 43.3613 74.2397 43.3696ZM74.2493 43.3131C74.2517 43.3 74.2541 43.2851 74.2564 43.272C74.2541 43.2857 74.2517 43.2994 74.2493 43.3131ZM74.2672 43.2096C74.6021 41.2216 74.777 39.1789 74.777 37.0957C74.777 27.2074 70.8433 18.2328 64.4514 11.6436C70.8433 18.2328 74.777 27.2068 74.777 37.0951C74.777 39.1789 74.6027 41.221 74.2672 43.2096ZM22.3232 3.97596C22.325 3.97477 22.325 3.97477 22.3268 3.97358C24.5043 2.94686 26.8001 2.12656 29.1878 1.53884C26.7989 2.12715 24.5026 2.94746 22.3232 3.97596ZM29.2188 1.5311C29.2242 1.52991 29.2308 1.52814 29.2367 1.52695C29.2308 1.52814 29.2248 1.52991 29.2188 1.5311Z" fill="white"/>
</mask>
<g mask="url(#mask0_801_4955)">
<path d="M38.027 73.7178C29.6641 73.7178 21.9531 70.934 15.7774 66.2454C6.96486 59.5549 1.27734 48.9874 1.27734 37.0951C1.27734 29.7165 3.46613 22.8489 7.23324 17.0996L7.23419 17.0984C7.24374 17.0836 7.25281 17.0699 7.26236 17.0556C7.26356 17.0532 7.26403 17.0526 7.26541 17.0509C7.27358 17.0384 7.28242 17.0247 7.2906 17.0122C7.29245 17.0098 7.29573 17.0051 7.29758 17.0021C7.30504 16.9902 7.31179 16.9801 7.31949 16.9688C7.32253 16.964 7.32606 16.9587 7.32904 16.9539C7.33537 16.9444 7.34187 16.9349 7.3482 16.9253C7.35286 16.9188 7.35656 16.9128 7.36104 16.9057C7.36683 16.8974 7.37196 16.8897 7.37781 16.8807C7.38223 16.8742 7.38783 16.8659 7.39225 16.8587C7.39739 16.8516 7.4018 16.845 7.40694 16.8373C7.41255 16.8284 7.41906 16.8189 7.42491 16.8105C7.42861 16.8046 7.43189 16.7998 7.43589 16.7939C7.44287 16.7832 7.44938 16.7737 7.45636 16.7629C7.45893 16.7594 7.46317 16.7528 7.46573 16.7493C7.47337 16.738 7.48042 16.7273 7.48812 16.716C7.49063 16.7118 7.49278 16.7094 7.49534 16.7052C7.5037 16.6928 7.51211 16.6803 7.52047 16.6678C7.5219 16.666 7.52328 16.6636 7.52447 16.6618C8.83161 14.7279 10.3195 12.9244 11.9636 11.2766C12.959 10.2784 14.0108 9.33856 15.1156 8.45937C17.6971 7.24229 20.1125 5.73435 22.3214 3.97775C26.7989 2.0415 31.7402 0.967773 36.9328 0.967773C57.2293 0.967773 73.6822 17.3649 73.6822 37.5912C73.6822 52.205 65.0943 64.8182 52.6724 70.6942C51.829 71.06 50.967 71.3955 50.0919 71.699C50.0895 71.6994 50.0907 71.699 50.0883 71.7001C50.0728 71.7055 50.0567 71.7109 50.0412 71.7161C50.0394 71.7169 50.037 71.7173 50.0352 71.7185C50.0215 71.7227 50.0089 71.7276 49.9952 71.7322C49.991 71.7333 49.9845 71.7357 49.9797 71.7371C49.969 71.7413 49.957 71.7455 49.9457 71.7489C49.9391 71.7512 49.9331 71.7531 49.9266 71.7555C49.9164 71.7589 49.9069 71.762 49.8973 71.7656C49.8884 71.7684 49.8806 71.771 49.8717 71.7738C49.8639 71.7768 49.8561 71.7794 49.8484 71.7822C49.8382 71.7852 49.8281 71.7887 49.8179 71.7924C49.8114 71.7947 49.8054 71.7966 49.7988 71.7989C49.7875 71.8024 49.7744 71.8073 49.763 71.8107C49.7588 71.8126 49.7553 71.8138 49.7505 71.815C49.7373 71.8198 49.7224 71.8245 49.7093 71.8286C49.7057 71.8298 49.7033 71.831 49.6997 71.8321C49.6842 71.837 49.6699 71.8417 49.6544 71.847C49.6532 71.8477 49.652 71.8481 49.6508 71.8481C49.6341 71.8537 49.6168 71.8596 49.6001 71.8649L49.5995 71.8656C45.9606 73.0671 42.0705 73.7178 38.027 73.7178ZM74.1818 43.6932C74.1824 43.6926 74.1824 43.6902 74.183 43.689C74.1824 43.6902 74.1824 43.692 74.1818 43.6932ZM74.2015 43.5843C74.2027 43.5796 74.2033 43.5742 74.2045 43.5695C74.2033 43.5748 74.2027 43.5784 74.2015 43.5843ZM74.2111 43.5326C74.2123 43.5272 74.2129 43.5219 74.2141 43.5165C74.2129 43.5213 74.2117 43.5278 74.2111 43.5326ZM74.2308 43.4196C74.2326 43.4118 74.2338 43.4041 74.235 43.3964C74.2338 43.4047 74.2326 43.4112 74.2308 43.4196ZM74.2397 43.3696C74.2409 43.3607 74.2427 43.3535 74.2439 43.3452C74.2427 43.3529 74.2409 43.3613 74.2397 43.3696ZM74.2493 43.3131C74.2517 43.3 74.2541 43.2851 74.2564 43.272C74.2541 43.2857 74.2517 43.2994 74.2493 43.3131ZM74.2672 43.2096C74.6021 41.2216 74.777 39.1789 74.777 37.0957C74.777 27.2074 70.8432 18.2328 64.4514 11.6436C70.8432 18.2328 74.777 27.2068 74.777 37.0951C74.777 39.1789 74.6027 41.221 74.2672 43.2096ZM22.3232 3.97595C22.325 3.97476 22.325 3.97476 22.3268 3.97357C24.5043 2.94685 26.8001 2.12655 29.1878 1.53883C26.7989 2.12714 24.5026 2.94745 22.3232 3.97595ZM29.2188 1.5311C29.2242 1.52991 29.2308 1.52813 29.2367 1.52694C29.2308 1.52813 29.2248 1.52991 29.2188 1.5311Z" fill="url(#paint0_linear_801_4955)"/>
</g>
<path d="M75.004 36.8594C75.004 51.999 65.8772 65.0068 52.8249 70.6791C65.2881 64.767 73.9061 52.0696 73.9061 37.3581C73.9061 17.0016 57.4047 0.498787 37.0486 0.498787C31.8335 0.498787 26.8717 1.58241 22.375 3.53652C27.1566 1.2681 32.5028 7.62939e-05 38.1465 7.62939e-05C58.5021 7.62939e-05 75.004 16.5029 75.004 36.8594Z" fill="white"/>
<path d="M41.9295 24.375C41.9295 26.7913 39.9708 28.75 37.5546 28.75C35.1384 28.75 33.1797 26.7913 33.1797 24.375C33.1797 21.9588 35.1384 20 37.5546 20C39.9708 20 41.9295 21.9588 41.9295 24.375Z" fill="#202020"/>
<path d="M29.9433 31.0356C30.2066 30.2679 30.918 29.7466 31.7252 29.7231L31.7824 29.7222H43.3345L43.3917 29.7231C44.1989 29.7466 44.9103 30.2679 45.1737 31.0356L47.1752 36.8689C47.439 37.6377 47.1935 38.4606 46.6144 38.9658L46.487 39.0083C46.1017 39.1367 45.5619 39.3741 45.0128 39.6154L44.8694 39.6785C44.4031 39.8831 43.9109 40.0974 43.4274 40.2889L43.3917 40.303C43.2392 40.3631 43.0875 40.4208 42.938 40.4753C42.2845 40.7129 41.757 40.8528 41.4036 40.8742C41.3767 40.8758 41.3528 40.8766 41.3317 40.8768C41.1327 40.2323 40.9919 39.5221 41.0742 38.9046C41.1176 38.5791 41.2202 38.3032 41.3914 38.0733C41.5603 37.8468 41.8326 37.6153 42.2945 37.4305L43.1972 37.0694L42.475 35.2641L41.5723 35.6252C40.819 35.9265 40.2406 36.3635 39.8323 36.9116C39.4262 37.4565 39.225 38.0617 39.1469 38.6476C38.9949 39.7869 39.2987 40.9341 39.5528 41.6964C39.7083 42.1631 40.0404 42.4864 40.4447 42.6591C40.809 42.8146 41.1963 42.8348 41.5213 42.8151C42.1044 42.7797 42.7676 42.595 43.3917 42.3776V53.0555C43.3917 54.0877 42.5854 54.9399 41.5548 54.997C40.5243 55.054 39.6288 54.2961 39.5147 53.2703L38.5425 44.5203C38.5346 44.4486 38.5307 44.3769 38.5307 44.3055H36.5863C36.5863 44.3769 36.5824 44.4486 36.5744 44.5203L35.6022 53.2703C35.4882 54.2961 34.5927 55.054 33.5621 54.997C32.5316 54.9399 31.7252 54.0877 31.7252 53.0555V42.368C32.482 42.5941 33.2698 42.7813 33.9388 42.8156C34.2941 42.8338 34.6988 42.8146 35.0714 42.6771C35.4771 42.5274 35.8758 42.22 36.0503 41.6964C36.3366 40.8375 36.493 39.6662 36.1889 38.5256C35.8719 37.337 35.0628 36.2324 33.5446 35.6252L32.6419 35.2641L31.9199 37.0694L32.8225 37.4305C33.7348 37.7955 34.141 38.3923 34.3101 39.0266C34.4716 39.6322 34.4215 40.3094 34.2685 40.8731C34.2125 40.8772 34.137 40.8788 34.0385 40.8737C33.5713 40.8498 32.9065 40.6978 32.1327 40.4597C31.9978 40.4182 31.8618 40.3748 31.7252 40.3299V40.3022L29.1003 39.3215C28.1135 38.9528 27.5998 37.8653 27.9417 36.8689L29.9433 31.0356Z" fill="#202020"/>
<path d="M26.861 31.6667C25.9567 31.6667 25.1685 32.158 24.6458 32.6806C24.1405 33.186 23.6666 33.9401 23.6666 34.7223C23.6666 35.2478 23.9234 35.6664 24.1215 35.9306C24.3199 36.1951 24.5703 36.4453 24.7633 36.6382L24.7847 36.6597C24.9308 36.8059 25.048 36.9242 25.1415 37.0288C24.9721 37.1125 24.7718 37.199 24.5344 37.3016L24.5332 37.3021L24.5321 37.3026C24.4431 37.341 24.3489 37.3817 24.2492 37.4253C23.8371 37.6056 23.329 37.8379 22.9202 38.1358C22.531 38.4197 22 38.933 22 39.7222C22 40.3738 22.3081 40.8489 22.6545 41.1737C22.9506 41.4512 23.3185 41.6578 23.5703 41.7992L23.6067 41.8196C23.9106 41.9905 24.0763 42.09 24.1822 42.1893C24.2031 42.2089 24.2154 42.223 24.2221 42.2316C24.219 42.3871 24.1367 42.53 23.6736 42.9931L23.6172 43.0492C23.2396 43.4238 22.5555 44.1022 22.5555 45.1389C22.5555 46.2756 23.3887 47.0512 24.0617 47.4731C24.7594 47.9104 25.6306 48.1945 26.3055 48.1945H27.2777V46.25H26.3055C26.0776 46.25 25.56 46.1174 25.0945 45.8255C24.6043 45.5183 24.5 45.2522 24.5 45.1389C24.5 44.9796 24.5761 44.8405 25.0485 44.3681L25.1049 44.312C25.4826 43.9374 26.1666 43.259 26.1666 42.2222C26.1666 41.5707 25.8585 41.0955 25.5121 40.7708C25.216 40.4932 24.8481 40.2866 24.5963 40.1453L24.5599 40.1249C24.2645 39.9587 24.0997 39.8601 23.9933 39.7634C24.0127 39.7472 24.0366 39.7283 24.0658 39.7071C24.2821 39.5494 24.6073 39.391 25.0285 39.2067C25.0988 39.1759 25.1732 39.1439 25.2502 39.1108C25.5823 38.9678 25.9622 38.8043 26.2613 38.6361C26.4492 38.5303 26.6725 38.3872 26.8587 38.1959C27.0467 38.0029 27.2777 37.675 27.2777 37.2223C27.2777 36.6967 27.021 36.2781 26.8228 36.0139C26.6245 35.7494 26.3741 35.4991 26.1811 35.3062L26.1596 35.2848C25.9386 35.0637 25.7837 34.9061 25.677 34.7639C25.6487 34.7262 25.6304 34.6979 25.6188 34.6783C25.6201 34.6729 25.6217 34.667 25.6236 34.6605C25.6359 34.6175 25.6577 34.5606 25.6929 34.4926C25.7644 34.3549 25.8762 34.2 26.0208 34.0555C26.3315 33.7448 26.6542 33.6111 26.861 33.6111H27.8332V31.6667H26.861Z" fill="#202020"/>
<path fill-rule="evenodd" clip-rule="evenodd" d="M51.1458 32.7847C50.7709 32.285 50.1022 31.6667 49.2222 31.6667H48.25V33.6111H49.2096C49.2195 33.6142 49.2477 33.6247 49.2949 33.6561C49.3793 33.7124 49.4847 33.8106 49.5903 33.9514C49.8154 34.2516 49.913 34.5659 49.9166 34.7139C49.9143 34.7231 49.9022 34.771 49.8462 34.8706C49.7662 35.0129 49.6512 35.1687 49.4861 35.3889L49.4705 35.4097C49.325 35.6036 49.1358 35.8558 48.9868 36.1206C48.8324 36.3952 48.6667 36.7749 48.6667 37.2223C48.6667 37.9374 49.1923 38.376 49.4462 38.5664C49.6861 38.7464 49.9929 38.9224 50.242 39.0653C50.2525 39.0712 50.2628 39.0772 50.273 39.0831C50.3173 39.1085 50.3596 39.1328 50.399 39.1558C50.7116 39.3381 50.9301 39.482 51.0705 39.6185C51.1341 39.6803 51.1585 39.7178 51.1667 39.7345C51.1676 39.8072 51.164 39.8631 50.7222 40.1944L50.6714 40.2323C50.2819 40.5218 49.5 41.1031 49.5 42.2222C49.5 43.1749 49.9853 43.8198 50.2872 44.221L50.3194 44.2639C50.6464 44.6998 50.7499 44.8763 50.7499 45.1389C50.7499 45.3491 50.6154 45.6205 50.2779 45.893C50.1208 46.0199 49.9517 46.1189 49.8063 46.183C49.7054 46.2276 49.645 46.2427 49.625 46.2478L49.6195 46.2492C49.6181 46.2496 49.6175 46.2498 49.6175 46.25H48.6667V48.1945H49.6389C49.9732 48.1945 50.3169 48.083 50.5912 47.962C50.8886 47.8307 51.2054 47.6433 51.4997 47.4057C52.0651 46.9489 52.6943 46.1786 52.6943 45.1389C52.6943 44.1863 52.209 43.5413 51.9072 43.1402L51.875 43.0972C51.548 42.6613 51.4444 42.4848 51.4444 42.2222L51.4443 42.2121C51.4434 42.1383 51.4427 42.0845 51.8889 41.75L51.9397 41.7121C52.3291 41.4226 53.111 40.8413 53.111 39.7222C53.111 39.0498 52.7649 38.554 52.4259 38.2244C52.0976 37.9051 51.6911 37.6584 51.3788 37.4762C51.2972 37.4287 51.2222 37.3855 51.153 37.3456C50.9585 37.2335 50.8093 37.1477 50.6871 37.064C50.7669 36.9244 50.8803 36.7707 51.0416 36.5556L51.0572 36.5348C51.2027 36.3408 51.392 36.0886 51.5409 35.8239C51.6953 35.5493 51.8611 35.1696 51.8611 34.7223C51.8611 34.0331 51.5412 33.3121 51.1458 32.7847ZM50.5169 36.9276C50.5163 36.9276 50.5199 36.9322 50.5294 36.9417C50.5223 36.9323 50.5176 36.9277 50.5169 36.9276ZM51.1704 39.7446C51.1706 39.7447 51.1706 39.7439 51.17 39.7422L51.1693 39.7402L51.1679 39.7368C51.1689 39.742 51.17 39.7446 51.1704 39.7446Z" fill="#202020"/>
<path fill-rule="evenodd" clip-rule="evenodd" d="M51.1675 22.4306C51.1675 21.0882 52.2557 20 53.598 20C54.9404 20 56.0286 21.0882 56.0286 22.4306V26.8546C56.63 27.4684 57.0008 28.3089 57.0008 29.2361C57.0008 31.1154 55.4773 32.6389 53.598 32.6389C51.7188 32.6389 50.1953 31.1154 50.1953 29.2361C50.1953 28.3089 50.5661 27.4684 51.1675 26.8546V22.4306ZM53.1119 27.6486L52.5563 28.2156C52.2966 28.4806 52.1397 28.8381 52.1397 29.2361C52.1397 30.0415 52.7927 30.6944 53.598 30.6944C54.4034 30.6944 55.0563 30.0415 55.0563 29.2361C55.0563 28.8381 54.8994 28.4806 54.6398 28.2156L54.0841 27.6486V25.8333H53.1119V27.6486ZM53.598 21.9444C53.8665 21.9444 54.0841 22.1621 54.0841 22.4306V23.8889H53.1119V22.4306C53.1119 22.1621 53.3296 21.9444 53.598 21.9444Z" fill="#202020"/>
<defs>
<linearGradient id="paint0_linear_801_4955" x1="-4.49069" y1="90.8889" x2="63.7394" y2="10.9654" gradientUnits="userSpaceOnUse">
<stop stop-color="white"/>
<stop offset="1" stop-color="#EFEFEF"/>
</linearGradient>
</defs>
</svg>
