<svg width="76" height="75" viewBox="0 0 76 75" fill="none" xmlns="http://www.w3.org/2000/svg">
<path d="M36.8574 75C16.5014 75 0 58.4973 0 38.1413C0 28.133 3.9891 19.0558 10.4628 12.4145C10.5472 12.3277 10.6318 12.2421 10.7172 12.1559L10.7191 12.1583C4.24569 18.7995 0.256294 27.8762 0.256294 37.8844C0.256294 58.241 16.7578 74.7436 37.1136 74.7436C47.1217 74.7436 56.1988 70.754 62.8399 64.28L62.8417 64.2816C62.7561 64.3672 62.6699 64.4516 62.5837 64.536C55.942 71.011 46.8654 75 36.8574 75Z" fill="#969A9D"/>
<path d="M37.1151 74.7435C16.7593 74.7435 0.257812 58.2409 0.257812 37.8843C0.257812 27.8761 4.24721 18.7994 10.7206 12.1582C10.8053 12.0714 10.8899 11.9852 10.975 11.8995L10.9772 11.9013C4.50375 18.5432 0.514347 27.6199 0.514347 37.6281C0.514347 57.9846 17.0158 74.4875 37.372 74.4875C47.38 74.4875 56.4566 70.4978 63.0977 64.0229L63.1001 64.0254C63.0139 64.1103 62.9282 64.1955 62.8414 64.2799C56.2003 70.7539 47.1232 74.7435 37.1151 74.7435Z" fill="#96999C"/>
<path d="M37.3771 74.4874C17.021 74.4874 0.519531 57.9845 0.519531 37.628C0.519531 27.6198 4.50893 18.5431 10.9824 11.9013C11.067 11.8151 11.1517 11.7289 11.2368 11.6433L11.2389 11.6451C4.76546 18.2863 0.775821 27.3636 0.775821 37.3718C0.775821 57.7277 17.2775 74.2304 37.6334 74.2304C47.6414 74.2304 56.718 70.2414 63.3597 63.7668L63.3615 63.7684C63.2759 63.8542 63.1897 63.9384 63.1029 64.0228C56.4617 70.4977 47.3852 74.4874 37.3771 74.4874Z" fill="#96989A"/>
<path d="M37.6232 74.2305C17.2673 74.2305 0.765625 57.7278 0.765625 37.3719C0.765625 27.3636 4.75526 18.2863 11.2287 11.6451C11.3131 11.5583 11.3978 11.4727 11.4831 11.3865L11.485 11.3889C5.01156 18.0301 1.02216 27.1068 1.02216 37.115C1.02216 57.4714 17.5236 73.9744 37.8794 73.9744C47.8875 73.9744 56.9646 69.9847 63.6057 63.5105L63.6075 63.5124C63.5219 63.5973 63.4357 63.6824 63.3495 63.7668C56.7078 70.2415 47.6312 74.2305 37.6232 74.2305Z" fill="#95979A"/>
<path d="M37.8807 73.9746C17.5249 73.9746 1.02344 57.4716 1.02344 37.1152C1.02344 27.107 5.01283 18.0303 11.4863 11.3891C11.5707 11.3023 11.6556 11.2161 11.7409 11.1304L11.7428 11.1322C10.1952 12.7206 8.7885 14.4484 7.54529 16.2941C7.5441 16.2959 7.54272 16.2983 7.54128 16.3001C7.5329 16.3127 7.52446 16.3252 7.51608 16.3378C7.51351 16.342 7.51135 16.3444 7.50883 16.3486C7.50135 16.36 7.49405 16.3707 7.48638 16.3821C7.48381 16.3857 7.47956 16.3923 7.47698 16.3959C7.46998 16.4067 7.46345 16.4162 7.45645 16.427C7.45244 16.433 7.44915 16.4378 7.44544 16.4438C7.43957 16.4522 7.43304 16.4618 7.42741 16.4707C7.42227 16.4785 7.41783 16.4851 7.41269 16.4923C7.40802 16.4995 7.40287 16.5073 7.3982 16.5144C7.39233 16.5234 7.38718 16.5312 7.38138 16.5396C7.37689 16.5468 7.37293 16.5527 7.3685 16.5593C7.36216 16.5689 7.35563 16.5785 7.34929 16.5881C7.34629 16.5929 7.34276 16.5983 7.33971 16.603C7.33198 16.6144 7.32522 16.6246 7.31774 16.6366C7.31516 16.6402 7.31331 16.6432 7.31073 16.6467C7.30253 16.6593 7.29367 16.6731 7.28547 16.6857C7.28409 16.6875 7.28361 16.688 7.28242 16.6904C7.27284 16.7048 7.26374 16.7186 7.25416 16.7335C7.25392 16.7341 7.25368 16.7341 7.2532 16.7347C3.47502 22.521 1.27979 29.4329 1.27979 36.859C1.27979 48.8279 6.98404 59.4635 15.8225 66.1971C22.0164 70.9159 29.7501 73.7176 38.1375 73.7176C42.1924 73.7176 46.0951 73.0627 49.7441 71.8535L49.7447 71.8527C49.7614 71.8474 49.7788 71.8415 49.7955 71.8359C49.7967 71.8359 49.7979 71.8354 49.7991 71.8348C49.8147 71.8294 49.8291 71.8247 49.8446 71.8198C49.8482 71.8186 49.8506 71.8175 49.8542 71.8163C49.868 71.8121 49.8817 71.8074 49.8955 71.8025C49.9003 71.8013 49.9039 71.8001 49.9081 71.7983C49.9201 71.7941 49.9314 71.7905 49.944 71.7863C49.9506 71.784 49.9566 71.7822 49.9632 71.7798C49.9733 71.7761 49.9835 71.7726 49.9937 71.7695C50.0015 71.7667 50.0093 71.7641 50.017 71.7611C50.0254 71.7588 50.0344 71.7557 50.0428 71.7529C50.0524 71.7492 50.0619 71.7461 50.0721 71.7426C50.0787 71.7403 50.0847 71.7384 50.0913 71.7361C50.1027 71.7326 50.1146 71.7283 50.1254 71.7241C50.1308 71.7227 50.1362 71.7204 50.141 71.7192C50.1547 71.7146 50.1673 71.7097 50.1811 71.7054C50.1829 71.7043 50.1853 71.7038 50.1871 71.7031C50.2026 71.6977 50.2188 71.6924 50.2344 71.687C50.2356 71.6863 50.2368 71.6858 50.238 71.6858C51.1156 71.3804 51.9801 71.0427 52.826 70.6746C52.823 70.6764 52.8194 70.6776 52.8165 70.6793C56.9473 68.8839 60.6849 66.354 63.8644 63.2543L63.8656 63.2563C63.78 63.3411 63.6938 63.4258 63.607 63.5107C56.9659 69.9849 47.8888 73.9746 37.8807 73.9746Z" fill="#939699"/>
<path d="M38.1421 73.7173C42.1976 73.7173 46.0991 73.0624 49.7487 71.8532C46.0997 73.0624 42.197 73.7173 38.1421 73.7173ZM49.8588 71.816C49.872 71.8118 49.887 71.8071 49.9001 71.8022C49.8864 71.8071 49.8726 71.8118 49.8588 71.816ZM49.9127 71.798C49.9241 71.7945 49.9373 71.7896 49.9486 71.786C49.9361 71.7902 49.9247 71.7938 49.9127 71.798ZM50.0217 71.7608C50.0306 71.758 50.0384 71.7554 50.0474 71.7526C50.039 71.7554 50.03 71.7584 50.0217 71.7608ZM50.13 71.7238C50.1348 71.7224 50.1414 71.7201 50.1456 71.7189C50.1408 71.7201 50.1354 71.7224 50.13 71.7238ZM50.239 71.6867C50.2414 71.6855 50.2402 71.6859 50.2426 71.6855C50.2414 71.6855 50.2402 71.6859 50.239 71.6867ZM7.25781 16.7345C7.25829 16.7339 7.25853 16.7339 7.25877 16.7333L7.25781 16.7345ZM7.31535 16.6464C7.31792 16.6429 7.31977 16.6399 7.32235 16.6363C7.32049 16.6393 7.3172 16.6441 7.31535 16.6464ZM7.37312 16.559C7.37755 16.5525 7.3815 16.5465 7.38599 16.5393C7.3815 16.5465 7.37779 16.5525 7.37312 16.559ZM7.40281 16.5141C7.40748 16.507 7.41263 16.4992 7.4173 16.492C7.41287 16.4992 7.40724 16.5076 7.40281 16.5141ZM7.49099 16.3818C7.49866 16.3704 7.50596 16.3597 7.51344 16.3483C7.50572 16.3597 7.49866 16.3704 7.49099 16.3818ZM7.5499 16.2938C8.79312 14.4481 10.1998 12.7203 11.7474 11.132C11.8318 11.0457 11.9165 10.9595 12.0018 10.8739C10.3531 12.5323 8.86089 14.3475 7.5499 16.2938Z" fill="#939599"/>
<mask id="mask0_801_5042" style="mask-type:luminance" maskUnits="userSpaceOnUse" x="1" y="0" width="74" height="74">
<path d="M38.027 73.7178C29.6641 73.7178 21.9531 70.934 15.7774 66.2454C6.96486 59.5549 1.27734 48.9874 1.27734 37.0951C1.27734 29.7165 3.46613 22.8489 7.23324 17.0996L7.23419 17.0984C7.24374 17.0836 7.25281 17.0699 7.26236 17.0556C7.26356 17.0532 7.26403 17.0526 7.26541 17.0509C7.27358 17.0384 7.28242 17.0247 7.2906 17.0122C7.29245 17.0098 7.29573 17.0051 7.29758 17.0021C7.30504 16.9902 7.31179 16.9801 7.31949 16.9688C7.32253 16.964 7.32606 16.9587 7.32904 16.9539C7.33537 16.9444 7.34187 16.9349 7.3482 16.9253C7.35286 16.9188 7.35656 16.9128 7.36104 16.9057C7.36683 16.8974 7.37196 16.8897 7.37781 16.8807C7.38223 16.8742 7.38784 16.8659 7.39225 16.8587C7.39739 16.8516 7.4018 16.845 7.40694 16.8373C7.41255 16.8284 7.41906 16.8189 7.42491 16.8105C7.42861 16.8046 7.43189 16.7998 7.43589 16.7939C7.44287 16.7832 7.44938 16.7737 7.45636 16.763C7.45893 16.7594 7.46317 16.7528 7.46573 16.7493C7.47337 16.738 7.48042 16.7273 7.48812 16.716C7.49063 16.7118 7.49278 16.7094 7.49534 16.7052C7.5037 16.6928 7.51211 16.6803 7.52047 16.6678C7.5219 16.666 7.52328 16.6636 7.52447 16.6618C8.83161 14.728 10.3195 12.9244 11.9636 11.2766C12.959 10.2784 14.0108 9.33856 15.1156 8.45937C17.6971 7.24229 20.1125 5.73435 22.3214 3.97775C26.7989 2.0415 31.7402 0.967773 36.9328 0.967773C57.2293 0.967773 73.6822 17.3649 73.6822 37.5912C73.6822 52.205 65.0943 64.8182 52.6724 70.6942C51.829 71.06 50.967 71.3955 50.0919 71.699C50.0895 71.6994 50.0907 71.699 50.0883 71.7001C50.0728 71.7055 50.0567 71.7109 50.0412 71.7161C50.0394 71.7169 50.037 71.7173 50.0352 71.7185C50.0215 71.7227 50.009 71.7276 49.9952 71.7322C49.991 71.7333 49.9845 71.7357 49.9797 71.7371C49.969 71.7413 49.957 71.7455 49.9457 71.7489C49.9391 71.7512 49.9331 71.7531 49.9266 71.7555C49.9164 71.7589 49.9069 71.762 49.8973 71.7656C49.8884 71.7684 49.8806 71.771 49.8717 71.7738C49.8639 71.7768 49.8561 71.7794 49.8484 71.7822C49.8382 71.7852 49.8281 71.7887 49.8179 71.7924C49.8114 71.7947 49.8054 71.7966 49.7988 71.7989C49.7875 71.8024 49.7744 71.8073 49.763 71.8107C49.7588 71.8126 49.7553 71.8138 49.7505 71.815C49.7373 71.8198 49.7224 71.8245 49.7093 71.8286C49.7057 71.8298 49.7033 71.831 49.6997 71.8321C49.6842 71.837 49.6699 71.8417 49.6544 71.847C49.6532 71.8477 49.652 71.8481 49.6508 71.8481C49.6341 71.8537 49.6168 71.8596 49.6001 71.8649L49.5995 71.8656C45.9606 73.0671 42.0705 73.7178 38.027 73.7178ZM74.1818 43.6932C74.1824 43.6926 74.1824 43.6902 74.183 43.689C74.1824 43.6902 74.1824 43.692 74.1818 43.6932ZM74.2015 43.5843C74.2027 43.5796 74.2033 43.5742 74.2045 43.5695C74.2033 43.5748 74.2027 43.5784 74.2015 43.5843ZM74.2111 43.5326C74.2123 43.5272 74.2129 43.5219 74.2141 43.5165C74.2129 43.5213 74.2117 43.5278 74.2111 43.5326ZM74.2308 43.4196C74.2326 43.4118 74.2338 43.4041 74.235 43.3964C74.2338 43.4047 74.2326 43.4112 74.2308 43.4196ZM74.2397 43.3696C74.2409 43.3607 74.2427 43.3535 74.2439 43.3452C74.2427 43.353 74.2409 43.3613 74.2397 43.3696ZM74.2493 43.3131C74.2517 43.3 74.2541 43.2851 74.2564 43.272C74.2541 43.2857 74.2517 43.2994 74.2493 43.3131ZM74.2672 43.2096C74.6021 41.2216 74.777 39.1789 74.777 37.0957C74.777 27.2074 70.8433 18.2328 64.4514 11.6436C70.8433 18.2328 74.777 27.2068 74.777 37.0951C74.777 39.1789 74.6027 41.221 74.2672 43.2096ZM22.3232 3.97596C22.325 3.97477 22.325 3.97477 22.3268 3.97358C24.5043 2.94686 26.8001 2.12656 29.1878 1.53884C26.7989 2.12715 24.5026 2.94746 22.3232 3.97596ZM29.2188 1.5311C29.2242 1.52991 29.2308 1.52814 29.2367 1.52695C29.2308 1.52814 29.2248 1.52991 29.2188 1.5311Z" fill="white"/>
</mask>
<g mask="url(#mask0_801_5042)">
<path d="M38.027 73.7178C29.6641 73.7178 21.9531 70.934 15.7774 66.2454C6.96486 59.5549 1.27734 48.9874 1.27734 37.0951C1.27734 29.7165 3.46613 22.8489 7.23324 17.0996L7.23419 17.0984C7.24374 17.0836 7.25281 17.0699 7.26236 17.0556C7.26356 17.0532 7.26403 17.0526 7.26541 17.0509C7.27358 17.0384 7.28242 17.0247 7.2906 17.0122C7.29245 17.0098 7.29573 17.0051 7.29758 17.0021C7.30504 16.9902 7.31179 16.9801 7.31949 16.9688C7.32253 16.964 7.32606 16.9587 7.32904 16.9539C7.33537 16.9444 7.34187 16.9349 7.3482 16.9253C7.35286 16.9188 7.35656 16.9128 7.36104 16.9057C7.36683 16.8974 7.37196 16.8897 7.37781 16.8807C7.38223 16.8742 7.38783 16.8659 7.39225 16.8587C7.39739 16.8516 7.4018 16.845 7.40694 16.8373C7.41255 16.8284 7.41906 16.8189 7.42491 16.8105C7.42861 16.8046 7.43189 16.7998 7.43589 16.7939C7.44287 16.7832 7.44938 16.7737 7.45636 16.7629C7.45893 16.7594 7.46317 16.7528 7.46573 16.7493C7.47337 16.738 7.48042 16.7273 7.48812 16.716C7.49063 16.7118 7.49278 16.7094 7.49534 16.7052C7.5037 16.6928 7.51211 16.6803 7.52047 16.6678C7.5219 16.666 7.52328 16.6636 7.52447 16.6618C8.83161 14.7279 10.3195 12.9244 11.9636 11.2766C12.959 10.2784 14.0108 9.33856 15.1156 8.45937C17.6971 7.24229 20.1125 5.73435 22.3214 3.97775C26.7989 2.0415 31.7402 0.967773 36.9328 0.967773C57.2293 0.967773 73.6822 17.3649 73.6822 37.5912C73.6822 52.205 65.0943 64.8182 52.6724 70.6942C51.829 71.06 50.967 71.3955 50.0919 71.699C50.0895 71.6994 50.0907 71.699 50.0883 71.7001C50.0728 71.7055 50.0567 71.7109 50.0412 71.7161C50.0394 71.7169 50.037 71.7173 50.0352 71.7185C50.0215 71.7227 50.0089 71.7276 49.9952 71.7322C49.991 71.7333 49.9845 71.7357 49.9797 71.7371C49.969 71.7413 49.957 71.7455 49.9457 71.7489C49.9391 71.7512 49.9331 71.7531 49.9266 71.7555C49.9164 71.7589 49.9069 71.762 49.8973 71.7656C49.8884 71.7684 49.8806 71.771 49.8717 71.7738C49.8639 71.7768 49.8561 71.7794 49.8484 71.7822C49.8382 71.7852 49.8281 71.7887 49.8179 71.7924C49.8114 71.7947 49.8054 71.7966 49.7988 71.7989C49.7875 71.8024 49.7744 71.8073 49.763 71.8107C49.7588 71.8126 49.7553 71.8138 49.7505 71.815C49.7373 71.8198 49.7224 71.8245 49.7093 71.8286C49.7057 71.8298 49.7033 71.831 49.6997 71.8321C49.6842 71.837 49.6699 71.8417 49.6544 71.847C49.6532 71.8477 49.652 71.8481 49.6508 71.8481C49.6341 71.8537 49.6168 71.8596 49.6001 71.8649L49.5995 71.8656C45.9606 73.0671 42.0705 73.7178 38.027 73.7178ZM74.1818 43.6932C74.1824 43.6926 74.1824 43.6902 74.183 43.689C74.1824 43.6902 74.1824 43.692 74.1818 43.6932ZM74.2015 43.5843C74.2027 43.5796 74.2033 43.5742 74.2045 43.5695C74.2033 43.5748 74.2027 43.5784 74.2015 43.5843ZM74.2111 43.5326C74.2123 43.5272 74.2129 43.5219 74.2141 43.5165C74.2129 43.5213 74.2117 43.5278 74.2111 43.5326ZM74.2308 43.4196C74.2326 43.4118 74.2338 43.4041 74.235 43.3964C74.2338 43.4047 74.2326 43.4112 74.2308 43.4196ZM74.2397 43.3696C74.2409 43.3607 74.2427 43.3535 74.2439 43.3452C74.2427 43.3529 74.2409 43.3613 74.2397 43.3696ZM74.2493 43.3131C74.2517 43.3 74.2541 43.2851 74.2564 43.272C74.2541 43.2857 74.2517 43.2994 74.2493 43.3131ZM74.2672 43.2096C74.6021 41.2216 74.777 39.1789 74.777 37.0957C74.777 27.2074 70.8432 18.2328 64.4514 11.6436C70.8432 18.2328 74.777 27.2068 74.777 37.0951C74.777 39.1789 74.6027 41.221 74.2672 43.2096ZM22.3232 3.97595C22.325 3.97476 22.325 3.97476 22.3268 3.97357C24.5043 2.94685 26.8001 2.12655 29.1878 1.53883C26.7989 2.12714 24.5026 2.94745 22.3232 3.97595ZM29.2188 1.5311C29.2242 1.52991 29.2308 1.52813 29.2367 1.52694C29.2308 1.52813 29.2248 1.52991 29.2188 1.5311Z" fill="url(#paint0_linear_801_5042)"/>
</g>
<path fill-rule="evenodd" clip-rule="evenodd" d="M41.9631 35.0194H38.7229V34.0728H39.7825C40.4967 34.0728 41.1818 33.8048 41.6882 33.3273C42.1946 32.8497 42.4812 32.2015 42.4852 31.5243V29.8495C42.4852 29.919 42.9225 29.878 43.1323 29.8582C43.1862 29.8532 43.2251 29.8495 43.2377 29.8495C43.4248 29.821 43.5941 29.7279 43.7132 29.5881C43.8323 29.4483 43.8926 29.2717 43.8826 29.0922C43.8372 28.822 43.7438 28.561 43.6062 28.3204L43.2377 27.432C42.9766 26.8204 42.7156 26.2087 42.4699 25.5825C42.4699 25.5825 42.3163 24.1262 42.1781 23.6311C41.7497 22.2992 40.8842 21.1317 39.7076 20.2987C38.5309 19.4658 37.1046 19.0108 35.6363 19C34.2155 18.9976 32.8293 19.4162 31.6716 20.1973C30.5138 20.9784 29.6423 22.083 29.1788 23.3567C28.7153 24.6305 28.683 26.0097 29.0864 27.3018C29.4897 28.5938 30.3087 29.734 31.4287 30.5631V35.0194H28.6032C26.8822 35.0151 25.2278 35.6496 23.9937 36.7872C22.7597 37.9248 22.0441 39.4752 22 41.1068V55H48.9963V42.0534C49.0269 41.1523 48.8688 40.2544 48.531 39.4116C48.1931 38.5689 47.6824 37.7981 47.0282 37.1439C46.3741 36.4896 45.5896 35.965 44.7201 35.6003C43.8507 35.2357 42.9136 35.0382 41.9631 35.0194ZM36.8572 44.9962C36.7885 44.9931 36.6974 44.9874 36.5907 44.9771C36.3661 44.9552 36.0498 44.9104 35.72 44.8142C35.5042 44.7512 35.2486 44.6567 35 44.5095C34.7514 44.6567 34.4958 44.7512 34.28 44.8142C33.9502 44.9104 33.6339 44.9552 33.4093 44.9771C33.2945 44.9882 33.1978 44.9939 33.1276 44.9969C33.0923 44.9983 33.0634 44.9991 33.0419 44.9995L33.0377 44.9996C33.1036 46.8696 33.1314 49.2941 32.0567 50.3659C30.6469 51.7719 27.8272 52.4749 26.4174 51.3032C25.0076 50.1315 27.3573 38.6491 30.6469 38.6491C32.9296 38.6491 33.013 41.3908 33.0014 42.9999H33.003L33.0272 42.9992L33.0443 42.9986C33.0835 42.997 33.143 42.9935 33.2157 42.9865C33.3661 42.9718 33.5498 42.9438 33.72 42.8942C33.8635 42.8523 33.9526 42.8079 34 42.7768V39.9792V38.5911V38.4618V38.4022V38.3461V38.245V38.2392V38.2335V38.2222V38.2004V38.1796V38.1598V38.0916V38.0879V38.0843V38.0808V38.0773V38.0739V38.0706V38.0674V38.0642V38.0522V38.0494V38.0467V38.044V38.0415V38.0235V38.0216V38.0198V38.0181V38.0164V38.0148V38.0133V38.0119V38.0106V38.0093V38.0081V38.007V38.006V38.005V38.0042V38.0034V38.0027V38.002V38.0015V38.001V38.0007V38.0004V38.0002V38H35H36V38.0002V38.0004V38.0007V38.001V38.0015V38.002V38.0027V38.0034V38.0042V38.005V38.006V38.007V38.0081V38.0093V38.0106V38.0119V38.0133V38.0148V38.0164V38.0181V38.0198V38.0216V38.0235V38.0415V38.044V38.0467V38.0494V38.0522V38.0642V38.0674V38.0706V38.0739V38.0773V38.0808V38.0843V38.0879V38.0916V38.1598V38.1796V38.2004V38.2222V38.2335V38.2392V38.245V38.3461V38.4022V38.4618V38.5911V39.9792V42.7768C36.0474 42.8079 36.1365 42.8523 36.28 42.8942C36.4502 42.9438 36.6339 42.9718 36.7843 42.9865C36.8253 42.9904 36.8621 42.9933 36.8934 42.9953C36.8819 41.3855 36.9673 38.6491 39.2479 38.6491C42.5375 38.6491 44.8872 50.1315 43.4774 51.3032C42.0675 52.4749 39.2479 51.7719 37.838 50.3659C36.7627 49.2935 36.7912 46.8667 36.8572 44.9962ZM32.9991 43.2411L32.9999 43.1664L33 43.8696C32.9979 43.7651 32.9966 43.6651 32.9966 43.5702C32.9966 43.4705 32.9978 43.3602 32.9991 43.2413V43.2411ZM41 31C41 31.5523 40.5523 32 40 32C39.4477 32 39 31.5523 39 31C39 30.4477 39.4477 30 40 30C40.5523 30 41 30.4477 41 31ZM37 31C37.5523 31 38 30.5523 38 30C38 29.4477 37.5523 29 37 29C36.4477 29 36 29.4477 36 30C36 30.5523 36.4477 31 37 31Z" fill="#202020"/>
<path d="M48 27C48 27.5523 47.5523 28 47 28C46.4477 28 46 27.5523 46 27C46 26.4477 46.4477 26 47 26C47.5523 26 48 26.4477 48 27Z" fill="#202020"/>
<path d="M50 30C50 30.5523 49.5523 31 49 31C48.4477 31 48 30.5523 48 30C48 29.4477 48.4477 29 49 29C49.5523 29 50 29.4477 50 30Z" fill="#202020"/>
<path d="M52 33C52 33.5523 51.5523 34 51 34C50.4477 34 50 33.5523 50 33C50 32.4477 50.4477 32 51 32C51.5523 32 52 32.4477 52 33Z" fill="#202020"/>
<path d="M58 32C58 32.5523 57.5523 33 57 33C56.4477 33 56 32.5523 56 32C56 31.4477 56.4477 31 57 31C57.5523 31 58 31.4477 58 32Z" fill="#202020"/>
<path d="M58 27C58 27.5523 57.5523 28 57 28C56.4477 28 56 27.5523 56 27C56 26.4477 56.4477 26 57 26C57.5523 26 58 26.4477 58 27Z" fill="#202020"/>
<path d="M58 23C58 23.5523 57.5523 24 57 24C56.4477 24 56 23.5523 56 23C56 22.4477 56.4477 22 57 22C57.5523 22 58 22.4477 58 23Z" fill="#202020"/>
<path d="M54 25C54 25.5523 53.5523 26 53 26C52.4477 26 52 25.5523 52 25C52 24.4477 52.4477 24 53 24C53.5523 24 54 24.4477 54 25Z" fill="#202020"/>
<path d="M54 29C54 29.5523 53.5523 30 53 30C52.4477 30 52 29.5523 52 29C52 28.4477 52.4477 28 53 28C53.5523 28 54 28.4477 54 29Z" fill="#202020"/>
<path d="M46 32C46 32.5523 45.5523 33 45 33C44.4477 33 44 32.5523 44 32C44 31.4477 44.4477 31 45 31C45.5523 31 46 31.4477 46 32Z" fill="#202020"/>
<path d="M75.004 36.8594C75.004 51.999 65.8772 65.0068 52.8249 70.6791C65.2881 64.767 73.9061 52.0696 73.9061 37.3581C73.9061 17.0016 57.4047 0.498787 37.0486 0.498787C31.8335 0.498787 26.8717 1.58241 22.375 3.53652C27.1566 1.2681 32.5028 7.62939e-05 38.1465 7.62939e-05C58.5021 7.62939e-05 75.004 16.5029 75.004 36.8594Z" fill="white"/>
<defs>
<linearGradient id="paint0_linear_801_5042" x1="-4.49069" y1="90.8889" x2="63.7394" y2="10.9654" gradientUnits="userSpaceOnUse">
<stop stop-color="white"/>
<stop offset="1" stop-color="#EFEFEF"/>
</linearGradient>
</defs>
</svg>
