<svg width="201" height="163" fill="none" xmlns="http://www.w3.org/2000/svg"><path d="M49.277 163c-9.51 0-17.29-1.94-23.341-5.821-6.052-3.881-11.023-8.84-14.913-14.877-4.323-7.331-7.349-14.877-9.078-22.639C.648 111.47 0 104.786 0 99.611c0-21.13 5.403-40.319 16.21-57.567C27.016 24.795 43.874 10.78 66.784 0l5.835 11.643c-13.4 5.606-25.07 14.446-35.013 26.52-9.51 12.074-14.264 24.364-14.264 36.869 0 5.174.648 9.702 1.945 13.583 6.916-5.606 14.913-8.409 23.99-8.409 11.24 0 20.965 3.666 29.178 10.996 8.213 7.331 12.32 17.465 12.32 30.401 0 12.074-4.107 21.992-12.32 29.754C70.242 159.119 60.516 163 49.277 163zm110.226 0c-9.509 0-17.29-1.94-23.342-5.821-6.051-3.881-11.022-8.84-14.913-14.877-4.322-7.331-7.348-14.877-9.077-22.639-1.297-8.193-1.945-14.877-1.945-20.052 0-21.13 5.403-40.319 16.209-57.567C137.242 24.795 154.1 10.78 177.01 0l5.835 11.643c-13.4 5.606-25.071 14.446-35.013 26.52-9.509 12.074-14.264 24.364-14.264 36.869 0 5.174.648 9.702 1.945 13.583 6.916-5.606 14.913-8.409 23.99-8.409 11.239 0 20.965 3.666 29.178 10.996C196.894 98.533 201 108.667 201 121.603c0 12.074-4.106 21.992-12.319 29.754-8.213 7.762-17.939 11.643-29.178 11.643z" fill="#F3F3F3"/></svg>