<svg width="956" height="594" viewBox="0 0 956 594" fill="none" xmlns="http://www.w3.org/2000/svg">
<g opacity="0.07">
<path d="M501.5 302.809C501.5 352.941 473.518 398.371 428.19 431.287C382.862 464.202 320.218 484.576 251 484.576C181.782 484.576 119.138 464.202 73.81 431.287C28.4817 398.371 0.5 352.941 0.5 302.809C0.5 252.678 28.4817 207.248 73.81 174.332C119.138 141.417 181.782 121.043 251 121.043C320.218 121.043 382.862 141.417 428.19 174.332C473.518 207.248 501.5 252.678 501.5 302.809Z" stroke="#FF3F56"/>
<path d="M767.5 182.267C767.5 232.398 739.518 277.828 694.19 310.744C648.862 343.659 586.218 364.033 517 364.033C447.782 364.033 385.138 343.659 339.81 310.744C294.482 277.828 266.5 232.398 266.5 182.267C266.5 132.135 294.482 86.7049 339.81 53.7892C385.138 20.8739 447.782 0.5 517 0.5C586.218 0.5 648.862 20.8739 694.19 53.7892C739.518 86.7049 767.5 132.135 767.5 182.267Z" stroke="#FF3F56"/>
<path d="M689.5 411.733C689.5 461.865 661.518 507.295 616.19 540.211C570.862 573.126 508.218 593.5 439 593.5C369.782 593.5 307.138 573.126 261.81 540.211C216.482 507.295 188.5 461.865 188.5 411.733C188.5 361.602 216.482 316.172 261.81 283.256C307.138 250.341 369.782 229.967 439 229.967C508.218 229.967 570.862 250.341 616.19 283.256C661.518 316.172 689.5 361.602 689.5 411.733Z" stroke="#FF3F56"/>
<path d="M955.5 291.19C955.5 341.322 927.518 386.752 882.19 419.668C836.862 452.583 774.218 472.957 705 472.957C635.782 472.957 573.138 452.583 527.81 419.668C482.482 386.752 454.5 341.322 454.5 291.19C454.5 241.059 482.482 195.629 527.81 162.713C573.138 129.798 635.782 109.424 705 109.424C774.218 109.424 836.862 129.798 882.19 162.713C927.518 195.629 955.5 241.059 955.5 291.19Z" stroke="#FF3F56"/>
<ellipse cx="718.5" cy="290.827" rx="7.5" ry="5.44621" fill="#FF3F56"/>
<ellipse cx="741" cy="267.953" rx="15" ry="10.8924" fill="#FF3F56"/>
</g>
</svg>
