<svg width="100" height="100" fill="none" xmlns="http://www.w3.org/2000/svg"><path d="M49.143 100C22.002 100 0 77.996 0 50.855c0-13.344 5.319-25.447 13.95-34.302l.34-.345.002.003C5.661 25.066.342 37.168.342 50.513c0 27.142 22.002 49.145 49.143 49.145 13.344 0 25.447-5.32 34.302-13.951l.002.002-.344.34C74.59 94.68 62.488 100 49.143 100z" fill="#969A9D"/><path d="M49.487 99.658C22.346 99.658.344 77.655.344 50.513c0-13.345 5.319-25.447 13.95-34.302l.34-.345.002.003C6.005 24.724.686 36.827.686 50.17c0 27.142 22.002 49.146 49.144 49.146 13.344 0 25.446-5.32 34.3-13.953l.004.003-.345.34c-8.855 8.632-20.958 13.951-34.302 13.951z" fill="#96999C"/><path d="M49.831 99.317C22.69 99.317.687 77.313.687 50.17c0-13.344 5.32-25.447 13.951-34.303l.34-.344.002.003C6.349 24.382 1.03 36.485 1.03 49.829c0 27.141 22.002 49.145 49.143 49.145 13.344 0 25.446-5.319 34.302-13.952l.002.003c-.114.114-.229.226-.345.339-8.855 8.633-20.957 13.953-34.3 13.953z" fill="#96989A"/><path d="M50.171 98.974c-27.141 0-49.144-22.004-49.144-49.145 0-13.344 5.32-25.447 13.951-34.302l.34-.345.002.003C6.689 24.04 1.37 36.142 1.37 49.487c0 27.142 22.002 49.146 49.143 49.146 13.344 0 25.447-5.32 34.302-13.952l.002.002-.344.34c-8.856 8.632-20.958 13.951-34.302 13.951z" fill="#95979A"/><path d="M50.51 98.633c-27.14 0-49.143-22.004-49.143-49.146 0-13.344 5.32-25.447 13.95-34.301.113-.116.226-.231.34-.345l.003.002a49.464 49.464 0 00-5.597 6.883l-.005.008-.034.05c-.003.006-.006.009-.01.014l-.03.045-.012.018-.027.042-.015.022a.803.803 0 00-.044.065l-.02.03a1.677 1.677 0 01-.039.06l-.025.038-.013.02-.03.044-.009.014-.033.052-.004.006a3.58 3.58 0 00-.038.057l-.001.002c-5.038 7.715-7.965 16.931-7.965 26.832 0 15.959 7.606 30.14 19.39 39.118A48.928 48.928 0 0050.853 98.29c5.406 0 10.61-.873 15.475-2.485l.001-.001.068-.023a2.379 2.379 0 01.065-.022c.005 0 .008-.002.013-.004a1.186 1.186 0 00.072-.024l.048-.016.026-.008a.65.65 0 01.04-.014l.031-.011.035-.011.039-.014.025-.009a.624.624 0 00.046-.016l.02-.006.054-.019.008-.003.063-.021a49.027 49.027 0 003.456-1.35l-.013.006a49.22 49.22 0 0014.73-9.9l.002.003-.345.34c-8.855 8.631-20.957 13.95-34.302 13.95z" fill="#939699"/><path d="M50.851 98.29zm15.623-2.535l.055-.019a1.186 1.186 0 01-.055.019zm.071-.024l.048-.016-.048.016zm.146-.05l.034-.01-.034.01zm.144-.05a.095.095 0 00.02-.006l-.02.007zm.145-.049l.005-.001a.01.01 0 00-.005.001zM9.672 22.312l.001-.001-.001.002zm.077-.117c.003-.005.005-.009.009-.013a.2.2 0 01-.01.013zm.077-.116a.895.895 0 00.017-.027l-.017.027zm.04-.06c.005-.01.012-.02.019-.03a1.08 1.08 0 01-.02.03zm.117-.177l.03-.044-.03.044zm.078-.117z" fill="#939599"/><mask id="mask0_801_4685" style="mask-type:luminance" maskUnits="userSpaceOnUse" x="1" y="0" width="99" height="99"><path d="M50.855 98.29A48.927 48.927 0 0121.1 88.264C9.317 79.285 1.711 65.104 1.711 49.146c0-9.902 2.927-19.117 7.965-26.832v-.002l.038-.058.005-.006.033-.052a1.333 1.333 0 01.039-.058l.013-.02.025-.038.017-.027a1.635 1.635 0 00.062-.091.875.875 0 01.024-.036l.015-.023.027-.041.012-.019.03-.044.01-.015.034-.05.005-.008a49.363 49.363 0 0110.151-11.007 49.153 49.153 0 009.636-6.014 48.966 48.966 0 0119.54-4.04c27.141 0 49.143 22.005 49.143 49.147 0 19.61-11.484 36.536-28.095 44.421-1.128.491-2.28.941-3.451 1.349l-.005.001-.063.022a.013.013 0 00-.008.003c-.018.005-.035.012-.053.018l-.021.007a.66.66 0 01-.046.016l-.025.008-.04.014-.034.011-.03.011a.629.629 0 00-.041.014l-.026.009-.048.016a.096.096 0 01-.017.005c-.017.007-.037.013-.055.019l-.013.004a2.386 2.386 0 00-.065.022l-.068.022v.001a49.113 49.113 0 01-15.476 2.486zM99.203 58l.002-.006c0 .002 0 .004-.002.006zm.027-.146l.004-.02-.004.02zm.013-.07l.004-.021a.205.205 0 00-.004.022zm.026-.151zm.012-.067l.005-.033-.005.033zm.013-.076l.01-.055-.01.055zm.023-.139c.448-2.668.682-5.409.682-8.204 0-13.27-5.26-25.313-13.808-34.155C94.74 23.834 100 35.877 100 49.146c0 2.796-.233 5.536-.681 8.205zM29.855 4.703l.005-.004a48.82 48.82 0 01-.005.004zm9.221-3.281l.024-.006-.024.006z" fill="#fff"/></mask><g mask="url(#mask0_801_4685)"><path d="M50.855 98.29A48.927 48.927 0 0121.1 88.264C9.317 79.285 1.711 65.104 1.711 49.146c0-9.902 2.927-19.117 7.965-26.832v-.002l.038-.058.005-.006.033-.052a1.333 1.333 0 01.039-.058l.013-.02.025-.038.017-.027a1.635 1.635 0 00.062-.091.875.875 0 01.024-.036l.015-.023.027-.041.012-.019.03-.044.01-.015.034-.05.005-.008a49.363 49.363 0 0110.151-11.007 49.154 49.154 0 009.636-6.014 48.966 48.966 0 0119.54-4.04c27.141 0 49.143 22.005 49.143 49.147 0 19.61-11.484 36.536-28.095 44.421-1.128.491-2.28.941-3.451 1.349l-.005.001-.063.022a.013.013 0 00-.008.003c-.018.005-.035.012-.053.018l-.021.007a.66.66 0 01-.046.016l-.025.008-.04.014-.034.011-.03.011a.629.629 0 00-.041.014l-.026.009-.048.016a.096.096 0 01-.017.005c-.017.007-.037.013-.055.019l-.013.004a2.524 2.524 0 00-.065.022l-.068.022v.001a49.113 49.113 0 01-15.476 2.486zM99.203 58l.002-.006c0 .002 0 .004-.002.006zm.027-.146l.004-.02-.004.02zm.013-.07l.004-.021a.205.205 0 00-.004.022zm.026-.151zm.012-.067l.005-.033-.005.033zm.013-.076l.01-.055-.01.055zm.023-.139c.448-2.668.682-5.409.682-8.204 0-13.27-5.26-25.313-13.808-34.155C94.74 23.834 100 35.877 100 49.146c0 2.796-.233 5.536-.681 8.205zM29.855 4.703l.005-.004a48.821 48.821 0 01-.005.004zm9.221-3.281l.024-.006-.024.006z" fill="url(#paint0_linear_801_4685)"/></g><path d="M100.001 49.146c0 20.186-12.17 37.53-29.573 45.093 16.618-7.883 28.109-24.813 28.109-44.428C98.537 22.669 76.535.665 49.393.665a48.968 48.968 0 00-19.565 4.05A48.926 48.926 0 0150.857 0C77.997 0 100 22.004 100 49.146z" fill="#fff"/><path d="M58.105 40.058c-1.704-1.458-3.752-2.27-5.85-2.512-.26-1.475-.666-2.947-1.255-2.947-.59 0-.995 1.472-1.255 2.947-2.098.242-4.146 1.054-5.853 2.512a3762.542 3762.542 0 00-3.832-4.697c6.3-5.38 15.58-5.38 21.88 0-1.28 1.566-2.556 3.132-3.835 4.697zM51.035 27c-14.948 0-20.217 5.625-20.03 8.521l1.919 30.132c.183 2.896 2.71 5.267 5.613 5.267h24.926c2.904 0 5.426-2.37 5.613-5.267l1.92-30.132c.186-2.896-5.014-8.52-19.96-8.52z" fill="#202020"/><defs><linearGradient id="paint0_linear_801_4685" x1="-6.002" y1="121.333" x2="85.606" y2="14.397" gradientUnits="userSpaceOnUse"><stop stop-color="#fff"/><stop offset="1" stop-color="#EFEFEF"/></linearGradient></defs></svg>