<svg width="75" height="75" fill="none" xmlns="http://www.w3.org/2000/svg"><path fill-rule="evenodd" clip-rule="evenodd" d="M21.5 19.322v35.357a3.536 3.536 0 003.536 3.535h15.321v-4.166a4.714 4.714 0 114.714 0v4.166h5.893A3.536 3.536 0 0054.5 54.68V19.32a3.536 3.536 0 00-3.536-3.535H25.036a3.536 3.536 0 00-3.536 3.536zm21.214 33a2.357 2.357 0 100-4.715 2.357 2.357 0 000 4.715zM30.93 24.035c0-.651.527-1.179 1.178-1.179h11.786a1.178 1.178 0 110 2.357H32.107c-.65 0-1.178-.527-1.178-1.178zm-3.536 5.893a1.179 1.179 0 100 2.357h21.214a1.179 1.179 0 100-2.357H27.393zm-1.179 5.893c0-.651.528-1.18 1.179-1.18h21.214a1.179 1.179 0 110 2.358H27.393a1.179 1.179 0 01-1.179-1.178zm1.179 3.535a1.179 1.179 0 100 2.357h21.214a1.178 1.178 0 100-2.357H27.393z" fill="#202020"/></svg>