<svg width="104" height="104" fill="none" xmlns="http://www.w3.org/2000/svg"><path d="M83.999 34.76c0-8.154-6.606-14.76-14.76-14.76-6.904 0-12.697 4.738-14.313 11.134a14.76 14.76 0 00-.446 3.625v14.76h14.76c8.153 0 14.759-6.606 14.759-14.76zM20 69.24C20 77.395 26.606 84 34.76 84c6.904 0 12.696-4.738 14.312-11.134.294-1.16.446-2.376.446-3.625V54.48H34.76C26.606 54.482 20 61.088 20 69.242zm11.134-20.168a14.76 14.76 0 003.625.446h14.76V34.76C49.523 26.606 42.912 20 34.758 20 26.606 20 20 26.606 20 34.76c0 6.904 4.738 12.696 11.134 14.312zm41.731 5.856a14.759 14.759 0 00-3.625-.446H54.48v14.76C54.48 77.393 61.087 84 69.24 84c8.153 0 14.759-6.606 14.759-14.759 0-6.905-4.738-12.697-11.134-14.313z" fill="#202020"/></svg>