<svg width="201" height="163" viewBox="0 0 201 163" fill="none" xmlns="http://www.w3.org/2000/svg">
<path d="M49.2774 163C39.7677 163 31.9871 161.06 25.9355 157.179C19.8839 153.298 14.9129 148.339 11.0226 142.302C6.7 134.971 3.67419 127.425 1.94516 119.663C0.648387 111.47 0 104.786 0 99.6111C0 78.4815 5.40322 59.2923 16.2097 42.0437C27.0161 24.795 43.8742 10.7804 66.7839 0L72.6194 11.6429C59.2194 17.2487 47.5484 26.0886 37.6065 38.1627C28.0968 50.2368 23.3419 62.5265 23.3419 75.0318C23.3419 80.2064 23.9903 84.7341 25.2871 88.6151C32.2032 83.0093 40.2 80.2063 49.2774 80.2063C60.5161 80.2063 70.2419 83.8717 78.4548 91.2024C86.6677 98.5331 90.7742 108.667 90.7742 121.603C90.7742 133.677 86.6677 143.595 78.4548 151.357C70.2419 159.119 60.5161 163 49.2774 163ZM159.503 163C149.994 163 142.213 161.06 136.161 157.179C130.11 153.298 125.139 148.339 121.248 142.302C116.926 134.971 113.9 127.425 112.171 119.663C110.874 111.47 110.226 104.786 110.226 99.6111C110.226 78.4815 115.629 59.2923 126.435 42.0437C137.242 24.795 154.1 10.7804 177.01 0L182.845 11.6429C169.445 17.2487 157.774 26.0886 147.832 38.1627C138.323 50.2368 133.568 62.5265 133.568 75.0318C133.568 80.2064 134.216 84.7341 135.513 88.6151C142.429 83.0093 150.426 80.2063 159.503 80.2063C170.742 80.2063 180.468 83.8717 188.681 91.2024C196.894 98.5331 201 108.667 201 121.603C201 133.677 196.894 143.595 188.681 151.357C180.468 159.119 170.742 163 159.503 163Z" fill="#F3F3F3"/>
</svg>
