<svg width="86" height="87" viewBox="0 0 86 87" fill="none" xmlns="http://www.w3.org/2000/svg">
<g clip-path="url(#clip0_801_4721)">
<path d="M79.7915 42.4429C80.4074 42.5322 80.9885 42.6042 81.5297 42.6621C61.5751 46.7491 51.7611 57.2111 46.9712 66.9834C44.5085 72.0078 43.3814 76.8336 42.8742 80.4871C40.2409 63.1034 30.5415 53.5104 21.0248 48.246C15.7157 45.3091 10.4712 43.7222 6.55627 42.8689C6.09697 42.7688 5.65584 42.6788 5.23489 42.5978C13.521 41.7693 20.0288 39.2947 25.1355 35.9129C31.2683 31.8514 35.3522 26.4999 38.0702 21.1815C40.7872 15.8652 42.1433 10.5749 42.821 6.61737C42.9327 5.96464 43.0261 5.34785 43.1041 4.77279C46.1896 23.7723 56.2148 33.3422 65.8291 38.1331C71.0052 40.7124 76.0464 41.8997 79.7915 42.4429Z" stroke="#202020"/>
</g>
<defs>
<clipPath id="clip0_801_4721">
<rect width="86" height="87" fill="white"/>
</clipPath>
</defs>
</svg>
