<svg width="166" height="168" viewBox="0 0 166 168" fill="none" xmlns="http://www.w3.org/2000/svg">
<g clip-path="url(#clip0_801_4724)">
<path d="M83.1472 5.69085C88.3959 44.5292 108.272 63.7473 127.273 73.2196C137.208 78.1727 146.889 80.4541 154.083 81.498C156.646 81.8699 158.894 82.0849 160.728 82.2076C120.149 89.5758 100.522 110.287 91.083 129.552C86.1729 139.574 84.0279 149.186 83.1099 156.293C82.98 157.298 82.8746 158.254 82.7894 159.154C78.5774 123.419 59.2742 104.041 40.3577 93.5721C30.1598 87.9285 20.0821 84.8771 12.5561 83.2362C10.266 82.7369 8.21113 82.3679 6.45994 82.0962C24.1178 80.8971 37.7468 75.9265 48.2605 68.9608C60.0184 61.171 67.8522 50.9047 73.0703 40.6903C78.2872 30.478 80.8933 20.3105 82.196 12.6998C82.6566 10.0084 82.9545 7.63516 83.1472 5.69085Z" stroke="#202020"/>
</g>
<defs>
<clipPath id="clip0_801_4724">
<rect width="166" height="168" fill="white"/>
</clipPath>
</defs>
</svg>
