<svg width="75" height="75" viewBox="0 0 75 75" fill="none" xmlns="http://www.w3.org/2000/svg">
<path d="M56.185 34.7344C53.7236 34.741 51.0371 33.8326 49.5042 32C47.9631 33.8371 45.2821 34.7521 42.8149 34.7344C42.5433 34.7344 42.2717 34.7257 42 34.6997V42.408C42.0085 44.6566 42.7695 46.8345 44.1563 48.5795C45.5432 50.3246 47.4723 51.5316 49.6231 52C51.7195 51.4805 53.5852 50.2577 54.9223 48.5269C56.2595 46.7962 56.991 44.6571 57 42.4514V34.6997C56.7199 34.7257 56.4482 34.7344 56.185 34.7344ZM54.7844 39.665L48.545 45.0382C48.3848 45.1736 48.1818 45.2448 47.9741 45.2384C47.7663 45.232 47.5679 45.1485 47.416 45.0035L44.1817 41.9046C44.0174 41.7469 43.921 41.5289 43.9138 41.2985C43.9067 41.0682 43.9893 40.8443 44.1435 40.6763C44.2977 40.5082 44.5109 40.4097 44.7362 40.4023C44.9615 40.395 45.1803 40.4795 45.3447 40.6372L48.0272 43.2153L53.6893 38.3369C53.8622 38.1941 54.0829 38.1262 54.3041 38.1479C54.5254 38.1695 54.7295 38.2789 54.8728 38.4527C55.016 38.6264 55.087 38.8506 55.0705 39.0772C55.054 39.3039 54.9513 39.5149 54.7844 39.665Z" fill="#202020"/>
<path d="M40.6474 42.348V33.8321C40.65 33.6839 40.6905 33.5388 40.7648 33.4106C40.8392 33.2824 40.945 33.1754 41.0722 33.0997C41.2512 32.9935 41.463 32.9571 41.667 32.9976C44.4099 33.4468 47.6163 32.6646 49 30.4258L49 17.5584C48.9983 17.1456 48.834 16.7501 48.5427 16.4582C48.2515 16.1663 47.8569 16.0016 47.445 16H18.555C18.1431 16.0016 17.7485 16.1663 17.4573 16.4582C17.166 16.7501 17.0016 17.1456 17 17.5584V56.4416C17.0016 56.8544 17.166 57.2498 17.4573 57.5417C17.7485 57.8336 18.1431 57.9984 18.555 58H47.445C47.8569 57.9984 48.2515 57.8336 48.5427 57.5417C48.834 57.2498 48.9983 56.8544 49 56.4416V53.2737C46.6074 52.6181 44.4952 51.1947 42.9866 49.2214C41.4781 47.2482 40.6564 44.8338 40.6474 42.348ZM26.2703 26.6703C26.2709 26.4447 26.3607 26.2284 26.5199 26.0689C26.6791 25.9093 26.8948 25.8194 27.12 25.8187H30.2299V22.8211C30.2306 22.5955 30.3203 22.3793 30.4796 22.2197C30.6388 22.0601 30.8545 21.9702 31.0797 21.9696H34.9203C35.032 21.9692 35.1427 21.9909 35.246 22.0336C35.3492 22.0762 35.4431 22.1389 35.522 22.2181C35.601 22.2973 35.6636 22.3913 35.7062 22.4948C35.7487 22.5983 35.7704 22.7092 35.7701 22.8211V25.8187H38.8885C39.1136 25.8194 39.3294 25.9093 39.4886 26.0689C39.6478 26.2284 39.7375 26.4447 39.7382 26.6703V30.6046C39.7375 30.8303 39.6478 31.0465 39.4886 31.206C39.3294 31.3656 39.1136 31.4555 38.8885 31.4562H35.7701V34.4538C35.7704 34.5657 35.7487 34.6766 35.7062 34.7801C35.6636 34.8836 35.601 34.9776 35.522 35.0568C35.4431 35.1359 35.3492 35.1986 35.246 35.2413C35.1427 35.284 35.032 35.3057 34.9203 35.3053H31.0797C30.8545 35.3047 30.6388 35.2147 30.4796 35.0552C30.3203 34.8956 30.2306 34.6794 30.2299 34.4538V31.4562H27.12C26.8948 31.4555 26.6791 31.3656 26.5199 31.206C26.3607 31.0465 26.2709 30.8303 26.2703 30.6046V26.6703ZM20.9851 38.2859H39.1604C39.2722 38.2856 39.3829 38.3073 39.4863 38.35C39.5897 38.3926 39.6837 38.4553 39.7628 38.5344C39.842 38.6135 39.9048 38.7075 39.9477 38.811C39.9905 38.9145 40.0126 39.0254 40.0126 39.1375C40.0126 39.2495 39.9905 39.3605 39.9477 39.464C39.9048 39.5674 39.842 39.6614 39.7628 39.7405C39.6837 39.8196 39.5897 39.8823 39.4863 39.925C39.3829 39.9676 39.2722 39.9894 39.1604 39.9891H20.9851C20.7625 39.9849 20.5504 39.8934 20.3944 39.7341C20.2384 39.5749 20.151 39.3606 20.151 39.1375C20.151 38.9143 20.2384 38.7001 20.3944 38.5408C20.5504 38.3816 20.7625 38.29 20.9851 38.2859ZM20.9851 44.3066H38.9734C39.1988 44.3066 39.4149 44.3963 39.5742 44.556C39.7336 44.7157 39.8231 44.9323 39.8231 45.1581C39.8231 45.384 39.7336 45.6006 39.5742 45.7603C39.4149 45.92 39.1988 46.0097 38.9734 46.0097H20.9851C20.7625 46.0055 20.5505 45.914 20.3945 45.7547C20.2386 45.5955 20.1512 45.3813 20.1512 45.1581C20.1512 44.935 20.2386 44.7208 20.3945 44.5616C20.5505 44.4023 20.7625 44.3108 20.9851 44.3066ZM40.8003 52.0304H20.9851C20.7625 52.0262 20.5505 51.9346 20.3945 51.7754C20.2386 51.6161 20.1512 51.4019 20.1513 51.1788C20.1513 50.9557 20.2386 50.7415 20.3946 50.5822C20.5505 50.423 20.7626 50.3314 20.9852 50.3272H40.8003C41.0234 50.3307 41.2361 50.422 41.3926 50.5813C41.5491 50.7407 41.6368 50.9553 41.6368 51.1788C41.6368 51.4024 41.5491 51.617 41.3926 51.7763C41.2361 51.9356 41.0234 52.0269 40.8003 52.0304Z" fill="#202020"/>
<path d="M56.1586 27C56.0935 27.1402 56.0469 27.3017 56.0217 27.474C55.9964 27.6463 55.9932 27.8255 56.0121 28C56.0133 27.6521 56.0634 27.3095 56.1586 27Z" fill="#202020"/>
</svg>
