<svg width="75" height="75" viewBox="0 0 75 75" fill="none" xmlns="http://www.w3.org/2000/svg">
<path fill-rule="evenodd" clip-rule="evenodd" d="M21.5 19.3215V54.6786C21.5 56.6314 23.0829 58.2143 25.0357 58.2143H40.3571V54.048C38.948 53.2329 38 51.7093 38 49.9643C38 47.3608 40.1107 45.25 42.7143 45.25C45.3179 45.25 47.4286 47.3608 47.4286 49.9643C47.4286 51.7093 46.4805 53.2329 45.0714 54.048V58.2143H50.9643C52.9171 58.2143 54.5 56.6314 54.5 54.6786V19.3215C54.5 17.3688 52.9171 15.7858 50.9643 15.7858H25.0357C23.0829 15.7858 21.5 17.3688 21.5 19.3215ZM42.7143 52.3215C44.0161 52.3215 45.0714 51.2662 45.0714 49.9643C45.0714 48.6625 44.0161 47.6072 42.7143 47.6072C41.4124 47.6072 40.3571 48.6625 40.3571 49.9643C40.3571 51.2662 41.4124 52.3215 42.7143 52.3215ZM30.9286 24.0358C30.9286 23.3848 31.4562 22.8572 32.1071 22.8572H43.8929C44.5438 22.8572 45.0714 23.3848 45.0714 24.0358C45.0714 24.6867 44.5438 25.2143 43.8929 25.2143H32.1071C31.4562 25.2143 30.9286 24.6867 30.9286 24.0358ZM27.3929 29.9286C26.7419 29.9286 26.2143 30.4563 26.2143 31.1072C26.2143 31.7581 26.7419 32.2858 27.3929 32.2858H48.6071C49.2581 32.2858 49.7857 31.7581 49.7857 31.1072C49.7857 30.4563 49.2581 29.9286 48.6071 29.9286H27.3929ZM26.2143 35.8215C26.2143 35.1706 26.7419 34.6429 27.3929 34.6429H48.6071C49.2581 34.6429 49.7857 35.1706 49.7857 35.8215C49.7857 36.4724 49.2581 37.0001 48.6071 37.0001H27.3929C26.7419 37.0001 26.2143 36.4724 26.2143 35.8215ZM27.3929 39.3572C26.7419 39.3572 26.2143 39.8848 26.2143 40.5358C26.2143 41.1867 26.7419 41.7143 27.3929 41.7143H48.6071C49.2581 41.7143 49.7857 41.1867 49.7857 40.5358C49.7857 39.8848 49.2581 39.3572 48.6071 39.3572H27.3929Z" fill="#202020"/>
</svg>
