<svg width="75" height="75" viewBox="0 0 75 75" fill="none" xmlns="http://www.w3.org/2000/svg">
<path d="M37 17.4982C37 20.5388 34.5356 23 31.5031 23C28.4581 23 26 20.5388 26 17.4982C26 14.4648 28.4581 12 31.5031 12C34.5356 12 37 14.4648 37 17.4982Z" fill="#202020"/>
<path d="M44.4995 40.2843C38.8672 40.2843 34.2877 44.8638 34.2877 50.5009C34.2877 56.1325 38.8672 60.7175 44.4995 60.7175C50.1346 60.7175 54.7114 56.1325 54.7114 50.5009C54.7114 44.8638 50.1346 40.2843 44.4995 40.2843ZM44.4995 62C38.159 62 33 56.8391 33 50.5009C33 44.1573 38.159 39 44.4995 39C50.841 39 56 44.1573 56 50.5009C56 56.8391 50.841 62 44.4995 62Z" fill="#202020"/>
<path d="M50 48.6223H46.3809V45H41.62V48.6223H38V53.3795H41.62V57H46.3809V53.3795H50V48.6223Z" fill="#202020"/>
<path d="M31.866 50.301C31.866 45.1389 35.0884 40.702 39.6784 38.8037V34.7104H41.6652V38.1968C42.631 37.9689 43.6294 37.8117 44.6613 37.8117C45.1211 37.8117 45.5565 37.8965 46 37.9451V34.3615C46 29.2152 41.6788 25 36.4045 25H27.591C22.3212 25 18 29.2152 18 34.3615V49.6421C18 52.8971 19.7306 55.7732 22.3357 57.4577V34.7104H24.3279V58.425C25.3462 58.7889 26.4442 59 27.591 59H35.5183C33.2627 56.7502 31.866 53.6824 31.866 50.301Z" fill="#202020"/>
</svg>
