<svg width="55" height="56" viewBox="0 0 55 56" fill="none" xmlns="http://www.w3.org/2000/svg">
<g clip-path="url(#clip0_801_4727)">
<path d="M27.5795 4.19259C29.7589 15.7582 36.006 21.6888 42.0185 24.7043C45.3505 26.3755 48.5943 27.1442 51.0031 27.4958C51.0309 27.4999 51.0586 27.5039 51.0861 27.5078C38.9498 30.2917 32.8817 36.8693 29.8773 43.0385C28.5282 45.8089 27.802 48.4854 27.4146 50.6793C25.4911 40.1225 19.4604 34.199 13.5345 30.8997C10.2204 29.0545 6.94682 28.0331 4.45684 27.4699C9.26874 26.8357 13.1113 25.3067 16.1758 23.2641C20.1289 20.6291 22.7593 17.1584 24.5083 13.714C26.2562 10.2717 27.1278 6.84814 27.5632 4.28899C27.5687 4.25673 27.5741 4.22459 27.5795 4.19259Z" stroke="#202020"/>
</g>
<defs>
<clipPath id="clip0_801_4727">
<rect width="55" height="56" fill="white"/>
</clipPath>
</defs>
</svg>
