<svg width="104" height="104" viewBox="0 0 104 104" fill="none" xmlns="http://www.w3.org/2000/svg">
<path d="M83.9988 34.7591C83.9988 26.6057 77.3931 20 69.2396 20C62.3349 20 56.5424 24.7378 54.9264 31.1336C54.6326 32.2932 54.4805 33.5104 54.4805 34.7591V49.5183H69.2396C77.3931 49.5183 83.9988 42.9126 83.9988 34.7591Z" fill="#202020"/>
<path d="M20 69.2408C20 77.3943 26.6057 84 34.7591 84C41.6639 84 47.4563 79.2621 49.0723 72.8663C49.3661 71.7068 49.5183 70.4896 49.5183 69.2408V54.4817H34.7591C26.6057 54.4817 20 61.0874 20 69.2408Z" fill="#202020"/>
<path d="M31.1336 49.0723C32.2932 49.3661 33.5104 49.5183 34.7591 49.5183H49.5183V34.7591C49.5235 26.6057 42.9126 20 34.7591 20C26.6057 20 20 26.6057 20 34.7591C20 41.6639 24.7378 47.4563 31.1336 49.0723Z" fill="#202020"/>
<path d="M72.8651 54.9279C71.7056 54.6341 70.4883 54.4819 69.2396 54.4819H54.4805V69.2411C54.4805 77.3945 61.0861 84.0002 69.2396 84.0002C77.3931 84.0002 83.9988 77.3945 83.9988 69.2411C83.9988 62.3363 79.2609 56.5439 72.8651 54.9279Z" fill="#202020"/>
</svg>
