<svg width="75" height="75" viewBox="0 0 75 75" fill="none" xmlns="http://www.w3.org/2000/svg">
<path d="M46.1086 40.0163H42.2516V43.9209H37.1969V40.0163H33.3418V34.8922H37.1969V30.9904H42.2516V34.8922H46.1086V40.0163ZM25.0764 40.0946H14.5829L18.3625 29.7392H25.0764V40.0946ZM28.658 27H16.2264L10.2113 41.2106L5 44.5996V58H9.12303C9.11475 57.8322 9.09907 57.6634 9.09907 57.4863C9.09907 53.7337 12.1034 50.6868 15.8185 50.6868C19.5281 50.6868 22.5306 53.7337 22.5306 57.4863C22.5306 57.6634 22.5224 57.8322 22.5076 58H28.658H37.7972C37.7898 57.8322 37.7751 57.6634 37.7751 57.4863C37.7751 53.7337 40.7785 50.6868 44.4927 50.6868C48.2014 50.6868 51.2057 53.7337 51.2057 57.4863C51.2057 57.6634 51.1992 57.8322 51.1836 58H55V27H28.658Z" fill="#202020"/>
<path d="M44.5033 59.9121C43.174 59.9121 42.0917 58.8344 42.0917 57.4967C42.0917 56.1703 43.174 55.0851 44.5033 55.0851C45.8363 55.0851 46.9177 56.1703 46.9177 57.4967C46.9177 58.8344 45.8363 59.9121 44.5033 59.9121ZM44.5033 52C41.4668 52 39 54.4621 39 57.4967C39 60.537 41.4668 63 44.5033 63C47.5435 63 50 60.537 50 57.4967C50 54.4621 47.5435 52 44.5033 52Z" fill="#202020"/>
<path d="M16.5037 59.9121C15.1669 59.9121 14.092 58.8344 14.092 57.4967C14.092 56.1703 15.1669 55.0851 16.5037 55.0851C17.8359 55.0851 18.91 56.1703 18.91 57.4967C18.91 58.8344 17.8359 59.9121 16.5037 59.9121ZM16.5037 52C13.467 52 11 54.4621 11 57.4967C11 60.537 13.467 63 16.5037 63C19.5442 63 22 60.537 22 57.4967C22 54.4621 19.5442 52 16.5037 52Z" fill="#202020"/>
<path d="M29.0004 25C27.3425 25 26 25.8953 26 27H32C32 25.8953 30.6566 25 29.0004 25Z" fill="#202020"/>
<path d="M25.5952 25L24 23.4129L24.4048 23L26 24.5853L25.5952 25Z" fill="#202020"/>
<path d="M27.4595 24L27 22.1066L27.5414 22L28 23.8957L27.4595 24Z" fill="#202020"/>
<path d="M30.365 24L30 23.7901L30.64 22L31 22.2053L30.365 24Z" fill="#202020"/>
<path d="M32.3138 25L32 24.4741L33.6879 23L34 23.5219L32.3138 25Z" fill="#202020"/>
<path d="M64.1525 20.3719L63 21.9786V22H64.9438V20.3719C64.9438 19.9277 64.9699 19.4758 65 19H64.9509C64.6791 19.4758 64.4514 19.9046 64.1525 20.3719Z" fill="#202020"/>
<path d="M67.6081 23.6034H66.6225V25.4616H64.8075V23.6034H61.1728V22.4155L64.2714 17.666H66.6225V22.2355H67.6081V23.6034ZM60.2149 25.4616H54.3995V24.3597L55.4546 23.4478C57.2534 21.9261 58.1257 21.0486 58.1504 20.1403C58.1504 19.5007 57.7438 18.9986 56.7935 18.9986C56.0898 18.9986 55.4689 19.336 55.0413 19.6436L54.4995 18.3373C55.1194 17.8958 56.0755 17.5357 57.1867 17.5357C59.0455 17.5357 60.0625 18.5662 60.0625 19.9811C60.0625 21.2901 59.0674 22.3341 57.8809 23.3401L57.123 23.9408V23.9634H60.2149V25.4616ZM61.0043 12C55.4803 12 51 16.2511 51 21.4991C51 23.2424 51.5076 24.8681 52.3636 26.2713H56.1212V29.7877C57.5581 30.5576 59.2293 31 61.0043 31C66.5206 31 71 26.7462 71 21.4991C71 16.2511 66.5206 12 61.0043 12Z" fill="#202020"/>
</svg>
