<svg width="94" height="77" viewBox="0 0 94 77" fill="none" xmlns="http://www.w3.org/2000/svg">
<path d="M23.0452 77C18.5979 77 14.9591 76.0833 12.129 74.25C9.29892 72.4167 6.97419 70.0741 5.15484 67.2222C3.13333 63.7593 1.71828 60.1944 0.909677 56.5278C0.303226 52.6574 0 49.5 0 47.0556C0 37.0741 2.52688 28.0093 7.58065 19.8611C12.6344 11.713 20.5183 5.0926 31.2323 0L33.9613 5.5C27.6946 8.14815 22.2366 12.3241 17.5871 18.0278C13.1398 23.7315 10.9161 29.537 10.9161 35.4445C10.9161 37.8889 11.2194 40.0278 11.8258 41.8611C15.0602 39.213 18.8 37.8889 23.0452 37.8889C28.3011 37.8889 32.8495 39.6204 36.6903 43.0833C40.5312 46.5463 42.4516 51.3333 42.4516 57.4444C42.4516 63.1481 40.5312 67.8333 36.6903 71.5C32.8495 75.1667 28.3011 77 23.0452 77ZM74.5936 77C70.1462 77 66.5075 76.0833 63.6774 74.25C60.8473 72.4167 58.5226 70.0741 56.7032 67.2222C54.6817 63.7593 53.2667 60.1944 52.4581 56.5278C51.8516 52.6574 51.5484 49.5 51.5484 47.0556C51.5484 37.0741 54.0753 28.0093 59.129 19.8611C64.1828 11.713 72.0667 5.0926 82.7806 0L85.5097 5.5C79.243 8.14815 73.785 12.3241 69.1355 18.0278C64.6882 23.7315 62.4645 29.537 62.4645 35.4445C62.4645 37.8889 62.7677 40.0278 63.3742 41.8611C66.6086 39.213 70.3484 37.8889 74.5936 37.8889C79.8495 37.8889 84.3979 39.6204 88.2387 43.0833C92.0796 46.5463 94 51.3333 94 57.4444C94 63.1481 92.0796 67.8333 88.2387 71.5C84.3979 75.1667 79.8495 77 74.5936 77Z" fill="#F3F3F3"/>
</svg>
