<svg width="101" height="100" fill="none" xmlns="http://www.w3.org/2000/svg"><path d="M49.81 100C22.67 100 .667 77.996.667 50.855c0-13.344 5.318-25.447 13.95-34.302.113-.116.225-.23.34-.345l.002.003c-8.631 8.855-13.95 20.957-13.95 34.302 0 27.142 22.002 49.145 49.143 49.145 13.344 0 25.447-5.32 34.302-13.951l.002.002-.344.34C75.256 94.68 63.154 100 49.81 100z" fill="#969A9D"/><path d="M50.154 99.658c-27.142 0-49.144-22.003-49.144-49.145 0-13.345 5.32-25.447 13.95-34.302l.34-.345.003.003C6.672 24.724 1.353 36.827 1.353 50.17c0 27.142 22.002 49.146 49.143 49.146 13.344 0 25.446-5.32 34.301-13.953l.004.003-.345.34C75.6 94.339 63.498 99.658 50.154 99.658z" fill="#96999C"/><path d="M50.498 99.316c-27.142 0-49.144-22.004-49.144-49.145 0-13.345 5.32-25.447 13.95-34.303l.34-.344.003.003C7.015 24.382 1.696 36.485 1.696 49.829c0 27.141 22.002 49.145 49.144 49.145 13.344 0 25.446-5.319 34.301-13.952l.003.002c-.114.115-.23.227-.345.34-8.855 8.633-20.957 13.952-34.301 13.952z" fill="#96989A"/><path d="M50.838 98.974c-27.142 0-49.144-22.003-49.144-49.145 0-13.344 5.32-25.447 13.95-34.302l.34-.345.002.003c-8.63 8.855-13.95 20.958-13.95 34.302 0 27.142 22.002 49.146 49.143 49.146 13.344 0 25.447-5.32 34.302-13.952l.003.002-.344.34c-8.856 8.633-20.958 13.951-34.302 13.951z" fill="#95979A"/><path d="M51.177 98.633c-27.141 0-49.143-22.004-49.143-49.146 0-13.344 5.319-25.447 13.95-34.302l.34-.344.002.002a49.443 49.443 0 00-5.596 6.883l-.006.008-.033.05-.01.014-.03.045-.012.018-.028.042-.014.022a.83.83 0 00-.044.065l-.02.03a1.225 1.225 0 01-.04.06l-.025.037-.012.02-.03.045-.01.014-.033.052a4.106 4.106 0 00-.042.064v.001c-5.038 7.715-7.965 16.93-7.965 26.832 0 15.959 7.605 30.14 19.39 39.118A48.927 48.927 0 0051.52 98.29c5.406 0 10.61-.873 15.475-2.485v-.001l.069-.023a2.045 2.045 0 01.066-.021l.012-.005a1.146 1.146 0 00.072-.024l.048-.016.025-.009a.749.749 0 01.04-.013c.011-.004.022-.007.032-.012a.678.678 0 00.034-.01l.04-.014.025-.009a.676.676 0 00.045-.016l.021-.006.054-.019.008-.003.063-.021a49.124 49.124 0 003.456-1.35l-.014.006a49.218 49.218 0 0014.731-9.9l.002.003-.345.339c-8.855 8.632-20.958 13.952-34.302 13.952z" fill="#939699"/><path d="M51.518 98.29zm15.622-2.536zm.072-.024l.048-.015-.048.015zm.145-.05l.035-.01c-.012.004-.024.008-.035.01zm.145-.048l.02-.007-.02.007zm.145-.05l.005-.001a.01.01 0 00-.005.001zm-57.309-73.27l.002-.001-.002.001zm.077-.117l.01-.014a.17.17 0 01-.01.014zm.077-.117a.805.805 0 00.017-.026c-.006.01-.01.018-.017.026zm.04-.06zm.117-.176l.03-.044-.03.044zm.079-.117z" fill="#939599"/><mask id="mask0_1128_12668" style="mask-type:luminance" maskUnits="userSpaceOnUse" x="2" y="0" width="99" height="99"><path d="M51.522 98.29a48.927 48.927 0 01-29.754-10.027C9.983 79.285 2.378 65.104 2.378 49.146c0-9.902 2.927-19.117 7.964-26.833l.001-.001a3.592 3.592 0 01.042-.064l.034-.052a1.381 1.381 0 01.039-.058l.012-.02.026-.038a.754.754 0 00.103-.154c.004-.009.009-.015.014-.023l.027-.041.013-.019.03-.044.01-.015c.01-.017.022-.033.033-.05l.006-.008a49.363 49.363 0 0110.151-11.007 49.15 49.15 0 009.636-6.014 48.966 48.966 0 0119.54-4.04C77.2.666 99.201 22.67 99.201 49.813c0 19.61-11.484 36.536-28.096 44.421-1.128.491-2.28.941-3.45 1.348l-.005.002-.063.022a.011.011 0 00-.008.003c-.019.005-.035.012-.054.018l-.02.007a.641.641 0 01-.046.016l-.026.008-.039.014-.034.01c-.01.005-.02.008-.031.012a.72.72 0 00-.04.014l-.027.009-.047.015a.095.095 0 01-.017.006l-.055.019-.013.004a2.04 2.04 0 00-.065.022l-.068.022-.001.001a49.113 49.113 0 01-15.475 2.485zM99.87 58s0-.004.002-.006L99.87 58zm.026-.146l.004-.02-.004.02zm.013-.07l.004-.021a.205.205 0 00-.004.021zm.026-.151c.003-.01.004-.021.006-.031a.433.433 0 01-.005.03zm.012-.067l.006-.033-.006.033zm.013-.076l.01-.055a60.75 60.75 0 01-.01.055zm.024-.14c.448-2.667.682-5.408.682-8.203 0-13.27-5.26-25.313-13.808-34.155 8.547 8.842 13.808 20.884 13.808 34.154a49.42 49.42 0 01-.682 8.205zM30.521 4.703l.005-.003a48.823 48.823 0 01-.005.003zm9.222-3.28l.024-.006-.024.006z" fill="#fff"/></mask><g mask="url(#mask0_1128_12668)"><path d="M51.522 98.29a48.927 48.927 0 01-29.754-10.027C9.983 79.285 2.378 65.104 2.378 49.146c0-9.902 2.927-19.117 7.964-26.833l.001-.001a3.592 3.592 0 01.042-.064l.034-.052a1.381 1.381 0 01.039-.058l.012-.02.026-.038.017-.027a1.507 1.507 0 00.042-.063.754.754 0 00.043-.064l.015-.023.027-.041.013-.019.03-.044.01-.015c.01-.017.022-.033.033-.05l.006-.008a49.363 49.363 0 0110.151-11.007 49.15 49.15 0 009.636-6.014 48.966 48.966 0 0119.54-4.04C77.2.666 99.201 22.67 99.201 49.813c0 19.61-11.484 36.536-28.096 44.421-1.128.491-2.28.941-3.45 1.348l-.005.002-.063.022a.011.011 0 00-.008.003c-.019.005-.035.012-.054.018l-.02.007a.641.641 0 01-.046.016l-.026.008-.039.014-.034.01c-.01.005-.02.008-.031.012a.72.72 0 00-.04.014l-.027.009-.047.015a.095.095 0 01-.017.006l-.055.019-.013.004a2.04 2.04 0 00-.065.022l-.068.022-.001.001a49.113 49.113 0 01-15.475 2.485zM99.87 58s0-.004.002-.006L99.87 58zm.026-.146l.004-.02-.004.02zm.013-.07l.004-.021a.205.205 0 00-.004.021zm.026-.151c.003-.01.004-.021.006-.031a.433.433 0 01-.005.03zm.012-.067l.006-.033-.006.033zm.013-.076l.01-.055a60.75 60.75 0 01-.01.055zm.024-.14c.448-2.667.682-5.408.682-8.203 0-13.27-5.26-25.313-13.808-34.155 8.547 8.842 13.808 20.884 13.808 34.154a49.42 49.42 0 01-.682 8.205zM30.521 4.703l.005-.003a48.824 48.824 0 01-.005.003zm9.222-3.28l.024-.006-.024.006z" fill="url(#paint0_linear_1128_12668)"/></g><path d="M100.667 49.146c0 20.186-12.169 37.53-29.572 45.093 16.618-7.883 28.108-24.813 28.108-44.428C99.203 22.669 77.201.665 50.06.665a48.968 48.968 0 00-19.565 4.05A48.926 48.926 0 0151.524 0c27.14 0 49.143 22.004 49.143 49.146z" fill="#fff"/><path d="M38.338 65.554c-2.339 0-4.346-.592-6.023-1.776-1.666-1.193-2.95-2.911-3.85-5.156-.89-2.254-1.334-4.967-1.334-8.139.01-3.172.459-5.871 1.35-8.097.899-2.235 2.182-3.939 3.849-5.113 1.676-1.175 3.678-1.762 6.008-1.762s4.332.587 6.009 1.762c1.676 1.174 2.959 2.878 3.849 5.113.9 2.235 1.35 4.934 1.35 8.097 0 3.182-.45 5.9-1.35 8.153-.89 2.245-2.173 3.959-3.85 5.142-1.666 1.184-3.669 1.776-6.008 1.776zm0-4.446c1.818 0 3.253-.895 4.304-2.685 1.06-1.799 1.591-4.446 1.591-7.94 0-2.31-.241-4.252-.724-5.824s-1.165-2.756-2.046-3.551c-.88-.805-1.922-1.207-3.125-1.207-1.809 0-3.239.9-4.29 2.698-1.05 1.79-1.581 4.418-1.59 7.884-.01 2.32.222 4.27.695 5.852.483 1.582 1.165 2.775 2.046 3.58.88.795 1.927 1.193 3.14 1.193zM54.265 65v-3.807l10.1-9.9a47.53 47.53 0 002.414-2.6c.644-.757 1.127-1.491 1.449-2.201a5.44 5.44 0 00.483-2.273c0-.919-.208-1.705-.625-2.358a4.155 4.155 0 00-1.719-1.534c-.729-.36-1.558-.54-2.486-.54-.956 0-1.794.199-2.514.596a4.106 4.106 0 00-1.676 1.662c-.388.72-.582 1.577-.582 2.572h-5.015c0-1.847.422-3.452 1.265-4.816.843-1.364 2.002-2.42 3.48-3.168 1.486-.748 3.191-1.122 5.113-1.122 1.951 0 3.665.365 5.142 1.094 1.478.73 2.624 1.728 3.438 2.997.824 1.27 1.236 2.718 1.236 4.347a8.655 8.655 0 01-.625 3.21c-.417 1.051-1.15 2.216-2.202 3.494-1.042 1.279-2.505 2.827-4.39 4.645l-5.013 5.1v.199h12.67V65H54.265z" fill="#202020"/><defs><linearGradient id="paint0_linear_1128_12668" x1="-5.336" y1="121.333" x2="86.273" y2="14.396" gradientUnits="userSpaceOnUse"><stop stop-color="#fff"/><stop offset="1" stop-color="#EFEFEF"/></linearGradient></defs></svg>