<svg width="101" height="100" fill="none" xmlns="http://www.w3.org/2000/svg"><path d="M49.477 100C22.335 100 .333 77.996.333 50.855c0-13.344 5.32-25.447 13.95-34.302l.34-.345.003.003C5.994 25.066.676 37.168.676 50.513c0 27.142 22.001 49.145 49.143 49.145 13.344 0 25.447-5.32 34.301-13.951l.003.002-.344.34C74.923 94.68 62.82 100 49.477 100z" fill="#969A9D"/><path d="M49.82 99.658C22.68 99.658.678 77.655.678 50.513c0-13.345 5.32-25.447 13.95-34.302l.34-.345.003.003C6.338 24.724 1.02 36.827 1.02 50.17c0 27.142 22.001 49.146 49.143 49.146 13.344 0 25.446-5.32 34.301-13.953l.003.003-.345.34c-8.855 8.632-20.957 13.951-34.301 13.951z" fill="#96999C"/><path d="M50.165 99.316c-27.142 0-49.144-22.004-49.144-49.145 0-13.345 5.32-25.447 13.95-34.303l.34-.344.002.003c-8.63 8.855-13.95 20.958-13.95 34.302 0 27.141 22.002 49.145 49.143 49.145 13.344 0 25.447-5.319 34.302-13.952l.003.002c-.115.115-.23.227-.345.34-8.855 8.633-20.957 13.952-34.301 13.952z" fill="#96989A"/><path d="M50.504 98.974c-27.14 0-49.143-22.003-49.143-49.145 0-13.344 5.32-25.447 13.95-34.302l.34-.345.002.003C7.022 24.04 1.703 36.143 1.703 49.487c0 27.142 22.002 49.146 49.143 49.146 13.344 0 25.447-5.32 34.302-13.952l.002.002-.344.34c-8.855 8.633-20.957 13.951-34.302 13.951z" fill="#95979A"/><path d="M50.844 98.633C23.703 98.633 1.7 76.629 1.7 49.487c0-13.344 5.319-25.447 13.95-34.302l.34-.344.002.002a49.45 49.45 0 00-5.597 6.883l-.005.008-.034.05-.01.014-.03.045-.012.018-.027.042-.015.022a.748.748 0 00-.043.065l-.02.03a1.507 1.507 0 01-.04.06l-.025.037-.013.02-.029.045-.01.014-.033.052a4.106 4.106 0 00-.042.064l-.001.001c-5.038 7.715-7.965 16.93-7.965 26.832 0 15.959 7.606 30.14 19.39 39.118A48.927 48.927 0 0051.187 98.29c5.407 0 10.61-.873 15.476-2.485v-.001l.068-.023a2.145 2.145 0 01.065-.021l.014-.005a1.184 1.184 0 00.071-.024l.048-.016.026-.009a.695.695 0 01.04-.013l.032-.012a.62.62 0 00.034-.01l.04-.014.025-.009a.696.696 0 00.045-.016l.02-.006.054-.019.008-.003.064-.021a49.122 49.122 0 003.456-1.35l-.014.006a49.22 49.22 0 0014.731-9.9l.002.003-.345.339c-8.855 8.632-20.958 13.952-34.302 13.952z" fill="#939699"/><path d="M51.185 98.29zm15.622-2.536zm.072-.024l.048-.015-.048.015zm.145-.05l.034-.01a.62.62 0 01-.034.01zm.144-.048l.021-.007-.02.007zm.146-.05l.005-.001a.01.01 0 00-.005.001zm-57.309-73.27l.002-.001-.002.001zm.077-.117l.01-.014a.245.245 0 01-.01.014zm.077-.117zm.04-.06l.019-.029a.952.952 0 01-.02.03zm.117-.176l.03-.044-.03.044zm.079-.117z" fill="#939599"/><mask id="mask0_1128_12687" style="mask-type:luminance" maskUnits="userSpaceOnUse" x="2" y="0" width="99" height="99"><path d="M51.188 98.29a48.927 48.927 0 01-29.753-10.027C9.65 79.285 2.045 65.104 2.045 49.146c0-9.902 2.926-19.117 7.964-26.833l.001-.001a3.592 3.592 0 01.042-.064l.034-.052a1.381 1.381 0 01.039-.058c.003-.007.008-.014.012-.02l.026-.038.017-.027a1.507 1.507 0 00.042-.063.892.892 0 00.043-.064l.015-.023.027-.041.013-.019.03-.044.01-.015c.01-.017.022-.033.033-.05l.005-.008A49.356 49.356 0 0120.55 10.719a49.147 49.147 0 009.636-6.014A48.966 48.966 0 0149.725.665c27.142 0 49.144 22.004 49.144 49.147 0 19.61-11.485 36.536-28.096 44.421-1.128.491-2.28.941-3.45 1.348l-.006.002-.063.022-.008.003c-.018.005-.035.012-.053.018l-.02.007a.66.66 0 01-.046.016l-.026.008-.039.014-.034.01c-.01.005-.021.008-.032.012a.749.749 0 00-.04.014l-.026.009-.048.015a.095.095 0 01-.016.006l-.055.019-.013.004a2.045 2.045 0 00-.066.022l-.067.022-.001.001a49.113 49.113 0 01-15.476 2.485zM99.537 58l.001-.006-.001.006zm.026-.146l.004-.02-.004.02zm.013-.07l.004-.021a.205.205 0 00-.004.021zm.026-.151c.003-.01.004-.021.006-.031a.433.433 0 01-.006.03zm.012-.067l.006-.033-.006.033zm.013-.076l.01-.055-.01.055zm.024-.14c.448-2.667.682-5.408.682-8.203 0-13.27-5.26-25.313-13.808-34.155 8.547 8.842 13.808 20.884 13.808 34.154a49.42 49.42 0 01-.682 8.205zM30.188 4.703l.005-.003a48.821 48.821 0 01-.005.003zm9.221-3.28l.024-.006-.024.006z" fill="#fff"/></mask><g mask="url(#mask0_1128_12687)"><path d="M51.188 98.29a48.927 48.927 0 01-29.753-10.027C9.65 79.285 2.045 65.104 2.045 49.146c0-9.902 2.926-19.117 7.964-26.833l.001-.001a3.592 3.592 0 01.042-.064l.034-.052a1.381 1.381 0 01.039-.058c.003-.007.008-.014.012-.02l.026-.038.017-.027a1.507 1.507 0 00.042-.063.892.892 0 00.043-.064l.015-.023.027-.041.013-.019.03-.044.01-.015c.01-.017.022-.033.033-.05l.005-.008A49.356 49.356 0 0120.55 10.719a49.147 49.147 0 009.636-6.014A48.966 48.966 0 0149.725.665c27.142 0 49.144 22.004 49.144 49.147 0 19.61-11.485 36.536-28.096 44.421-1.128.491-2.28.941-3.45 1.348l-.006.002-.063.022-.008.003c-.018.005-.035.012-.053.018l-.02.007a.66.66 0 01-.046.016l-.026.008-.039.014-.034.01c-.01.005-.021.008-.032.012a.749.749 0 00-.04.014l-.026.009-.048.015a.095.095 0 01-.016.006l-.055.019-.013.004a2.045 2.045 0 00-.066.022l-.067.022-.001.001a49.113 49.113 0 01-15.476 2.485zM99.537 58l.001-.006-.001.006zm.026-.146l.004-.02-.004.02zm.013-.07l.004-.021a.205.205 0 00-.004.021zm.026-.151c.003-.01.004-.021.006-.031a.433.433 0 01-.006.03zm.012-.067l.006-.033-.006.033zm.013-.076l.01-.055-.01.055zm.024-.14c.448-2.667.682-5.408.682-8.203 0-13.27-5.26-25.313-13.808-34.155 8.547 8.842 13.808 20.884 13.808 34.154a49.42 49.42 0 01-.682 8.205zM30.188 4.703l.005-.003a48.822 48.822 0 01-.005.003zm9.221-3.28l.024-.006-.024.006z" fill="url(#paint0_linear_1128_12687)"/></g><path d="M100.334 49.146c0 20.186-12.17 37.53-29.573 45.093C87.38 86.356 98.87 69.426 98.87 49.81 98.87 22.669 76.868.665 49.726.665a48.968 48.968 0 00-19.564 4.05A48.926 48.926 0 0151.19 0c27.141 0 49.144 22.004 49.144 49.146z" fill="#fff"/><path d="M37.338 65.554c-2.339 0-4.346-.592-6.023-1.776-1.666-1.193-2.95-2.911-3.85-5.156-.89-2.254-1.334-4.967-1.334-8.139.01-3.172.459-5.871 1.35-8.097.899-2.235 2.182-3.939 3.848-5.113 1.677-1.175 3.68-1.762 6.01-1.762 2.329 0 4.331.587 6.008 1.762 1.676 1.174 2.959 2.878 3.849 5.113.9 2.235 1.35 4.934 1.35 8.097 0 3.182-.45 5.9-1.35 8.153-.89 2.245-2.173 3.959-3.85 5.142-1.666 1.184-3.669 1.776-6.008 1.776zm0-4.446c1.818 0 3.253-.895 4.304-2.685 1.06-1.799 1.591-4.446 1.591-7.94 0-2.31-.241-4.252-.724-5.824s-1.165-2.756-2.046-3.551c-.88-.805-1.922-1.207-3.125-1.207-1.809 0-3.239.9-4.29 2.698-1.05 1.79-1.581 4.418-1.59 7.884-.01 2.32.222 4.27.695 5.852.483 1.582 1.165 2.775 2.046 3.58.88.795 1.927 1.193 3.14 1.193zm26.367 4.29c-2.045 0-3.863-.35-5.454-1.051-1.582-.701-2.832-1.676-3.75-2.926-.919-1.25-1.407-2.695-1.463-4.333h5.34c.048.786.308 1.473.782 2.06.473.577 1.103 1.027 1.889 1.35.786.321 1.667.482 2.642.482 1.042 0 1.965-.18 2.77-.54.805-.369 1.435-.88 1.89-1.534.454-.653.676-1.406.667-2.258.01-.881-.218-1.658-.682-2.33-.464-.672-1.136-1.198-2.017-1.576-.871-.38-1.922-.569-3.154-.569h-2.57v-4.062h2.57c1.014 0 1.9-.175 2.657-.526.767-.35 1.368-.843 1.804-1.477.435-.644.648-1.387.639-2.23.01-.824-.175-1.539-.554-2.145a3.74 3.74 0 00-1.577-1.435c-.672-.34-1.463-.511-2.372-.511-.89 0-1.714.16-2.471.483-.758.322-1.369.781-1.833 1.378-.464.587-.71 1.288-.739 2.102h-5.07c.037-1.629.506-3.059 1.406-4.29.909-1.24 2.12-2.206 3.636-2.898 1.515-.7 3.215-1.05 5.1-1.05 1.94 0 3.626.364 5.056 1.093 1.44.72 2.552 1.69 3.338 2.912a7.328 7.328 0 011.18 4.048c.009 1.639-.474 3.012-1.45 4.12-.965 1.108-2.234 1.832-3.806 2.173v.227c2.045.284 3.612 1.042 4.701 2.273 1.099 1.222 1.643 2.741 1.634 4.56 0 1.628-.464 3.087-1.392 4.375-.919 1.278-2.188 2.282-3.807 3.011-1.61.73-3.456 1.094-5.54 1.094z" fill="#202020"/><defs><linearGradient id="paint0_linear_1128_12687" x1="-5.669" y1="121.333" x2="85.94" y2="14.396" gradientUnits="userSpaceOnUse"><stop stop-color="#fff"/><stop offset="1" stop-color="#EFEFEF"/></linearGradient></defs></svg>