<svg width="25" height="26" fill="none" xmlns="http://www.w3.org/2000/svg"><g clip-path="url(#clip0_801_5245)" fill="#FF3F56"><path d="M25 6.265A5.764 5.764 0 0019.233.5a5.768 5.768 0 00-5.591 4.35 5.763 5.763 0 00-.174 1.415v5.766h5.765a5.764 5.764 0 005.765-5.766zM0 19.735A5.764 5.764 0 005.765 25.5a5.767 5.767 0 005.766-5.765v-5.766H5.764A5.764 5.764 0 000 19.735zm4.35-7.879c.452.115.927.175 1.415.175h5.766V6.264A5.763 5.763 0 005.764.5 5.764 5.764 0 000 6.265c0 2.697 1.85 4.96 4.35 5.591zm16.3 2.288a5.768 5.768 0 00-1.416-.174h-5.765v5.765a5.764 5.764 0 005.765 5.765 5.764 5.764 0 005.765-5.765c0-2.697-1.85-4.96-4.349-5.591z"/></g><defs><clipPath id="clip0_801_5245"><path fill="#fff" transform="translate(0 .5)" d="M0 0h25v25H0z"/></clipPath></defs></svg>