<svg width="258" height="258" fill="none" xmlns="http://www.w3.org/2000/svg"><g clip-path="url(#clip0_801_5262)" fill-rule="evenodd" clip-rule="evenodd" fill="#FF3F56"><path d="M59.329 63.829c.425 18.938 10.657 39.161 25.836 56.976 22.683 26.614 56.379 47.856 84.431 51.498a1.069 1.069 0 001.183-.913 1.05 1.05 0 00-.913-1.184c-27.616-3.588-60.76-24.563-83.09-50.778-14.839-17.407-24.923-37.133-25.33-55.647a1.055 1.055 0 00-1.082-1.035 1.066 1.066 0 00-1.035 1.083z"/><path d="M200.315 185.868c-16.141-2.94-30.014-7.156-47.124-3.716a1.058 1.058 0 00-.828 1.25c.11.571.67.943 1.236.825 18.827-3.782 33.67 1.907 52.076 4.691.995.146 1.291-.547 1.348-.718.089-.253.147-.68-.25-1.098a2.59 2.59 0 00-.529-.38c-.533-.293-1.666-.796-2.151-1.072-1.393-.806-2.758-1.643-4.151-2.45-3.983-2.305-7.929-4.646-11.7-7.274-14.12-9.807-25.729-17.736-29.3-35.173a1.051 1.051 0 00-1.249-.828 1.06 1.06 0 00-.82 1.244c3.688 18.039 15.562 26.352 30.162 36.499 3.824 2.653 7.82 5.035 11.843 7.363.484.275.961.556 1.437.837z"/></g><defs><clipPath id="clip0_801_5262"><path fill="#fff" transform="rotate(-33.374 170.664 51.159)" d="M0 0h186v186H0z"/></clipPath></defs></svg>