<svg width="40" height="40" fill="none" xmlns="http://www.w3.org/2000/svg"><path fill-rule="evenodd" clip-rule="evenodd" d="M11.2 6.425a2.4 2.4 0 012.396-2.404L26.374 4a2.4 2.4 0 012.404 2.396l.044 27.19a2.4 2.4 0 01-2.396 2.404l-12.778.02a2.4 2.4 0 01-2.404-2.396L11.2 6.424zm1.6.797a1.6 1.6 0 011.597-1.602l11.181-.02a1.6 1.6 0 011.603 1.6l.035 21.591a1.6 1.6 0 01-1.597 1.603l-11.182.018a1.6 1.6 0 01-1.602-1.597l-.036-21.592zM20.034 34.4a1.599 1.599 0 10-.007-3.197 1.599 1.599 0 00.007 3.197z" fill="#000"/></svg>