<svg width="94" height="77" fill="none" xmlns="http://www.w3.org/2000/svg"><path d="M23.045 77c-4.447 0-8.086-.917-10.916-2.75a23.041 23.041 0 01-6.974-7.028C3.133 63.76 1.718 60.194.91 56.528.303 52.658 0 49.5 0 47.056c0-9.982 2.527-19.047 7.58-27.195C12.635 11.713 20.519 5.093 31.233 0l2.73 5.5c-6.267 2.648-11.725 6.824-16.375 12.528-4.447 5.704-6.67 11.509-6.67 17.416 0 2.445.302 4.584.909 6.417 3.234-2.648 6.974-3.972 11.22-3.972 5.255 0 9.803 1.731 13.644 5.194 3.841 3.463 5.762 8.25 5.762 14.361 0 5.704-1.92 10.39-5.762 14.056-3.84 3.667-8.389 5.5-13.645 5.5zm51.549 0c-4.448 0-8.087-.917-10.917-2.75a23.042 23.042 0 01-6.974-7.028c-2.021-3.463-3.436-7.028-4.245-10.694-.606-3.87-.91-7.028-.91-9.472 0-9.982 2.527-19.047 7.581-27.195S72.067 5.093 82.781 0l2.729 5.5c-6.267 2.648-11.725 6.824-16.375 12.528-4.447 5.704-6.67 11.509-6.67 17.416 0 2.445.303 4.584.91 6.417 3.234-2.648 6.973-3.972 11.219-3.972 5.256 0 9.804 1.731 13.645 5.194C92.079 46.546 94 51.333 94 57.444c0 5.704-1.92 10.39-5.761 14.056-3.841 3.667-8.39 5.5-13.645 5.5z" fill="#F3F3F3"/></svg>