<svg width="108" height="41" fill="none" xmlns="http://www.w3.org/2000/svg"><path fill-rule="evenodd" clip-rule="evenodd" d="M.064.884C4.982 10.596 15.302 18.54 27.59 24.01c18.36 8.17 41.095 10.824 56.54 5.755a.613.613 0 00.386-.767.603.603 0 00-.766-.387c-15.207 4.989-37.59 2.338-55.668-5.713C16.072 17.554 5.953 9.83 1.15.334A.606.606 0 00.333.066a.613.613 0 00-.269.818z" fill="#FF3F56"/><path fill-rule="evenodd" clip-rule="evenodd" d="M103.418 29.178c-9.097 2.48-17.334 3.735-25.35 9.762a.608.608 0 00-.12.853.6.6 0 00.846.121c8.82-6.63 17.927-7.362 28.158-10.484.552-.171.534-.604.521-.707a.588.588 0 00-.402-.507 1.49 1.49 0 00-.369-.065c-.348-.02-1.061 0-1.38-.023-.923-.072-1.838-.168-2.76-.24-2.636-.207-5.263-.442-7.869-.869-9.752-1.582-17.736-2.813-23.912-10.966a.605.605 0 00-.853-.12.608.608 0 00-.116.849c6.386 8.436 14.603 9.8 24.688 11.44 2.64.426 5.302.67 7.964.879.32.022.637.05.954.077z" fill="#FF3F56"/></svg>