<svg width="30" height="30" fill="none" xmlns="http://www.w3.org/2000/svg"><path d="M8.055 6.372C8.6 4.65 9.982 3.227 11.8 2.447V4.6a.8.8 0 101.6 0V1.4a.8.8 0 01.8-.8h1.6a.8.8 0 01.8.8v3.2a.8.8 0 101.6 0V2.447c1.842.79 3.237 2.244 3.767 3.999-.205.167-.548.367-1.084.563-1.194.435-3.195.791-6.305.791-2.238 0-4.038-.349-5.252-.791-.586-.214-1.007-.44-1.271-.637z" fill="#000"/><path fill-rule="evenodd" clip-rule="evenodd" d="M21.432 8.511c.708-.258 1.266-.568 1.663-.925.454.434.705.912.705 1.414 0 .958-.915 1.83-2.408 2.474a6.4 6.4 0 11-12.784 0C7.116 10.83 6.2 9.958 6.2 9c0-.52.27-1.013.753-1.46.03.025.06.05.09.073.436.337 1.03.641 1.736.898 1.418.518 3.407.889 5.8.889 3.207 0 5.415-.364 6.853-.889zM10.205 12.02a4.8 4.8 0 009.59 0c-1.38.367-3.026.581-4.795.581-1.769 0-3.415-.213-4.795-.58zM.6 29.4h16.8v-9.2l-1.6 1.2v3.118c-.164.042-.42.082-.8.082-.38 0-.636-.04-.8-.082v-2.94l-3.717-2.892C5.816 19.582.6 21.671.6 24.6v4.8zm5.6-1.6h6.4v-3.856l-5.22.87 1.5-4.126c-.932.243-1.842.53-2.68.857V27.8zm-4 0h2.4v-5.537l-.06.031c-.85.451-1.473.911-1.865 1.345-.383.424-.475.739-.475.961v3.2z" fill="#000"/><path d="M21.856 16.32c.463-.471 1.104.004.963.65l-.02.094a2.254 2.254 0 104.403 0l-.02-.095c-.142-.645.5-1.12.962-.649a4.397 4.397 0 01-.81 6.81c-.223.14-.334.407-.334.67v4a1.6 1.6 0 01-1.6 1.6h-.8a1.6 1.6 0 01-1.6-1.6v-4c0-.263-.11-.53-.333-.67a4.397 4.397 0 01-.81-6.81z" fill="#000"/></svg>