<svg width="76" height="75" fill="none" xmlns="http://www.w3.org/2000/svg"><path d="M36.857 75C16.501 75 0 58.497 0 38.14c0-10.008 3.99-19.085 10.463-25.726l.254-.26.002.003C4.246 18.8.256 27.876.256 37.884c0 20.357 16.502 36.86 36.858 36.86 10.008 0 19.085-3.99 25.726-10.464l.002.001-.258.255C55.942 71.011 46.865 75 36.857 75z" fill="#969A9D"/><path d="M37.115 74.743C16.76 74.743.258 58.242.258 37.884c0-10.008 3.99-19.085 10.463-25.726.084-.087.169-.173.254-.258l.002.001C4.504 18.543.514 27.62.514 37.628c0 20.357 16.502 36.86 36.858 36.86 10.008 0 19.085-3.99 25.726-10.465l.002.002-.259.255c-6.64 6.474-15.718 10.463-25.726 10.463z" fill="#96999C"/><path d="M37.377 74.487C17.021 74.487.52 57.985.52 37.628c0-10.008 3.989-19.085 10.462-25.727l.255-.258.002.002C4.765 18.286.776 27.364.776 37.372c0 20.356 16.502 36.858 36.857 36.858 10.008 0 19.085-3.989 25.727-10.463l.002.001c-.086.086-.172.17-.26.255-6.64 6.475-15.717 10.464-25.725 10.464z" fill="#96989A"/><path d="M37.623 74.23C17.267 74.23.766 57.728.766 37.372c0-10.008 3.99-19.086 10.463-25.727l.254-.259.002.003C5.012 18.03 1.022 27.107 1.022 37.115c0 20.356 16.502 36.86 36.857 36.86 10.009 0 19.086-3.99 25.727-10.464l.002.001-.258.255C56.707 70.24 47.63 74.23 37.623 74.23z" fill="#95979A"/><path d="M37.88 73.975c-20.355 0-36.857-16.503-36.857-36.86 0-10.008 3.99-19.085 10.463-25.726l.255-.258.002.001a37.09 37.09 0 00-4.198 5.162c0 .002-.002.004-.004.006l-.025.038-.007.01-.023.034-.009.014-.02.031-.012.017a.66.66 0 00-.032.048l-.015.023a.918.918 0 01-.03.044l-.019.03-.01.014a.994.994 0 00-.021.034l-.007.01-.026.039c0 .002-.001.002-.003.005l-.028.043A36.682 36.682 0 001.28 36.86c0 11.969 5.704 22.605 14.543 29.338a36.695 36.695 0 0022.315 7.52c4.054 0 7.957-.654 11.606-1.864l.051-.017.004-.001.046-.015.01-.004a.831.831 0 00.053-.018l.036-.012.02-.006a.437.437 0 01.03-.01l.023-.009a.427.427 0 00.026-.008l.03-.01.018-.007a.507.507 0 00.034-.012l.016-.005c.014-.004.026-.01.04-.013l.006-.003.047-.016a36.81 36.81 0 002.592-1.012l-.01.004a36.914 36.914 0 0011.048-7.425l.002.002-.259.255c-6.641 6.474-15.718 10.464-25.726 10.464z" fill="#939699"/><path d="M38.142 73.717zm11.717-1.901l.041-.014a.8.8 0 01-.041.014zm.054-.018l.036-.012-.036.012zm.109-.037l.025-.008-.025.008zm.108-.037l.016-.005-.016.005zm.109-.037l.004-.002c-.002 0-.003 0-.004.002zM7.258 16.734zm.057-.088l.007-.01a.154.154 0 01-.007.01zm.058-.087a.672.672 0 00.013-.02l-.013.02zm.03-.045l.014-.022a.714.714 0 01-.014.022zm.088-.132l.022-.034-.022.034zm.059-.088z" fill="#939599"/><mask id="mask0_801_4955" style="mask-type:luminance" maskUnits="userSpaceOnUse" x="1" y="0" width="74" height="74"><path d="M38.027 73.718a36.67 36.67 0 01-22.25-7.473c-8.812-6.69-14.5-17.258-14.5-29.15A36.356 36.356 0 017.233 17.1l.001-.002a3.183 3.183 0 01.031-.047l.026-.039a.999.999 0 01.029-.043l.009-.015.02-.029.012-.02a.888.888 0 00.046-.068.726.726 0 01.018-.026l.01-.017c.008-.01.014-.02.021-.031l.01-.014.022-.033.007-.01.025-.038.004-.006a36.82 36.82 0 017.592-8.203 36.772 36.772 0 007.205-4.481A36.726 36.726 0 0136.933.968c20.296 0 36.75 16.397 36.75 36.623 0 14.614-8.589 27.227-21.01 33.103-.844.366-1.706.701-2.581 1.005l-.004.001-.047.016-.006.003-.04.013-.015.005a.453.453 0 01-.034.012l-.02.007-.029.01-.025.008-.024.008a.52.52 0 00-.03.01l-.02.007-.035.012a.99.99 0 01-.054.018l-.01.003a1.995 1.995 0 00-.048.016l-.05.017h-.002a36.845 36.845 0 01-11.572 1.853zm36.155-30.025l.001-.004-.001.004zm.02-.109l.002-.015-.002.015zm.01-.051c0-.006 0-.011.002-.017a.152.152 0 00-.003.017zm.019-.113zm.009-.05c0-.01.003-.017.004-.025l-.004.025zm.01-.057l.006-.041-.007.041zm.017-.103c.335-1.988.51-4.031.51-6.114 0-9.889-3.934-18.863-10.326-25.452 6.392 6.589 10.326 15.563 10.326 25.451 0 2.084-.174 4.126-.51 6.115zM22.323 3.976l.004-.002a36.59 36.59 0 01-.004.002zm6.896-2.445l.018-.004-.018.004z" fill="#fff"/></mask><g mask="url(#mask0_801_4955)"><path d="M38.027 73.718a36.67 36.67 0 01-22.25-7.473c-8.812-6.69-14.5-17.258-14.5-29.15A36.356 36.356 0 017.233 17.1l.001-.002a3.183 3.183 0 01.031-.047l.026-.039a.999.999 0 01.029-.043l.009-.015.02-.029.012-.02a.888.888 0 00.046-.068.726.726 0 01.018-.026l.01-.017c.008-.01.014-.02.021-.031l.01-.014.022-.033.007-.01.025-.038.004-.006a36.816 36.816 0 017.592-8.203 36.772 36.772 0 007.205-4.481A36.726 36.726 0 0136.933.968c20.296 0 36.75 16.397 36.75 36.623 0 14.614-8.589 27.227-21.01 33.103-.844.366-1.706.701-2.581 1.005l-.004.001-.047.016-.006.003-.04.013-.015.005a.453.453 0 01-.034.012l-.02.007-.029.01-.025.008-.024.008a.52.52 0 00-.03.01l-.02.007-.035.012a.99.99 0 01-.054.018l-.01.003a1.995 1.995 0 00-.048.016l-.05.017h-.002a36.845 36.845 0 01-11.572 1.853zm36.155-30.025l.001-.004-.001.004zm.02-.109l.002-.015-.002.015zm.01-.051c0-.006 0-.011.002-.017a.152.152 0 00-.003.017zm.019-.113zm.009-.05c0-.01.003-.017.004-.025l-.004.025zm.01-.057l.006-.041-.007.041zm.017-.103c.335-1.988.51-4.031.51-6.114 0-9.889-3.934-18.863-10.326-25.452 6.392 6.589 10.326 15.563 10.326 25.451 0 2.084-.174 4.126-.51 6.115zM22.323 3.976l.004-.002a36.59 36.59 0 01-.004.002zM29.22 1.53l.018-.004-.018.004z" fill="url(#paint0_linear_801_4955)"/></g><path d="M75.004 36.86c0 15.139-9.127 28.147-22.18 33.82 12.464-5.913 21.082-18.61 21.082-33.322 0-20.356-16.501-36.86-36.857-36.86a36.726 36.726 0 00-14.674 3.039A36.694 36.694 0 0138.147 0c20.355 0 36.857 16.503 36.857 36.86z" fill="#fff"/><path d="M41.93 24.375a4.375 4.375 0 11-8.75 0 4.375 4.375 0 018.75 0zm-11.987 6.661a1.944 1.944 0 011.782-1.313h11.667a1.944 1.944 0 011.782 1.313l2.001 5.833a1.945 1.945 0 01-.56 2.097l-.128.042c-.385.129-.925.366-1.474.607l-.144.063a43.55 43.55 0 01-1.442.61l-.035.015c-.153.06-.305.118-.454.172-.654.238-1.181.378-1.534.4l-.072.002c-.2-.645-.34-1.355-.258-1.972.044-.326.146-.602.317-.832.17-.226.442-.458.904-.642l.902-.362-.722-1.805-.903.361c-.753.301-1.331.739-1.74 1.287a3.683 3.683 0 00-.685 1.736c-.152 1.139.152 2.286.406 3.048.155.467.487.79.892.963.364.156.751.176 1.076.156.583-.035 1.247-.22 1.87-.437v10.678a1.944 1.944 0 01-3.876.214l-.973-8.75a1.961 1.961 0 01-.011-.215h-1.945c0 .072-.004.144-.012.215l-.972 8.75a1.944 1.944 0 01-3.877-.215V42.369c.757.226 1.545.413 2.214.448.355.018.76-.001 1.132-.139.406-.15.805-.457.98-.98.286-.86.442-2.03.138-3.171-.317-1.189-1.126-2.294-2.644-2.9l-.903-.362-.722 1.805.902.361c.913.365 1.319.962 1.488 1.597.162.605.111 1.282-.041 1.846a1.86 1.86 0 01-.23 0c-.468-.023-1.133-.175-1.906-.413a27.15 27.15 0 01-.408-.13v-.028l-2.625-.98a1.944 1.944 0 01-1.158-2.453l2.001-5.833zm-3.082.631c-.904 0-1.692.491-2.215 1.014-.506.505-.98 1.26-.98 2.041 0 .526.257.944.456 1.209.198.264.448.514.641.707l.022.022c.146.146.263.264.357.369-.17.083-.37.17-.608.273h-.002l-.283.123c-.412.18-.92.413-1.329.71-.389.285-.92.798-.92 1.587 0 .652.308 1.127.654 1.452.297.277.665.484.916.625l.037.02c.304.171.47.271.575.37.021.02.033.034.04.043-.003.155-.085.298-.548.761l-.057.056c-.377.375-1.062 1.053-1.062 2.09 0 1.137.834 1.912 1.507 2.334.697.437 1.569.721 2.243.721h.973V46.25h-.973c-.227 0-.745-.133-1.21-.425-.49-.307-.595-.573-.595-.686 0-.16.076-.299.549-.77l.056-.057c.378-.375 1.062-1.053 1.062-2.09 0-.651-.309-1.127-.655-1.451-.296-.278-.664-.484-.916-.626l-.036-.02c-.295-.166-.46-.265-.567-.362l.073-.056c.216-.158.541-.316.963-.5l.221-.096a11.35 11.35 0 001.011-.475c.188-.106.412-.249.598-.44.188-.193.419-.521.419-.974 0-.525-.257-.944-.455-1.208a6.882 6.882 0 00-.642-.708l-.021-.021a5.453 5.453 0 01-.483-.521.953.953 0 01-.058-.086.932.932 0 01.074-.186c.071-.137.183-.292.328-.437.31-.31.633-.444.84-.444h.972v-1.944h-.972z" fill="#202020"/><path fill-rule="evenodd" clip-rule="evenodd" d="M51.146 32.785c-.375-.5-1.044-1.118-1.924-1.118h-.972v1.944h.96c.01.003.038.014.085.045.084.056.19.155.295.295.225.3.323.615.327.763a.656.656 0 01-.07.157 5.13 5.13 0 01-.36.518l-.017.02a6.65 6.65 0 00-.483.712c-.155.274-.32.654-.32 1.101 0 .715.525 1.154.78 1.344.24.18.546.356.795.5l.031.017.126.073c.313.182.531.326.672.462.063.062.087.1.096.116 0 .073-.003.13-.445.46l-.05.038c-.39.29-1.172.871-1.172 1.99 0 .953.485 1.598.787 1.999l.032.043c.327.436.43.612.43.875 0 .21-.134.481-.471.754a2.159 2.159 0 01-.472.29c-.1.045-.161.06-.181.065l-.005.001-.002.001h-.951v1.944h.972c.334 0 .678-.111.952-.232.298-.131.614-.319.909-.556.565-.457 1.194-1.227 1.194-2.267 0-.953-.485-1.598-.787-1.999l-.032-.043c-.327-.436-.43-.612-.43-.875v-.01c-.002-.074-.002-.128.444-.462l.05-.038c.39-.29 1.172-.87 1.172-1.99 0-.672-.346-1.168-.685-1.498-.328-.319-.735-.566-1.047-.748l-.226-.13c-.194-.112-.344-.198-.466-.282.08-.14.193-.293.355-.508l.015-.021a6.57 6.57 0 00.484-.711c.154-.275.32-.654.32-1.102 0-.689-.32-1.41-.715-1.937zm-.63 4.143l.013.014a.07.07 0 00-.012-.014zm.654 2.817v-.005l-.002-.003c0 .005.002.008.002.008zm-.003-17.315a2.43 2.43 0 114.862 0v4.425a3.403 3.403 0 11-4.861 0V22.43zm1.945 5.219l-.556.567a1.458 1.458 0 102.084 0l-.556-.567v-1.816h-.972v1.816zm.486-5.705c.269 0 .486.218.486.487v1.458h-.972V22.43c0-.269.218-.487.486-.487z" fill="#202020"/><defs><linearGradient id="paint0_linear_801_4955" x1="-4.491" y1="90.889" x2="63.739" y2="10.965" gradientUnits="userSpaceOnUse"><stop stop-color="#fff"/><stop offset="1" stop-color="#EFEFEF"/></linearGradient></defs></svg>